{
DisplayStrings = (
/Abreveacute
);
copyright = "Copyright (c) 2015, Cadson Demak (info@cadsondemak.com)";
customParameters = (
{
name = vendorID;
value = CDK;
},
{
name = description;
value = "Copyright (c) 2015, Cadson Demak (info@cadsondemak.com)";
},
{
name = license;

glyphs = (
{
glyphname = A;
lastChange = "2015-10-27 15:03:08 +0000";
layers = (
{
layerId = "8296656B-A453-444F-9AE7-A28FFBBB6660";
name = "Bold Italic";
paths = (
{
closed = 1;
nodes = (
"207 0 LINE",
"210 18 LINE",
"184 28 OFFCURVE",
"163 38 OFFCURVE",
"136 42 CURVE",
"415 548 LINE",
"482 44 LINE",
"467 42 OFFCURVE",
"441 35 OFFCURVE",
"401 22 CURVE",
"397 0 LINE",
"718 0 LINE",
"722 20 LINE",
"698 29 OFFCURVE",
"673 37 OFFCURVE",
"652 43 CURVE",
"547 704 LINE",
"424 704 LINE",
"52 45 LINE",
"46 44 OFFCURVE",
"-1 32 OFFCURVE",
"-29 23 CURVE",
"-33 0 LINE"
);
},
{
closed = 1;
nodes = (
"511 177 LINE",
"522 231 LINE",
"196 231 LINE",
"184 177 LINE"
);
}
);
width = 763;
}
);
leftKerningGroup = A;
note = A;
rightKerningGroup = A;
unicode = 0041;
},
{
glyphname = Aacute;
lastChange = "2015-10-27 15:00:59 +0000";
layers = (
{
layerId = "8296656B-A453-444F-9AE7-A28FFBBB6660";
name = "Bold Italic";
paths = (
{
closed = 1;
nodes = (
"207 0 LINE",
"210 18 LINE",
"184 28 OFFCURVE",
"163 38 OFFCURVE",
"136 42 CURVE",
"415 548 LINE",
"482 44 LINE",
"467 42 OFFCURVE",
"441 35 OFFCURVE",
"401 22 CURVE",
"397 0 LINE",
"718 0 LINE",
"722 20 LINE",
"698 29 OFFCURVE",
"673 37 OFFCURVE",
"652 43 CURVE",
"547 704 LINE",
"424 704 LINE",
"52 45 LINE",
"46 44 OFFCURVE",
"-1 32 OFFCURVE",
"-29 23 CURVE",
"-33 0 LINE"
);
},
{
closed = 1;
nodes = (
"511 177 LINE",
"522 231 LINE",
"196 231 LINE",
"184 177 LINE"
);
},
{
closed = 1;
nodes = (
"596 882 LINE SMOOTH",
"635 903 OFFCURVE",
"657 923 OFFCURVE",
"661 950 CURVE",
"666 970 OFFCURVE",
"657 996 OFFCURVE",
"620 996 CURVE SMOOTH",
"588 996 OFFCURVE",
"551 964 OFFCURVE",
"544 958 CURVE SMOOTH",
"398 825 LINE",
"418 786 LINE"
);
}
);
width = 763;
}
);
leftKerningGroup = A;
note = Aacute;
rightKerningGroup = A;
unicode = 00C1;
},
{
glyphname = Abreve;
lastChange = "2015-10-27 15:00:59 +0000";
layers = (
{
layerId = "8296656B-A453-444F-9AE7-A28FFBBB6660";
name = "Bold Italic";
paths = (
{
closed = 1;
nodes = (
"207 0 LINE",
"210 18 LINE",
"184 28 OFFCURVE",
"163 38 OFFCURVE",
"136 42 CURVE",
"415 548 LINE",
"482 44 LINE",
"467 42 OFFCURVE",
"441 35 OFFCURVE",
"401 22 CURVE",
"397 0 LINE",
"718 0 LINE",
"722 20 LINE",
"698 29 OFFCURVE",
"673 37 OFFCURVE",
"652 43 CURVE",
"547 704 LINE",
"424 704 LINE",
"52 45 LINE",
"46 44 OFFCURVE",
"-1 32 OFFCURVE",
"-29 23 CURVE",
"-33 0 LINE"
);
},
{
closed = 1;
nodes = (
"511 177 LINE",
"522 231 LINE",
"196 231 LINE",
"184 177 LINE"
);
},
{
closed = 1;
nodes = (
"599 783 OFFCURVE",
"677 827 OFFCURVE",
"710 920 CURVE",
"618 920 LINE",
"597 848 OFFCURVE",
"552 839 OFFCURVE",
"513 839 CURVE SMOOTH",
"473 839 OFFCURVE",
"431 848 OFFCURVE",
"439 920 CURVE",
"348 920 LINE",
"346 827 OFFCURVE",
"402 783 OFFCURVE",
"501 783 CURVE SMOOTH"
);
}
);
width = 763;
}
);
leftKerningGroup = A;
note = Abreve;
rightKerningGroup = A;
unicode = 0102;
},
{
glyphname = Abreveacute;
lastChange = "2015-10-27 15:00:58 +0000";
layers = (
{
layerId = "8296656B-A453-444F-9AE7-A28FFBBB6660";
name = "Bold Italic";
paths = (
{
closed = 1;
nodes = (
"207 0 LINE",
"210 18 LINE",
"184 28 OFFCURVE",
"163 38 OFFCURVE",
"136 42 CURVE",
"415 548 LINE",
"482 44 LINE",
"467 42 OFFCURVE",
"441 35 OFFCURVE",
"401 22 CURVE",
"397 0 LINE",
"718 0 LINE",
"722 20 LINE",
"698 29 OFFCURVE",
"673 37 OFFCURVE",
"652 43 CURVE",
"547 704 LINE",
"424 704 LINE",
"52 45 LINE",
"46 44 OFFCURVE",
"-1 32 OFFCURVE",
"-29 23 CURVE",
"-33 0 LINE"
);
},
{
closed = 1;
nodes = (
"511 177 LINE",
"522 231 LINE",
"196 231 LINE",
"184 177 LINE"
);
},
{
closed = 1;
nodes = (
"602 789 OFFCURVE",
"678 833 OFFCURVE",
"712 926 CURVE",
"621 926 LINE",
"599 854 OFFCURVE",
"554 845 OFFCURVE",
"515 845 CURVE SMOOTH",
"475 845 OFFCURVE",
"434 854 OFFCURVE",
"442 926 CURVE",
"349 926 LINE",
"347 833 OFFCURVE",
"405 789 OFFCURVE",
"503 789 CURVE SMOOTH"
);
},
{
closed = 1;
nodes = (
"636 990 LINE SMOOTH",
"677 1010 OFFCURVE",
"706 1035 OFFCURVE",
"711 1061 CURVE",
"715 1082 OFFCURVE",
"706 1109 OFFCURVE",
"670 1109 CURVE SMOOTH",
"642 1109 OFFCURVE",
"612 1084 OFFCURVE",
"589 1062 CURVE SMOOTH",
"497 969 LINE",
"516 934 LINE"
);
}
);
width = 763;
}
);
leftKerningGroup = A;
note = Abreveacute;
rightKerningGroup = A;
unicode = 1EAE;
},
{
glyphname = Abrevedotbelow;
lastChange = "2015-10-27 15:00:58 +0000";
layers = (
{
layerId = "8296656B-A453-444F-9AE7-A28FFBBB6660";
name = "Bold Italic";
paths = (
{
closed = 1;
nodes = (
"207 0 LINE",
"210 18 LINE",
"184 28 OFFCURVE",
"163 38 OFFCURVE",
"136 42 CURVE",
"415 548 LINE",
"482 44 LINE",
"467 42 OFFCURVE",
"441 35 OFFCURVE",
"401 22 CURVE",
"397 0 LINE",
"718 0 LINE",
"722 20 LINE",
"698 29 OFFCURVE",
"673 37 OFFCURVE",
"652 43 CURVE",
"547 704 LINE",
"424 704 LINE",
"52 45 LINE",
"46 44 OFFCURVE",
"-1 32 OFFCURVE",
"-29 23 CURVE",
"-33 0 LINE"
);
},
{
closed = 1;
nodes = (
"339 -187 OFFCURVE",
"370 -157 OFFCURVE",
"377 -120 CURVE SMOOTH",
"385 -82 OFFCURVE",
"366 -52 OFFCURVE",
"325 -52 CURVE SMOOTH",
"286 -52 OFFCURVE",
"256 -82 OFFCURVE",
"249 -120 CURVE SMOOTH",
"241 -157 OFFCURVE",
"259 -187 OFFCURVE",
"299 -187 CURVE SMOOTH"
);
},
{
closed = 1;
nodes = (
"511 177 LINE",
"522 231 LINE",
"196 231 LINE",
"184 177 LINE"
);
},
{
closed = 1;
nodes = (
"592 782 OFFCURVE",
"670 826 OFFCURVE",
"704 919 CURVE",
"612 919 LINE",
"590 847 OFFCURVE",
"545 838 OFFCURVE",
"506 838 CURVE SMOOTH",
"467 838 OFFCURVE",
"424 847 OFFCURVE",
"432 919 CURVE",
"341 919 LINE",
"339 826 OFFCURVE",
"396 782 OFFCURVE",
"494 782 CURVE SMOOTH"
);
}
);
width = 763;
}
);
leftKerningGroup = A;
note = Abrevedotbelow;
rightKerningGroup = A;
unicode = 1EB6;
},
{
glyphname = Abrevegrave;
lastChange = "2015-10-27 15:00:59 +0000";
layers = (
{
layerId = "8296656B-A453-444F-9AE7-A28FFBBB6660";
name = "Bold Italic";
paths = (
{
closed = 1;
nodes = (
"207 0 LINE",
"210 18 LINE",
"184 28 OFFCURVE",
"163 38 OFFCURVE",
"136 42 CURVE",
"415 548 LINE",
"482 44 LINE",
"467 42 OFFCURVE",
"441 35 OFFCURVE",
"401 22 CURVE",
"397 0 LINE",
"718 0 LINE",
"722 20 LINE",
"698 29 OFFCURVE",
"673 37 OFFCURVE",
"652 43 CURVE",
"547 704 LINE",
"424 704 LINE",
"52 45 LINE",
"46 44 OFFCURVE",
"-1 32 OFFCURVE",
"-29 23 CURVE",
"-33 0 LINE"
);
},
{
closed = 1;
nodes = (
"511 177 LINE",
"522 231 LINE",
"196 231 LINE",
"184 177 LINE"
);
},
{
closed = 1;
nodes = (
"602 789 OFFCURVE",
"678 833 OFFCURVE",
"712 926 CURVE",
"621 926 LINE",
"599 854 OFFCURVE",
"554 845 OFFCURVE",
"515 845 CURVE SMOOTH",
"475 845 OFFCURVE",
"434 854 OFFCURVE",
"442 926 CURVE",
"349 926 LINE",
"347 833 OFFCURVE",
"405 789 OFFCURVE",
"503 789 CURVE SMOOTH"
);
},
{
closed = 1;
nodes = (
"582 969 LINE",
"528 1062 LINE SMOOTH",
"515 1084 OFFCURVE",
"494 1109 OFFCURVE",
"466 1109 CURVE SMOOTH",
"430 1109 OFFCURVE",
"409 1082 OFFCURVE",
"405 1061 CURVE",
"399 1035 OFFCURVE",
"419 1010 OFFCURVE",
"453 990 CURVE SMOOTH",
"549 934 LINE"
);
}
);
width = 763;
}
);
leftKerningGroup = A;
note = Abrevegrave;
rightKerningGroup = A;
unicode = 1EB0;
},
{
glyphname = Abrevehookabove;
lastChange = "2015-10-27 15:00:59 +0000";
layers = (
{
layerId = "8296656B-A453-444F-9AE7-A28FFBBB6660";
name = "Bold Italic";
paths = (
{
closed = 1;
nodes = (
"207 0 LINE",
"210 18 LINE",
"184 28 OFFCURVE",
"163 38 OFFCURVE",
"136 42 CURVE",
"415 548 LINE",
"482 44 LINE",
"467 42 OFFCURVE",
"441 35 OFFCURVE",
"401 22 CURVE",
"397 0 LINE",
"718 0 LINE",
"722 20 LINE",
"698 29 OFFCURVE",
"673 37 OFFCURVE",
"652 43 CURVE",
"547 704 LINE",
"424 704 LINE",
"52 45 LINE",
"46 44 OFFCURVE",
"-1 32 OFFCURVE",
"-29 23 CURVE",
"-33 0 LINE"
);
},
{
closed = 1;
nodes = (
"511 177 LINE",
"522 231 LINE",
"196 231 LINE",
"184 177 LINE"
);
},
{
closed = 1;
nodes = (
"602 789 OFFCURVE",
"678 833 OFFCURVE",
"712 926 CURVE",
"621 926 LINE",
"599 854 OFFCURVE",
"554 845 OFFCURVE",
"515 845 CURVE SMOOTH",
"475 845 OFFCURVE",
"434 854 OFFCURVE",
"442 926 CURVE",
"349 926 LINE",
"347 833 OFFCURVE",
"405 789 OFFCURVE",
"503 789 CURVE SMOOTH"
);
},
{
closed = 1;
nodes = (
"566 953 LINE",
"584 997 LINE",
"630 1002 OFFCURVE",
"670 1019 OFFCURVE",
"682 1077 CURVE SMOOTH",
"695 1140 OFFCURVE",
"645 1163 OFFCURVE",
"592 1163 CURVE SMOOTH",
"564 1163 OFFCURVE",
"535 1156 OFFCURVE",
"515 1147 CURVE",
"513 1108 LINE",
"531 1117 OFFCURVE",
"553 1121 OFFCURVE",
"568 1121 CURVE SMOOTH",
"604 1121 OFFCURVE",
"617 1101 OFFCURVE",
"612 1078 CURVE SMOOTH",
"605 1042 OFFCURVE",
"576 1032 OFFCURVE",
"555 1032 CURVE SMOOTH",
"519 1032 LINE",
"507 953 LINE"
);
}
);
width = 763;
}
);
leftKerningGroup = A;
note = Abrevehookabove;
rightKerningGroup = A;
unicode = 1EB2;
},
{
glyphname = Abrevetilde;
lastChange = "2015-10-27 15:00:59 +0000";
layers = (
{
layerId = "8296656B-A453-444F-9AE7-A28FFBBB6660";
name = "Bold Italic";
paths = (
{
closed = 1;
nodes = (
"207 0 LINE",
"210 18 LINE",
"184 28 OFFCURVE",
"163 38 OFFCURVE",
"136 42 CURVE",
"415 548 LINE",
"482 44 LINE",
"467 42 OFFCURVE",
"441 35 OFFCURVE",
"401 22 CURVE",
"397 0 LINE",
"718 0 LINE",
"722 20 LINE",
"698 29 OFFCURVE",
"673 37 OFFCURVE",
"652 43 CURVE",
"547 704 LINE",
"424 704 LINE",
"52 45 LINE",
"46 44 OFFCURVE",
"-1 32 OFFCURVE",
"-29 23 CURVE",
"-33 0 LINE"
);
},
{
closed = 1;
nodes = (
"511 177 LINE",
"522 231 LINE",
"196 231 LINE",
"184 177 LINE"
);
},
{
closed = 1;
nodes = (
"602 789 OFFCURVE",
"678 833 OFFCURVE",
"712 926 CURVE",
"621 926 LINE",
"599 854 OFFCURVE",
"554 845 OFFCURVE",
"515 845 CURVE SMOOTH",
"475 845 OFFCURVE",
"434 854 OFFCURVE",
"442 926 CURVE",
"349 926 LINE",
"347 833 OFFCURVE",
"405 789 OFFCURVE",
"503 789 CURVE SMOOTH"
);
},
{
closed = 1;
nodes = (
"411 988 LINE",
"422 1018 OFFCURVE",
"449 1038 OFFCURVE",
"481 1038 CURVE SMOOTH",
"527 1038 OFFCURVE",
"554 988 OFFCURVE",
"612 988 CURVE SMOOTH",
"687 988 OFFCURVE",
"733 1036 OFFCURVE",
"755 1108 CURVE",
"700 1108 LINE",
"680 1062 OFFCURVE",
"644 1056 OFFCURVE",
"623 1056 CURVE SMOOTH",
"585 1056 OFFCURVE",
"571 1106 OFFCURVE",
"500 1106 CURVE SMOOTH",
"432 1106 OFFCURVE",
"381 1065 OFFCURVE",
"355 988 CURVE"
);
}
);
width = 763;
}
);
leftKerningGroup = A;
note = Abrevetilde;
rightKerningGroup = A;
unicode = 1EB4;
},
{
glyphname = Acaron;
lastChange = "2015-10-27 15:00:59 +0000";
layers = (
{
layerId = "8296656B-A453-444F-9AE7-A28FFBBB6660";
name = "Bold Italic";
paths = (
{
closed = 1;
nodes = (
"207 0 LINE",
"210 18 LINE",
"184 28 OFFCURVE",
"163 38 OFFCURVE",
"136 42 CURVE",
"415 548 LINE",
"482 44 LINE",
"467 42 OFFCURVE",
"441 35 OFFCURVE",
"401 22 CURVE",
"397 0 LINE",
"718 0 LINE",
"722 20 LINE",
"698 29 OFFCURVE",
"673 37 OFFCURVE",
"652 43 CURVE",
"547 704 LINE",
"424 704 LINE",
"52 45 LINE",
"46 44 OFFCURVE",
"-1 32 OFFCURVE",
"-29 23 CURVE",
"-33 0 LINE"
);
},
{
closed = 1;
nodes = (
"511 177 LINE",
"522 231 LINE",
"196 231 LINE",
"184 177 LINE"
);
},
{
closed = 1;
nodes = (
"541 786 LINE",
"569 820 OFFCURVE",
"678 906 OFFCURVE",
"728 935 CURVE",
"670 985 LINE",
"622 952 OFFCURVE",
"546 887 OFFCURVE",
"516 850 CURVE",
"513 850 LINE",
"499 887 OFFCURVE",
"449 952 OFFCURVE",
"415 985 CURVE",
"337 935 LINE",
"375 906 OFFCURVE",
"448 820 OFFCURVE",
"463 786 CURVE"
);
}
);
width = 763;
}
);
leftKerningGroup = A;
note = Acaron;
rightKerningGroup = A;
unicode = 01CD;
},
{
glyphname = Acircumflex;
lastChange = "2015-10-27 15:00:59 +0000";
layers = (
{
layerId = "8296656B-A453-444F-9AE7-A28FFBBB6660";
name = "Bold Italic";
paths = (
{
closed = 1;
nodes = (
"207 0 LINE",
"210 18 LINE",
"184 28 OFFCURVE",
"163 38 OFFCURVE",
"136 42 CURVE",
"415 548 LINE",
"482 44 LINE",
"467 42 OFFCURVE",
"441 35 OFFCURVE",
"401 22 CURVE",
"397 0 LINE",
"718 0 LINE",
"722 20 LINE",
"698 29 OFFCURVE",
"673 37 OFFCURVE",
"652 43 CURVE",
"547 704 LINE",
"424 704 LINE",
"52 45 LINE",
"46 44 OFFCURVE",
"-1 32 OFFCURVE",
"-29 23 CURVE",
"-33 0 LINE"
);
},
{
closed = 1;
nodes = (
"511 177 LINE",
"522 231 LINE",
"196 231 LINE",
"184 177 LINE"
);
},
{
closed = 1;
nodes = (
"421 818 OFFCURVE",
"498 883 OFFCURVE",
"527 920 CURVE",
"531 920 LINE",
"545 883 OFFCURVE",
"594 818 OFFCURVE",
"629 784 CURVE",
"708 835 LINE",
"669 863 OFFCURVE",
"595 950 OFFCURVE",
"582 984 CURVE",
"503 984 LINE",
"474 950 OFFCURVE",
"367 863 OFFCURVE",
"317 835 CURVE",
"374 784 LINE"
);
}
);
width = 763;
}
);
leftKerningGroup = A;
note = Acircumflex;
rightKerningGroup = A;
unicode = 00C2;
},
{
glyphname = Acircumflexacute;
lastChange = "2015-10-27 15:00:58 +0000";
layers = (
{
layerId = "8296656B-A453-444F-9AE7-A28FFBBB6660";
name = "Bold Italic";
paths = (
{
closed = 1;
nodes = (
"207 0 LINE",
"210 18 LINE",
"184 28 OFFCURVE",
"163 38 OFFCURVE",
"136 42 CURVE",
"415 548 LINE",
"482 44 LINE",
"467 42 OFFCURVE",
"441 35 OFFCURVE",
"401 22 CURVE",
"397 0 LINE",
"718 0 LINE",
"722 20 LINE",
"698 29 OFFCURVE",
"673 37 OFFCURVE",
"652 43 CURVE",
"547 704 LINE",
"424 704 LINE",
"52 45 LINE",
"46 44 OFFCURVE",
"-1 32 OFFCURVE",
"-29 23 CURVE",
"-33 0 LINE"
);
},
{
closed = 1;
nodes = (
"511 177 LINE",
"522 231 LINE",
"196 231 LINE",
"184 177 LINE"
);
},
{
closed = 1;
nodes = (
"423 818 OFFCURVE",
"500 883 OFFCURVE",
"530 920 CURVE",
"530 920 OFFCURVE",
"533 920 OFFCURVE",
"533 920 CURVE",
"547 883 OFFCURVE",
"597 818 OFFCURVE",
"631 784 CURVE",
"708 835 LINE",
"671 863 OFFCURVE",
"598 950 OFFCURVE",
"584 984 CURVE",
"506 984 LINE",
"476 950 OFFCURVE",
"368 863 OFFCURVE",
"319 835 CURVE",
"376 784 LINE"
);
},
{
closed = 1;
nodes = (
"796 985 LINE SMOOTH",
"839 1005 OFFCURVE",
"866 1022 OFFCURVE",
"871 1048 CURVE",
"877 1078 OFFCURVE",
"857 1097 OFFCURVE",
"828 1097 CURVE SMOOTH",
"798 1097 OFFCURVE",
"771 1077 OFFCURVE",
"751 1057 CURVE SMOOTH",
"658 964 LINE",
"677 929 LINE"
);
}
);
width = 763;
}
);
leftKerningGroup = A;
note = Acircumflexacute;
rightKerningGroup = A;
unicode = 1EA4;
},
{
glyphname = Acircumflexdotbelow;
lastChange = "2015-10-27 15:00:58 +0000";
layers = (
{
layerId = "8296656B-A453-444F-9AE7-A28FFBBB6660";
name = "Bold Italic";
paths = (
{
closed = 1;
nodes = (
"207 0 LINE",
"210 18 LINE",
"184 28 OFFCURVE",
"163 38 OFFCURVE",
"136 42 CURVE",
"415 548 LINE",
"482 44 LINE",
"467 42 OFFCURVE",
"441 35 OFFCURVE",
"401 22 CURVE",
"397 0 LINE",
"718 0 LINE",
"722 20 LINE",
"698 29 OFFCURVE",
"673 37 OFFCURVE",
"652 43 CURVE",
"547 704 LINE",
"424 704 LINE",
"52 45 LINE",
"46 44 OFFCURVE",
"-1 32 OFFCURVE",
"-29 23 CURVE",
"-33 0 LINE"
);
},
{
closed = 1;
nodes = (
"347 -187 OFFCURVE",
"377 -157 OFFCURVE",
"385 -120 CURVE SMOOTH",
"393 -82 OFFCURVE",
"373 -52 OFFCURVE",
"333 -52 CURVE SMOOTH",
"294 -52 OFFCURVE",
"264 -82 OFFCURVE",
"256 -120 CURVE SMOOTH",
"249 -157 OFFCURVE",
"267 -187 OFFCURVE",
"306 -187 CURVE SMOOTH"
);
},
{
closed = 1;
nodes = (
"511 177 LINE",
"522 231 LINE",
"196 231 LINE",
"184 177 LINE"
);
},
{
closed = 1;
nodes = (
"422 817 OFFCURVE",
"499 882 OFFCURVE",
"528 919 CURVE",
"532 919 LINE",
"546 882 OFFCURVE",
"595 817 OFFCURVE",
"630 783 CURVE",
"708 834 LINE",
"670 862 OFFCURVE",
"596 949 OFFCURVE",
"583 983 CURVE",
"504 983 LINE",
"475 949 OFFCURVE",
"368 862 OFFCURVE",
"318 834 CURVE",
"375 783 LINE"
);
}
);
width = 763;
}
);
leftKerningGroup = A;
note = Acircumflexdotbelow;
rightKerningGroup = A;
unicode = 1EAC;
},
{
glyphname = Acircumflexgrave;
lastChange = "2015-10-27 15:00:59 +0000";
layers = (
{
layerId = "8296656B-A453-444F-9AE7-A28FFBBB6660";
name = "Bold Italic";
paths = (
{
closed = 1;
nodes = (
"207 0 LINE",
"210 18 LINE",
"184 28 OFFCURVE",
"163 38 OFFCURVE",
"136 42 CURVE",
"415 548 LINE",
"482 44 LINE",
"467 42 OFFCURVE",
"441 35 OFFCURVE",
"401 22 CURVE",
"397 0 LINE",
"718 0 LINE",
"722 20 LINE",
"698 29 OFFCURVE",
"673 37 OFFCURVE",
"652 43 CURVE",
"547 704 LINE",
"424 704 LINE",
"52 45 LINE",
"46 44 OFFCURVE",
"-1 32 OFFCURVE",
"-29 23 CURVE",
"-33 0 LINE"
);
},
{
closed = 1;
nodes = (
"511 177 LINE",
"522 231 LINE",
"196 231 LINE",
"184 177 LINE"
);
},
{
closed = 1;
nodes = (
"419 964 LINE",
"364 1057 LINE SMOOTH",
"351 1077 OFFCURVE",
"334 1097 OFFCURVE",
"304 1097 CURVE SMOOTH",
"275 1097 OFFCURVE",
"247 1078 OFFCURVE",
"240 1048 CURVE",
"235 1022 OFFCURVE",
"254 1005 OFFCURVE",
"290 985 CURVE SMOOTH",
"386 929 LINE"
);
},
{
closed = 1;
nodes = (
"423 818 OFFCURVE",
"500 883 OFFCURVE",
"530 920 CURVE",
"530 920 OFFCURVE",
"533 920 OFFCURVE",
"533 920 CURVE",
"547 883 OFFCURVE",
"597 818 OFFCURVE",
"631 784 CURVE",
"708 835 LINE",
"671 863 OFFCURVE",
"598 950 OFFCURVE",
"584 984 CURVE",
"506 984 LINE",
"476 950 OFFCURVE",
"368 863 OFFCURVE",
"319 835 CURVE",
"376 784 LINE"
);
}
);
width = 763;
}
);
leftKerningGroup = A;
note = Acircumflexgrave;
rightKerningGroup = A;
unicode = 1EA6;
},
{
glyphname = Acircumflexhookabove;
lastChange = "2015-10-27 15:00:59 +0000";
layers = (
{
layerId = "8296656B-A453-444F-9AE7-A28FFBBB6660";
name = "Bold Italic";
paths = (
{
closed = 1;
nodes = (
"207 0 LINE",
"210 18 LINE",
"184 28 OFFCURVE",
"163 38 OFFCURVE",
"136 42 CURVE",
"415 548 LINE",
"482 44 LINE",
"467 42 OFFCURVE",
"441 35 OFFCURVE",
"401 22 CURVE",
"397 0 LINE",
"718 0 LINE",
"722 20 LINE",
"698 29 OFFCURVE",
"673 37 OFFCURVE",
"652 43 CURVE",
"547 704 LINE",
"424 704 LINE",
"52 45 LINE",
"46 44 OFFCURVE",
"-1 32 OFFCURVE",
"-29 23 CURVE",
"-33 0 LINE"
);
},
{
closed = 1;
nodes = (
"511 177 LINE",
"522 231 LINE",
"196 231 LINE",
"184 177 LINE"
);
},
{
closed = 1;
nodes = (
"423 818 OFFCURVE",
"500 883 OFFCURVE",
"530 920 CURVE",
"530 920 OFFCURVE",
"533 920 OFFCURVE",
"533 920 CURVE",
"547 883 OFFCURVE",
"597 818 OFFCURVE",
"631 784 CURVE",
"708 835 LINE",
"671 863 OFFCURVE",
"598 950 OFFCURVE",
"584 984 CURVE",
"506 984 LINE",
"476 950 OFFCURVE",
"368 863 OFFCURVE",
"319 835 CURVE",
"376 784 LINE"
);
},
{
closed = 1;
nodes = (
"717 948 LINE",
"734 992 LINE",
"780 997 OFFCURVE",
"822 1014 OFFCURVE",
"833 1072 CURVE SMOOTH",
"847 1135 OFFCURVE",
"797 1158 OFFCURVE",
"743 1158 CURVE SMOOTH",
"715 1158 OFFCURVE",
"685 1151 OFFCURVE",
"665 1142 CURVE",
"663 1103 LINE",
"682 1112 OFFCURVE",
"704 1116 OFFCURVE",
"719 1116 CURVE SMOOTH",
"755 1116 OFFCURVE",
"768 1096 OFFCURVE",
"763 1073 CURVE SMOOTH",
"756 1037 OFFCURVE",
"727 1027 OFFCURVE",
"706 1027 CURVE SMOOTH",
"670 1027 LINE",
"658 948 LINE"
);
}
);
width = 763;
}
);
leftKerningGroup = A;
note = Acircumflexhookabove;
rightKerningGroup = A;
unicode = 1EA8;
},
{
glyphname = Acircumflextilde;
lastChange = "2015-10-27 15:00:58 +0000";
layers = (
{
layerId = "8296656B-A453-444F-9AE7-A28FFBBB6660";
name = "Bold Italic";
paths = (
{
closed = 1;
nodes = (
"207 0 LINE",
"210 18 LINE",
"184 28 OFFCURVE",
"163 38 OFFCURVE",
"136 42 CURVE",
"415 548 LINE",
"482 44 LINE",
"467 42 OFFCURVE",
"441 35 OFFCURVE",
"401 22 CURVE",
"397 0 LINE",
"718 0 LINE",
"722 20 LINE",
"698 29 OFFCURVE",
"673 37 OFFCURVE",
"652 43 CURVE",
"547 704 LINE",
"424 704 LINE",
"52 45 LINE",
"46 44 OFFCURVE",
"-1 32 OFFCURVE",
"-29 23 CURVE",
"-33 0 LINE"
);
},
{
closed = 1;
nodes = (
"511 177 LINE",
"522 231 LINE",
"196 231 LINE",
"184 177 LINE"
);
},
{
closed = 1;
nodes = (
"423 818 OFFCURVE",
"500 883 OFFCURVE",
"530 920 CURVE",
"530 920 OFFCURVE",
"533 920 OFFCURVE",
"533 920 CURVE",
"547 883 OFFCURVE",
"597 818 OFFCURVE",
"631 784 CURVE",
"708 835 LINE",
"671 863 OFFCURVE",
"598 950 OFFCURVE",
"584 984 CURVE",
"506 984 LINE",
"476 950 OFFCURVE",
"368 863 OFFCURVE",
"319 835 CURVE",
"376 784 LINE"
);
},
{
closed = 1;
nodes = (
"430 1022 LINE",
"442 1052 OFFCURVE",
"468 1072 OFFCURVE",
"500 1072 CURVE SMOOTH",
"546 1072 OFFCURVE",
"573 1022 OFFCURVE",
"631 1022 CURVE SMOOTH",
"707 1022 OFFCURVE",
"753 1070 OFFCURVE",
"774 1142 CURVE",
"719 1142 LINE",
"700 1096 OFFCURVE",
"662 1090 OFFCURVE",
"642 1090 CURVE SMOOTH",
"604 1090 OFFCURVE",
"590 1140 OFFCURVE",
"519 1140 CURVE SMOOTH",
"451 1140 OFFCURVE",
"400 1099 OFFCURVE",
"374 1022 CURVE"
);
}
);
width = 763;
}
);
leftKerningGroup = A;
note = Acircumflextilde;
rightKerningGroup = A;
unicode = 1EAA;
},
{
glyphname = Adieresis;
lastChange = "2015-10-27 15:00:58 +0000";
layers = (
{
layerId = "8296656B-A453-444F-9AE7-A28FFBBB6660";
name = "Bold Italic";
paths = (
{
closed = 1;
nodes = (
"207 0 LINE",
"210 18 LINE",
"184 28 OFFCURVE",
"163 38 OFFCURVE",
"136 42 CURVE",
"415 548 LINE",
"482 44 LINE",
"467 42 OFFCURVE",
"441 35 OFFCURVE",
"401 22 CURVE",
"397 0 LINE",
"718 0 LINE",
"722 20 LINE",
"698 29 OFFCURVE",
"673 37 OFFCURVE",
"652 43 CURVE",
"547 704 LINE",
"424 704 LINE",
"52 45 LINE",
"46 44 OFFCURVE",
"-1 32 OFFCURVE",
"-29 23 CURVE",
"-33 0 LINE"
);
},
{
closed = 1;
nodes = (
"511 177 LINE",
"522 231 LINE",
"196 231 LINE",
"184 177 LINE"
);
},
{
closed = 1;
nodes = (
"404 785 OFFCURVE",
"436 815 OFFCURVE",
"444 852 CURVE SMOOTH",
"451 890 OFFCURVE",
"432 920 OFFCURVE",
"393 920 CURVE SMOOTH",
"354 920 OFFCURVE",
"324 890 OFFCURVE",
"316 852 CURVE SMOOTH",
"308 815 OFFCURVE",
"326 785 OFFCURVE",
"366 785 CURVE SMOOTH"
);
},
{
closed = 1;
nodes = (
"641 785 OFFCURVE",
"673 815 OFFCURVE",
"681 852 CURVE SMOOTH",
"688 890 OFFCURVE",
"669 920 OFFCURVE",
"629 920 CURVE SMOOTH",
"589 920 OFFCURVE",
"560 890 OFFCURVE",
"552 852 CURVE SMOOTH",
"544 815 OFFCURVE",
"562 785 OFFCURVE",
"601 785 CURVE SMOOTH"
);
}
);
width = 763;
}
);
leftKerningGroup = A;
note = Adieresis;
rightKerningGroup = A;
unicode = 00C4;
},
{
glyphname = Adotbelow;
lastChange = "2015-10-27 15:00:59 +0000";
layers = (
{
layerId = "8296656B-A453-444F-9AE7-A28FFBBB6660";
name = "Bold Italic";
paths = (
{
closed = 1;
nodes = (
"207 0 LINE",
"210 18 LINE",
"184 28 OFFCURVE",
"163 38 OFFCURVE",
"136 42 CURVE",
"415 548 LINE",
"482 44 LINE",
"467 42 OFFCURVE",
"441 35 OFFCURVE",
"401 22 CURVE",
"397 0 LINE",
"718 0 LINE",
"722 20 LINE",
"698 29 OFFCURVE",
"673 37 OFFCURVE",
"652 43 CURVE",
"547 704 LINE",
"424 704 LINE",
"52 45 LINE",
"46 44 OFFCURVE",
"-1 32 OFFCURVE",
"-29 23 CURVE",
"-33 0 LINE"
);
},
{
closed = 1;
nodes = (
"345 -187 OFFCURVE",
"375 -157 OFFCURVE",
"383 -120 CURVE SMOOTH",
"391 -82 OFFCURVE",
"372 -52 OFFCURVE",
"331 -52 CURVE SMOOTH",
"292 -52 OFFCURVE",
"262 -82 OFFCURVE",
"254 -120 CURVE SMOOTH",
"247 -157 OFFCURVE",
"265 -187 OFFCURVE",
"304 -187 CURVE SMOOTH"
);
},
{
closed = 1;
nodes = (
"511 177 LINE",
"522 231 LINE",
"196 231 LINE",
"184 177 LINE"
);
}
);
width = 763;
}
);
leftKerningGroup = A;
note = Adotbelow;
rightKerningGroup = A;
unicode = 1EA0;
},
{
glyphname = Agrave;
lastChange = "2015-10-27 15:00:58 +0000";
layers = (
{
layerId = "8296656B-A453-444F-9AE7-A28FFBBB6660";
name = "Bold Italic";
paths = (
{
closed = 1;
nodes = (
"207 0 LINE",
"210 18 LINE",
"184 28 OFFCURVE",
"163 38 OFFCURVE",
"136 42 CURVE",
"415 548 LINE",
"482 44 LINE",
"467 42 OFFCURVE",
"441 35 OFFCURVE",
"401 22 CURVE",
"397 0 LINE",
"718 0 LINE",
"722 20 LINE",
"698 29 OFFCURVE",
"673 37 OFFCURVE",
"652 43 CURVE",
"547 704 LINE",
"424 704 LINE",
"52 45 LINE",
"46 44 OFFCURVE",
"-1 32 OFFCURVE",
"-29 23 CURVE",
"-33 0 LINE"
);
},
{
closed = 1;
nodes = (
"511 177 LINE",
"522 231 LINE",
"196 231 LINE",
"184 177 LINE"
);
},
{
closed = 1;
nodes = (
"624 825 LINE",
"531 958 LINE",
"527 965 OFFCURVE",
"507 996 OFFCURVE",
"471 996 CURVE SMOOTH",
"434 996 OFFCURVE",
"414 970 OFFCURVE",
"409 950 CURVE",
"404 923 OFFCURVE",
"420 903 OFFCURVE",
"449 882 CURVE SMOOTH",
"589 786 LINE"
);
}
);
width = 763;
}
);
leftKerningGroup = A;
note = Agrave;
rightKerningGroup = A;
unicode = 00C0;
},
{
glyphname = Ahookabove;
lastChange = "2015-10-27 15:00:59 +0000";
layers = (
{
layerId = "8296656B-A453-444F-9AE7-A28FFBBB6660";
name = "Bold Italic";
paths = (
{
closed = 1;
nodes = (
"207 0 LINE",
"210 18 LINE",
"184 28 OFFCURVE",
"163 38 OFFCURVE",
"136 42 CURVE",
"415 548 LINE",
"482 44 LINE",
"467 42 OFFCURVE",
"441 35 OFFCURVE",
"401 22 CURVE",
"397 0 LINE",
"718 0 LINE",
"722 20 LINE",
"698 29 OFFCURVE",
"673 37 OFFCURVE",
"652 43 CURVE",
"547 704 LINE",
"424 704 LINE",
"52 45 LINE",
"46 44 OFFCURVE",
"-1 32 OFFCURVE",
"-29 23 CURVE",
"-33 0 LINE"
);
},
{
closed = 1;
nodes = (
"511 177 LINE",
"522 231 LINE",
"196 231 LINE",
"184 177 LINE"
);
},
{
closed = 1;
nodes = (
"546 784 LINE",
"571 855 LINE",
"624 860 OFFCURVE",
"670 880 OFFCURVE",
"683 944 CURVE SMOOTH",
"697 1014 OFFCURVE",
"640 1040 OFFCURVE",
"580 1040 CURVE SMOOTH",
"547 1040 OFFCURVE",
"514 1032 OFFCURVE",
"491 1021 CURVE",
"489 979 LINE",
"511 991 OFFCURVE",
"535 995 OFFCURVE",
"552 995 CURVE SMOOTH",
"592 995 OFFCURVE",
"608 971 OFFCURVE",
"603 945 CURVE SMOOTH",
"594 905 OFFCURVE",
"562 893 OFFCURVE",
"538 893 CURVE SMOOTH",
"497 893 LINE",
"479 784 LINE"
);
}
);
width = 763;
}
);
leftKerningGroup = A;
note = Ahookabove;
rightKerningGroup = A;
unicode = 1EA2;
},
{
glyphname = Amacron;
lastChange = "2015-10-27 15:00:59 +0000";
layers = (
{
layerId = "8296656B-A453-444F-9AE7-A28FFBBB6660";
name = "Bold Italic";
paths = (
{
closed = 1;
nodes = (
"207 0 LINE",
"210 18 LINE",
"184 28 OFFCURVE",
"163 38 OFFCURVE",
"136 42 CURVE",
"415 548 LINE",
"482 44 LINE",
"467 42 OFFCURVE",
"441 35 OFFCURVE",
"401 22 CURVE",
"397 0 LINE",
"718 0 LINE",
"722 20 LINE",
"698 29 OFFCURVE",
"673 37 OFFCURVE",
"652 43 CURVE",
"547 704 LINE",
"424 704 LINE",
"52 45 LINE",
"46 44 OFFCURVE",
"-1 32 OFFCURVE",
"-29 23 CURVE",
"-33 0 LINE"
);
},
{
closed = 1;
nodes = (
"511 177 LINE",
"522 231 LINE",
"196 231 LINE",
"184 177 LINE"
);
},
{
closed = 1;
nodes = (
"702 785 LINE",
"712 837 LINE",
"321 837 LINE",
"310 785 LINE"
);
}
);
width = 763;
}
);
leftKerningGroup = A;
note = Amacron;
rightKerningGroup = A;
unicode = 0100;
},
{
glyphname = Aogonek;
lastChange = "2015-10-27 15:00:59 +0000";
layers = (
{
layerId = "8296656B-A453-444F-9AE7-A28FFBBB6660";
name = "Bold Italic";
paths = (
{
closed = 1;
nodes = (
"207 0 LINE",
"210 18 LINE",
"184 28 OFFCURVE",
"163 38 OFFCURVE",
"136 42 CURVE",
"415 548 LINE",
"482 44 LINE",
"467 42 OFFCURVE",
"441 35 OFFCURVE",
"401 22 CURVE",
"397 0 LINE",
"718 0 LINE",
"722 20 LINE",
"698 29 OFFCURVE",
"673 37 OFFCURVE",
"652 43 CURVE",
"547 704 LINE",
"424 704 LINE",
"52 45 LINE",
"46 44 OFFCURVE",
"-1 32 OFFCURVE",
"-29 23 CURVE",
"-33 0 LINE"
);
},
{
closed = 1;
nodes = (
"676 -212 OFFCURVE",
"724 -201 OFFCURVE",
"754 -183 CURVE",
"767 -113 LINE",
"738 -130 OFFCURVE",
"713 -136 OFFCURVE",
"695 -136 CURVE SMOOTH",
"660 -136 OFFCURVE",
"640 -114 OFFCURVE",
"647 -84 CURVE",
"653 -53 OFFCURVE",
"684 -18 OFFCURVE",
"709 0 CURVE",
"632 0 LINE",
"568 -18 OFFCURVE",
"523 -74 OFFCURVE",
"514 -119 CURVE SMOOTH",
"502 -177 OFFCURVE",
"545 -212 OFFCURVE",
"631 -212 CURVE SMOOTH"
);
},
{
closed = 1;
nodes = (
"511 177 LINE",
"522 231 LINE",
"196 231 LINE",
"184 177 LINE"
);
}
);
width = 763;
}
);
leftKerningGroup = A;
note = Aogonek;
rightKerningGroup = A;
unicode = 0104;
},
{
glyphname = Aring;
lastChange = "2015-10-27 15:00:59 +0000";
layers = (
{
layerId = "8296656B-A453-444F-9AE7-A28FFBBB6660";
name = "Bold Italic";
paths = (
{
closed = 1;
nodes = (
"207 0 LINE",
"210 18 LINE",
"184 28 OFFCURVE",
"163 38 OFFCURVE",
"136 42 CURVE",
"415 548 LINE",
"482 44 LINE",
"467 42 OFFCURVE",
"441 35 OFFCURVE",
"401 22 CURVE",
"397 0 LINE",
"718 0 LINE",
"722 20 LINE",
"698 29 OFFCURVE",
"673 37 OFFCURVE",
"652 43 CURVE",
"547 704 LINE",
"424 704 LINE",
"52 45 LINE",
"46 44 OFFCURVE",
"-1 32 OFFCURVE",
"-29 23 CURVE",
"-33 0 LINE"
);
},
{
closed = 1;
nodes = (
"511 177 LINE",
"522 231 LINE",
"196 231 LINE",
"184 177 LINE"
);
},
{
closed = 1;
nodes = (
"559 747 OFFCURVE",
"611 790 OFFCURVE",
"624 853 CURVE SMOOTH",
"636 916 OFFCURVE",
"602 960 OFFCURVE",
"537 960 CURVE SMOOTH",
"470 960 OFFCURVE",
"419 916 OFFCURVE",
"406 853 CURVE SMOOTH",
"393 790 OFFCURVE",
"427 747 OFFCURVE",
"493 747 CURVE SMOOTH"
);
},
{
closed = 1;
nodes = (
"471 796 OFFCURVE",
"451 819 OFFCURVE",
"459 853 CURVE SMOOTH",
"466 887 OFFCURVE",
"495 910 OFFCURVE",
"527 910 CURVE SMOOTH",
"559 910 OFFCURVE",
"578 887 OFFCURVE",
"571 853 CURVE SMOOTH",
"564 819 OFFCURVE",
"535 796 OFFCURVE",
"503 796 CURVE SMOOTH"
);
}
);
width = 763;
}
);
leftKerningGroup = A;
note = Aring;
rightKerningGroup = A;
unicode = 00C5;
},
{
glyphname = Aringacute;
lastChange = "2015-10-27 15:00:58 +0000";
layers = (
{
layerId = "8296656B-A453-444F-9AE7-A28FFBBB6660";
name = "Bold Italic";
paths = (
{
closed = 1;
nodes = (
"207 0 LINE",
"210 18 LINE",
"184 28 OFFCURVE",
"163 38 OFFCURVE",
"136 42 CURVE",
"415 548 LINE",
"482 44 LINE",
"467 42 OFFCURVE",
"441 35 OFFCURVE",
"401 22 CURVE",
"397 0 LINE",
"718 0 LINE",
"722 20 LINE",
"698 29 OFFCURVE",
"673 37 OFFCURVE",
"652 43 CURVE",
"547 704 LINE",
"424 704 LINE",
"52 45 LINE",
"46 44 OFFCURVE",
"-1 32 OFFCURVE",
"-29 23 CURVE",
"-33 0 LINE"
);
},
{
closed = 1;
nodes = (
"511 177 LINE",
"522 231 LINE",
"196 231 LINE",
"184 177 LINE"
);
},
{
closed = 1;
nodes = (
"559 747 OFFCURVE",
"611 790 OFFCURVE",
"624 853 CURVE SMOOTH",
"636 916 OFFCURVE",
"602 960 OFFCURVE",
"537 960 CURVE SMOOTH",
"470 960 OFFCURVE",
"419 916 OFFCURVE",
"406 853 CURVE SMOOTH",
"393 790 OFFCURVE",
"427 747 OFFCURVE",
"493 747 CURVE SMOOTH"
);
},
{
closed = 1;
nodes = (
"471 796 OFFCURVE",
"451 819 OFFCURVE",
"459 853 CURVE SMOOTH",
"466 887 OFFCURVE",
"495 910 OFFCURVE",
"527 910 CURVE SMOOTH",
"559 910 OFFCURVE",
"578 887 OFFCURVE",
"571 853 CURVE SMOOTH",
"564 819 OFFCURVE",
"535 796 OFFCURVE",
"503 796 CURVE SMOOTH"
);
},
{
closed = 1;
nodes = (
"636 1078 LINE SMOOTH",
"674 1099 OFFCURVE",
"696 1119 OFFCURVE",
"701 1146 CURVE",
"706 1166 OFFCURVE",
"696 1192 OFFCURVE",
"660 1192 CURVE SMOOTH",
"627 1192 OFFCURVE",
"590 1160 OFFCURVE",
"584 1154 CURVE SMOOTH",
"438 1021 LINE",
"457 982 LINE"
);
}
);
width = 763;
}
);
leftKerningGroup = A;
note = Aringacute;
rightKerningGroup = A;
unicode = 01FA;
},
{
glyphname = Atilde;
lastChange = "2015-10-27 15:00:59 +0000";
layers = (
{
layerId = "8296656B-A453-444F-9AE7-A28FFBBB6660";
name = "Bold Italic";
paths = (
{
closed = 1;
nodes = (
"207 0 LINE",
"210 18 LINE",
"184 28 OFFCURVE",
"163 38 OFFCURVE",
"136 42 CURVE",
"415 548 LINE",
"482 44 LINE",
"467 42 OFFCURVE",
"441 35 OFFCURVE",
"401 22 CURVE",
"397 0 LINE",
"718 0 LINE",
"722 20 LINE",
"698 29 OFFCURVE",
"673 37 OFFCURVE",
"652 43 CURVE",
"547 704 LINE",
"424 704 LINE",
"52 45 LINE",
"46 44 OFFCURVE",
"-1 32 OFFCURVE",
"-29 23 CURVE",
"-33 0 LINE"
);
},
{
closed = 1;
nodes = (
"511 177 LINE",
"522 231 LINE",
"196 231 LINE",
"184 177 LINE"
);
},
{
closed = 1;
nodes = (
"372 786 LINE",
"384 817 OFFCURVE",
"406 837 OFFCURVE",
"434 837 CURVE SMOOTH",
"468 837 OFFCURVE",
"520 786 OFFCURVE",
"579 786 CURVE SMOOTH",
"660 786 OFFCURVE",
"705 836 OFFCURVE",
"727 910 CURVE",
"652 910 LINE",
"632 863 OFFCURVE",
"609 857 OFFCURVE",
"586 857 CURVE SMOOTH",
"546 857 OFFCURVE",
"519 908 OFFCURVE",
"445 908 CURVE SMOOTH",
"375 908 OFFCURVE",
"324 866 OFFCURVE",
"296 786 CURVE"
);
}
);
width = 763;
}
);
leftKerningGroup = A;
note = Atilde;
rightKerningGroup = A;
unicode = 00C3;
},
{
glyphname = AE;
lastChange = "2015-10-27 15:00:58 +0000";
layers = (
{
layerId = "8296656B-A453-444F-9AE7-A28FFBBB6660";
name = "Bold Italic";
paths = (
{
closed = 1;
nodes = (
"216 0 LINE",
"219 18 LINE",
"194 28 OFFCURVE",
"167 38 OFFCURVE",
"140 42 CURVE",
"241 177 LINE",
"462 177 LINE",
"434 42 LINE",
"409 38 OFFCURVE",
"376 30 OFFCURVE",
"347 20 CURVE",
"343 0 LINE",
"911 0 LINE",
"968 185 LINE",
"931 185 LINE",
"908 164 OFFCURVE",
"862 92 OFFCURVE",
"852 54 CURVE",
"606 54 LINE",
"662 332 LINE",
"819 332 LINE",
"817 315 OFFCURVE",
"818 276 OFFCURVE",
"821 244 CURVE",
"848 244 LINE",
"895 473 LINE",
"868 473 LINE",
"852 444 OFFCURVE",
"836 404 OFFCURVE",
"830 386 CURVE",
"674 386 LINE",
"727 645 LINE",
"966 645 LINE",
"961 613 OFFCURVE",
"970 536 OFFCURVE",
"980 513 CURVE",
"1017 513 LINE",
"1054 700 LINE",
"484 700 LINE",
"480 680 LINE",
"495 673 OFFCURVE",
"512 668 OFFCURVE",
"528 664 CURVE",
"51 44 LINE",
"26 38 OFFCURVE",
"1 30 OFFCURVE",
"-29 20 CURVE",
"-33 0 LINE"
);
},
{
closed = 1;
nodes = (
"543 576 LINE",
"473 231 LINE",
"283 231 LINE"
);
}
);
width = 1004;
}
);
leftKerningGroup = A;
note = AE;
unicode = 00C6;
},
{
glyphname = AEacute;
lastChange = "2015-10-27 15:00:59 +0000";
layers = (
{
layerId = "8296656B-A453-444F-9AE7-A28FFBBB6660";
name = "Bold Italic";
paths = (
{
closed = 1;
nodes = (
"216 0 LINE",
"219 18 LINE",
"194 28 OFFCURVE",
"167 38 OFFCURVE",
"140 42 CURVE",
"241 177 LINE",
"462 177 LINE",
"434 42 LINE",
"409 38 OFFCURVE",
"376 30 OFFCURVE",
"347 20 CURVE",
"343 0 LINE",
"911 0 LINE",
"968 185 LINE",
"931 185 LINE",
"908 164 OFFCURVE",
"862 92 OFFCURVE",
"852 54 CURVE",
"606 54 LINE",
"662 332 LINE",
"819 332 LINE",
"817 315 OFFCURVE",
"818 276 OFFCURVE",
"821 244 CURVE",
"848 244 LINE",
"895 473 LINE",
"868 473 LINE",
"852 444 OFFCURVE",
"836 404 OFFCURVE",
"830 386 CURVE",
"674 386 LINE",
"727 645 LINE",
"966 645 LINE",
"961 613 OFFCURVE",
"970 536 OFFCURVE",
"980 513 CURVE",
"1017 513 LINE",
"1054 700 LINE",
"484 700 LINE",
"480 680 LINE",
"495 673 OFFCURVE",
"512 668 OFFCURVE",
"528 664 CURVE",
"51 44 LINE",
"26 38 OFFCURVE",
"1 30 OFFCURVE",
"-29 20 CURVE",
"-33 0 LINE"
);
},
{
closed = 1;
nodes = (
"543 576 LINE",
"473 231 LINE",
"283 231 LINE"
);
},
{
closed = 1;
nodes = (
"890 882 LINE SMOOTH",
"928 903 OFFCURVE",
"950 923 OFFCURVE",
"955 950 CURVE",
"960 970 OFFCURVE",
"950 996 OFFCURVE",
"914 996 CURVE SMOOTH",
"881 996 OFFCURVE",
"845 964 OFFCURVE",
"838 958 CURVE SMOOTH",
"692 825 LINE",
"711 786 LINE"
);
}
);
width = 1004;
}
);
leftKerningGroup = A;
note = AEacute;
unicode = 01FC;
},
{
glyphname = B;
lastChange = "2015-10-27 15:00:59 +0000";
layers = (
{
layerId = "8296656B-A453-444F-9AE7-A28FFBBB6660";
name = "Bold Italic";
paths = (
{
closed = 1;
nodes = (
"335 0 LINE SMOOTH",
"511 0 OFFCURVE",
"587 69 OFFCURVE",
"612 195 CURVE SMOOTH",
"626 260 OFFCURVE",
"603 340 OFFCURVE",
"498 367 CURVE",
"499 373 LINE",
"588 400 OFFCURVE",
"639 465 OFFCURVE",
"655 537 CURVE SMOOTH",
"676 642 OFFCURVE",
"625 700 OFFCURVE",
"447 700 CURVE SMOOTH",
"121 700 LINE",
"117 679 LINE",
"145 668 OFFCURVE",
"168 661 OFFCURVE",
"189 657 CURVE",
"64 45 LINE",
"51 43 OFFCURVE",
"34 38 OFFCURVE",
"-17 19 CURVE",
"-21 0 LINE"
);
},
{
closed = 1;
nodes = (
"296 341 LINE",
"368 341 LINE SMOOTH",
"434 341 OFFCURVE",
"462 294 OFFCURVE",
"443 202 CURVE SMOOTH",
"423 107 OFFCURVE",
"385 54 OFFCURVE",
"322 54 CURVE SMOOTH",
"237 54 LINE"
);
},
{
closed = 1;
nodes = (
"358 645 LINE",
"413 645 LINE SMOOTH",
"478 645 OFFCURVE",
"497 608 OFFCURVE",
"481 527 CURVE SMOOTH",
"465 447 OFFCURVE",
"421 394 OFFCURVE",
"357 394 CURVE SMOOTH",
"306 394 LINE"
);
}
);
width = 630;
}
);
note = B;
unicode = 0042;
},
{
glyphname = C;
lastChange = "2015-10-27 15:00:59 +0000";
layers = (
{
layerId = "8296656B-A453-444F-9AE7-A28FFBBB6660";
name = "Bold Italic";
paths = (
{
closed = 1;
nodes = (
"431 -10 OFFCURVE",
"521 17 OFFCURVE",
"584 64 CURVE",
"569 112 LINE",
"497 64 OFFCURVE",
"423 47 OFFCURVE",
"372 47 CURVE SMOOTH",
"248 47 OFFCURVE",
"203 159 OFFCURVE",
"242 350 CURVE SMOOTH",
"280 539 OFFCURVE",
"385 653 OFFCURVE",
"512 653 CURVE SMOOTH",
"553 653 OFFCURVE",
"589 643 OFFCURVE",
"621 614 CURVE",
"615 565 OFFCURVE",
"613 512 OFFCURVE",
"617 474 CURVE",
"658 474 LINE",
"704 628 LINE",
"662 679 OFFCURVE",
"599 710 OFFCURVE",
"480 710 CURVE SMOOTH",
"257 710 OFFCURVE",
"112 572 OFFCURVE",
"67 350 CURVE SMOOTH",
"21 127 OFFCURVE",
"108 -10 OFFCURVE",
"338 -10 CURVE SMOOTH"
);
}
);
width = 652;
}
);
leftKerningGroup = C;
note = C;
unicode = 0043;
},
{
glyphname = Cacute;
lastChange = "2015-10-27 15:00:59 +0000";
layers = (
{
layerId = "8296656B-A453-444F-9AE7-A28FFBBB6660";
name = "Bold Italic";
paths = (
{
closed = 1;
nodes = (
"431 -10 OFFCURVE",
"521 17 OFFCURVE",
"584 64 CURVE",
"569 112 LINE",
"497 64 OFFCURVE",
"423 47 OFFCURVE",
"372 47 CURVE SMOOTH",
"248 47 OFFCURVE",
"203 159 OFFCURVE",
"242 350 CURVE SMOOTH",
"280 539 OFFCURVE",
"385 653 OFFCURVE",
"512 653 CURVE SMOOTH",
"553 653 OFFCURVE",
"589 643 OFFCURVE",
"621 614 CURVE",
"615 565 OFFCURVE",
"613 512 OFFCURVE",
"617 474 CURVE",
"658 474 LINE",
"704 628 LINE",
"662 679 OFFCURVE",
"599 710 OFFCURVE",
"480 710 CURVE SMOOTH",
"257 710 OFFCURVE",
"112 572 OFFCURVE",
"67 350 CURVE SMOOTH",
"21 127 OFFCURVE",
"108 -10 OFFCURVE",
"338 -10 CURVE SMOOTH"
);
},
{
closed = 1;
nodes = (
"636 882 LINE SMOOTH",
"674 903 OFFCURVE",
"696 923 OFFCURVE",
"701 950 CURVE",
"706 970 OFFCURVE",
"696 996 OFFCURVE",
"660 996 CURVE SMOOTH",
"627 996 OFFCURVE",
"590 964 OFFCURVE",
"584 958 CURVE SMOOTH",
"438 825 LINE",
"457 786 LINE"
);
}
);
width = 652;
}
);
leftKerningGroup = C;
note = Cacute;
unicode = 0106;
},
{
glyphname = Ccaron;
lastChange = "2015-10-27 15:00:59 +0000";
layers = (
{
layerId = "8296656B-A453-444F-9AE7-A28FFBBB6660";
name = "Bold Italic";
paths = (
{
closed = 1;
nodes = (
"431 -10 OFFCURVE",
"521 17 OFFCURVE",
"584 64 CURVE",
"569 112 LINE",
"497 64 OFFCURVE",
"423 47 OFFCURVE",
"372 47 CURVE SMOOTH",
"248 47 OFFCURVE",
"203 159 OFFCURVE",
"242 350 CURVE SMOOTH",
"280 539 OFFCURVE",
"385 653 OFFCURVE",
"512 653 CURVE SMOOTH",
"553 653 OFFCURVE",
"589 643 OFFCURVE",
"621 614 CURVE",
"615 565 OFFCURVE",
"613 512 OFFCURVE",
"617 474 CURVE",
"658 474 LINE",
"704 628 LINE",
"662 679 OFFCURVE",
"599 710 OFFCURVE",
"480 710 CURVE SMOOTH",
"257 710 OFFCURVE",
"112 572 OFFCURVE",
"67 350 CURVE SMOOTH",
"21 127 OFFCURVE",
"108 -10 OFFCURVE",
"338 -10 CURVE SMOOTH"
);
},
{
closed = 1;
nodes = (
"562 786 LINE",
"589 820 OFFCURVE",
"698 906 OFFCURVE",
"748 935 CURVE",
"690 985 LINE",
"642 952 OFFCURVE",
"566 887 OFFCURVE",
"537 850 CURVE",
"533 850 LINE",
"519 887 OFFCURVE",
"469 952 OFFCURVE",
"435 985 CURVE",
"357 935 LINE",
"396 906 OFFCURVE",
"468 820 OFFCURVE",
"483 786 CURVE"
);
}
);
width = 652;
}
);
leftKerningGroup = C;
note = Ccaron;
unicode = 010C;
},
{
glyphname = Ccedilla;
lastChange = "2015-10-27 15:00:59 +0000";
layers = (
{
layerId = "8296656B-A453-444F-9AE7-A28FFBBB6660";
name = "Bold Italic";
paths = (
{
closed = 1;
nodes = (
"431 -10 OFFCURVE",
"521 17 OFFCURVE",
"584 64 CURVE",
"569 112 LINE",
"497 64 OFFCURVE",
"423 47 OFFCURVE",
"372 47 CURVE SMOOTH",
"248 47 OFFCURVE",
"203 159 OFFCURVE",
"242 350 CURVE SMOOTH",
"280 539 OFFCURVE",
"385 653 OFFCURVE",
"512 653 CURVE SMOOTH",
"553 653 OFFCURVE",
"589 643 OFFCURVE",
"621 614 CURVE",
"615 565 OFFCURVE",
"613 512 OFFCURVE",
"617 474 CURVE",
"658 474 LINE",
"704 628 LINE",
"662 679 OFFCURVE",
"599 710 OFFCURVE",
"480 710 CURVE SMOOTH",
"257 710 OFFCURVE",
"112 572 OFFCURVE",
"67 350 CURVE SMOOTH",
"21 127 OFFCURVE",
"108 -10 OFFCURVE",
"338 -10 CURVE SMOOTH"
);
},
{
closed = 1;
nodes = (
"322 -270 OFFCURVE",
"396 -232 OFFCURVE",
"412 -157 CURVE SMOOTH",
"420 -114 OFFCURVE",
"397 -66 OFFCURVE",
"311 -66 CURVE",
"370 21 LINE",
"300 21 LINE",
"231 -78 LINE",
"251 -113 LINE",
"257 -112 OFFCURVE",
"265 -112 OFFCURVE",
"273 -112 CURVE SMOOTH",
"302 -112 OFFCURVE",
"338 -121 OFFCURVE",
"331 -157 CURVE",
"322 -200 OFFCURVE",
"282 -213 OFFCURVE",
"240 -213 CURVE SMOOTH",
"210 -213 OFFCURVE",
"180 -205 OFFCURVE",
"163 -192 CURVE",
"130 -235 LINE",
"156 -257 OFFCURVE",
"203 -270 OFFCURVE",
"242 -270 CURVE SMOOTH"
);
}
);
width = 652;
}
);
leftKerningGroup = C;
note = Ccedilla;
unicode = 00C7;
},
{
glyphname = Ccircumflex;
lastChange = "2015-10-27 15:00:59 +0000";
layers = (
{
layerId = "8296656B-A453-444F-9AE7-A28FFBBB6660";
name = "Bold Italic";
paths = (
{
closed = 1;
nodes = (
"431 -10 OFFCURVE",
"521 17 OFFCURVE",
"584 64 CURVE",
"569 112 LINE",
"497 64 OFFCURVE",
"423 47 OFFCURVE",
"372 47 CURVE SMOOTH",
"248 47 OFFCURVE",
"203 159 OFFCURVE",
"242 350 CURVE SMOOTH",
"280 539 OFFCURVE",
"385 653 OFFCURVE",
"512 653 CURVE SMOOTH",
"553 653 OFFCURVE",
"589 643 OFFCURVE",
"621 614 CURVE",
"615 565 OFFCURVE",
"613 512 OFFCURVE",
"617 474 CURVE",
"658 474 LINE",
"704 628 LINE",
"662 679 OFFCURVE",
"599 710 OFFCURVE",
"480 710 CURVE SMOOTH",
"257 710 OFFCURVE",
"112 572 OFFCURVE",
"67 350 CURVE SMOOTH",
"21 127 OFFCURVE",
"108 -10 OFFCURVE",
"338 -10 CURVE SMOOTH"
);
},
{
closed = 1;
nodes = (
"430 818 OFFCURVE",
"507 883 OFFCURVE",
"536 920 CURVE",
"540 920 LINE",
"554 883 OFFCURVE",
"603 818 OFFCURVE",
"637 784 CURVE",
"716 835 LINE",
"678 863 OFFCURVE",
"604 950 OFFCURVE",
"590 984 CURVE",
"512 984 LINE",
"483 950 OFFCURVE",
"375 863 OFFCURVE",
"325 835 CURVE",
"383 784 LINE"
);
}
);
width = 652;
}
);
leftKerningGroup = C;
note = Ccircumflex;
unicode = 0108;
},
{
glyphname = Cdotaccent;
lastChange = "2015-10-27 15:00:59 +0000";
layers = (
{
layerId = "8296656B-A453-444F-9AE7-A28FFBBB6660";
name = "Bold Italic";
paths = (
{
closed = 1;
nodes = (
"431 -10 OFFCURVE",
"521 17 OFFCURVE",
"584 64 CURVE",
"569 112 LINE",
"497 64 OFFCURVE",
"423 47 OFFCURVE",
"372 47 CURVE SMOOTH",
"248 47 OFFCURVE",
"203 159 OFFCURVE",
"242 350 CURVE SMOOTH",
"280 539 OFFCURVE",
"385 653 OFFCURVE",
"512 653 CURVE SMOOTH",
"553 653 OFFCURVE",
"589 643 OFFCURVE",
"621 614 CURVE",
"615 565 OFFCURVE",
"613 512 OFFCURVE",
"617 474 CURVE",
"658 474 LINE",
"704 628 LINE",
"662 679 OFFCURVE",
"599 710 OFFCURVE",
"480 710 CURVE SMOOTH",
"257 710 OFFCURVE",
"112 572 OFFCURVE",
"67 350 CURVE SMOOTH",
"21 127 OFFCURVE",
"108 -10 OFFCURVE",
"338 -10 CURVE SMOOTH"
);
},
{
closed = 1;
nodes = (
"565 785 OFFCURVE",
"597 815 OFFCURVE",
"605 852 CURVE SMOOTH",
"612 890 OFFCURVE",
"593 920 OFFCURVE",
"554 920 CURVE SMOOTH",
"514 920 OFFCURVE",
"484 890 OFFCURVE",
"476 852 CURVE SMOOTH",
"468 815 OFFCURVE",
"486 785 OFFCURVE",
"526 785 CURVE SMOOTH"
);
}
);
width = 652;
}
);
leftKerningGroup = C;
note = Cdotaccent;
unicode = 010A;
},
{
glyphname = D;
lastChange = "2015-10-27 15:00:58 +0000";
layers = (
{
layerId = "8296656B-A453-444F-9AE7-A28FFBBB6660";
name = "Bold Italic";
paths = (
{
closed = 1;
nodes = (
"316 0 LINE SMOOTH",
"541 0 OFFCURVE",
"657 127 OFFCURVE",
"703 350 CURVE SMOOTH",
"748 573 OFFCURVE",
"684 700 OFFCURVE",
"459 700 CURVE SMOOTH",
"130 700 LINE",
"126 680 LINE",
"151 671 OFFCURVE",
"174 662 OFFCURVE",
"196 657 CURVE",
"71 44 LINE",
"56 42 OFFCURVE",
"22 31 OFFCURVE",
"-9 21 CURVE",
"-12 0 LINE"
);
},
{
closed = 1;
nodes = (
"365 645 LINE",
"447 645 LINE SMOOTH",
"554 645 OFFCURVE",
"564 526 OFFCURVE",
"528 350 CURVE SMOOTH",
"492 173 OFFCURVE",
"433 54 OFFCURVE",
"324 54 CURVE SMOOTH",
"244 54 LINE"
);
}
);
width = 705;
}
);
note = D;
rightKerningGroup = D;
unicode = 0044;
},
{
glyphname = Eth;
lastChange = "2015-10-27 15:00:58 +0000";
layers = (
{
layerId = "8296656B-A453-444F-9AE7-A28FFBBB6660";
name = "Bold Italic";
paths = (
{
closed = 1;
nodes = (
"314 0 LINE SMOOTH",
"540 0 OFFCURVE",
"655 127 OFFCURVE",
"701 350 CURVE SMOOTH",
"746 573 OFFCURVE",
"683 700 OFFCURVE",
"457 700 CURVE SMOOTH",
"130 700 LINE",
"126 680 LINE",
"151 671 OFFCURVE",
"174 662 OFFCURVE",
"196 657 CURVE",
"71 44 LINE",
"56 42 OFFCURVE",
"22 31 OFFCURVE",
"-9 21 CURVE",
"-12 0 LINE"
);
},
{
closed = 1;
nodes = (
"425 307 LINE",
"436 360 LINE",
"76 360 LINE",
"65 307 LINE"
);
},
{
closed = 1;
nodes = (
"363 645 LINE",
"445 645 LINE SMOOTH",
"552 645 OFFCURVE",
"562 526 OFFCURVE",
"526 350 CURVE SMOOTH",
"490 173 OFFCURVE",
"431 54 OFFCURVE",
"323 54 CURVE SMOOTH",
"242 54 LINE"
);
}
);
width = 703;
}
);
note = Eth;
rightKerningGroup = D;
unicode = 00D0;
},
{
glyphname = Dcaron;
lastChange = "2015-10-27 15:00:59 +0000";
layers = (
{
layerId = "8296656B-A453-444F-9AE7-A28FFBBB6660";
name = "Bold Italic";
paths = (
{
closed = 1;
nodes = (
"316 0 LINE SMOOTH",
"541 0 OFFCURVE",
"657 127 OFFCURVE",
"703 350 CURVE SMOOTH",
"748 573 OFFCURVE",
"684 700 OFFCURVE",
"459 700 CURVE SMOOTH",
"130 700 LINE",
"126 680 LINE",
"151 671 OFFCURVE",
"174 662 OFFCURVE",
"196 657 CURVE",
"71 44 LINE",
"56 42 OFFCURVE",
"22 31 OFFCURVE",
"-9 21 CURVE",
"-12 0 LINE"
);
},
{
closed = 1;
nodes = (
"365 645 LINE",
"447 645 LINE SMOOTH",
"554 645 OFFCURVE",
"564 526 OFFCURVE",
"528 350 CURVE SMOOTH",
"492 173 OFFCURVE",
"433 54 OFFCURVE",
"324 54 CURVE SMOOTH",
"244 54 LINE"
);
},
{
closed = 1;
nodes = (
"496 786 LINE",
"524 820 OFFCURVE",
"633 906 OFFCURVE",
"683 935 CURVE",
"625 985 LINE",
"577 952 OFFCURVE",
"501 887 OFFCURVE",
"471 850 CURVE",
"468 850 LINE",
"454 887 OFFCURVE",
"404 952 OFFCURVE",
"370 985 CURVE",
"292 935 LINE",
"330 906 OFFCURVE",
"403 820 OFFCURVE",
"418 786 CURVE"
);
}
);
width = 705;
}
);
note = Dcaron;
rightKerningGroup = D;
unicode = 010E;
},
{
glyphname = Dcroat;
lastChange = "2015-10-27 15:00:58 +0000";
layers = (
{
layerId = "8296656B-A453-444F-9AE7-A28FFBBB6660";
name = "Bold Italic";
paths = (
{
closed = 1;
nodes = (
"316 0 LINE SMOOTH",
"541 0 OFFCURVE",
"657 127 OFFCURVE",
"703 350 CURVE SMOOTH",
"748 573 OFFCURVE",
"684 700 OFFCURVE",
"459 700 CURVE SMOOTH",
"130 700 LINE",
"126 680 LINE",
"151 671 OFFCURVE",
"174 662 OFFCURVE",
"196 657 CURVE",
"71 44 LINE",
"56 42 OFFCURVE",
"22 31 OFFCURVE",
"-9 21 CURVE",
"-12 0 LINE"
);
},
{
closed = 1;
nodes = (
"427 307 LINE",
"438 360 LINE",
"76 360 LINE",
"65 307 LINE"
);
},
{
closed = 1;
nodes = (
"365 645 LINE",
"447 645 LINE SMOOTH",
"554 645 OFFCURVE",
"564 526 OFFCURVE",
"528 350 CURVE SMOOTH",
"492 173 OFFCURVE",
"433 54 OFFCURVE",
"324 54 CURVE SMOOTH",
"244 54 LINE"
);
}
);
width = 705;
}
);
note = Dcroat;
rightKerningGroup = D;
unicode = 0110;
},
{
glyphname = Ddotbelow;
lastChange = "2015-10-27 15:00:59 +0000";
layers = (
{
layerId = "8296656B-A453-444F-9AE7-A28FFBBB6660";
name = "Bold Italic";
paths = (
{
closed = 1;
nodes = (
"316 0 LINE SMOOTH",
"541 0 OFFCURVE",
"657 127 OFFCURVE",
"703 350 CURVE SMOOTH",
"748 573 OFFCURVE",
"684 700 OFFCURVE",
"459 700 CURVE SMOOTH",
"130 700 LINE",
"126 680 LINE",
"151 671 OFFCURVE",
"174 662 OFFCURVE",
"196 657 CURVE",
"71 44 LINE",
"56 42 OFFCURVE",
"22 31 OFFCURVE",
"-9 21 CURVE",
"-12 0 LINE"
);
},
{
closed = 1;
nodes = (
"312 -187 OFFCURVE",
"343 -157 OFFCURVE",
"350 -120 CURVE SMOOTH",
"358 -82 OFFCURVE",
"339 -52 OFFCURVE",
"299 -52 CURVE SMOOTH",
"259 -52 OFFCURVE",
"229 -82 OFFCURVE",
"222 -120 CURVE SMOOTH",
"214 -157 OFFCURVE",
"232 -187 OFFCURVE",
"272 -187 CURVE SMOOTH"
);
},
{
closed = 1;
nodes = (
"365 645 LINE",
"447 645 LINE SMOOTH",
"554 645 OFFCURVE",
"564 526 OFFCURVE",
"528 350 CURVE SMOOTH",
"492 173 OFFCURVE",
"433 54 OFFCURVE",
"324 54 CURVE SMOOTH",
"244 54 LINE"
);
}
);
width = 705;
}
);
note = Ddotbelow;
rightKerningGroup = D;
unicode = 1E0C;
},
{
glyphname = Dlinebelow;
lastChange = "2015-10-27 15:00:58 +0000";
layers = (
{
layerId = "8296656B-A453-444F-9AE7-A28FFBBB6660";
name = "Bold Italic";
paths = (
{
closed = 1;
nodes = (
"316 0 LINE SMOOTH",
"541 0 OFFCURVE",
"657 127 OFFCURVE",
"703 350 CURVE SMOOTH",
"748 573 OFFCURVE",
"684 700 OFFCURVE",
"459 700 CURVE SMOOTH",
"130 700 LINE",
"126 680 LINE",
"151 671 OFFCURVE",
"174 662 OFFCURVE",
"196 657 CURVE",
"71 44 LINE",
"56 42 OFFCURVE",
"22 31 OFFCURVE",
"-9 21 CURVE",
"-12 0 LINE"
);
},
{
closed = 1;
nodes = (
"480 -111 LINE",
"491 -58 LINE",
"99 -58 LINE",
"88 -111 LINE"
);
},
{
closed = 1;
nodes = (
"365 645 LINE",
"447 645 LINE SMOOTH",
"554 645 OFFCURVE",
"564 526 OFFCURVE",
"528 350 CURVE SMOOTH",
"492 173 OFFCURVE",
"433 54 OFFCURVE",
"324 54 CURVE SMOOTH",
"244 54 LINE"
);
}
);
width = 705;
}
);
note = Dlinebelow;
rightKerningGroup = D;
unicode = 1E0E;
},
{
glyphname = E;
lastChange = "2015-10-27 15:00:59 +0000";
layers = (
{
layerId = "8296656B-A453-444F-9AE7-A28FFBBB6660";
name = "Bold Italic";
paths = (
{
closed = 1;
nodes = (
"556 0 LINE",
"612 185 LINE",
"576 185 LINE",
"554 164 OFFCURVE",
"507 92 OFFCURVE",
"496 54 CURVE",
"252 54 LINE",
"373 645 LINE",
"611 645 LINE",
"606 613 OFFCURVE",
"614 536 OFFCURVE",
"625 513 CURVE",
"661 513 LINE",
"699 700 LINE",
"130 700 LINE",
"126 680 LINE",
"153 669 OFFCURVE",
"182 661 OFFCURVE",
"204 657 CURVE",
"79 42 LINE",
"56 38 OFFCURVE",
"21 30 OFFCURVE",
"-9 20 CURVE",
"-12 0 LINE"
);
},
{
closed = 1;
nodes = (
"493 241 LINE",
"540 470 LINE",
"513 470 LINE",
"495 440 OFFCURVE",
"481 401 OFFCURVE",
"474 383 CURVE",
"245 383 LINE",
"233 328 LINE",
"463 328 LINE",
"462 311 OFFCURVE",
"462 272 OFFCURVE",
"467 241 CURVE"
);
}
);
width = 649;
}
);
note = E;
unicode = 0045;
},
{
glyphname = Eacute;
lastChange = "2015-10-27 15:00:59 +0000";
layers = (
{
layerId = "8296656B-A453-444F-9AE7-A28FFBBB6660";
name = "Bold Italic";
paths = (
{
closed = 1;
nodes = (
"556 0 LINE",
"612 185 LINE",
"576 185 LINE",
"554 164 OFFCURVE",
"507 92 OFFCURVE",
"496 54 CURVE",
"252 54 LINE",
"373 645 LINE",
"611 645 LINE",
"606 613 OFFCURVE",
"614 536 OFFCURVE",
"625 513 CURVE",
"661 513 LINE",
"699 700 LINE",
"130 700 LINE",
"126 680 LINE",
"153 669 OFFCURVE",
"182 661 OFFCURVE",
"204 657 CURVE",
"79 42 LINE",
"56 38 OFFCURVE",
"21 30 OFFCURVE",
"-9 20 CURVE",
"-12 0 LINE"
);
},
{
closed = 1;
nodes = (
"493 241 LINE",
"540 470 LINE",
"513 470 LINE",
"495 440 OFFCURVE",
"481 401 OFFCURVE",
"474 383 CURVE",
"245 383 LINE",
"233 328 LINE",
"463 328 LINE",
"462 311 OFFCURVE",
"462 272 OFFCURVE",
"467 241 CURVE"
);
},
{
closed = 1;
nodes = (
"580 882 LINE SMOOTH",
"618 903 OFFCURVE",
"640 923 OFFCURVE",
"645 950 CURVE",
"650 970 OFFCURVE",
"640 996 OFFCURVE",
"604 996 CURVE SMOOTH",
"571 996 OFFCURVE",
"535 964 OFFCURVE",
"528 958 CURVE SMOOTH",
"382 825 LINE",
"401 786 LINE"
);
}
);
width = 649;
}
);
note = Eacute;
unicode = 00C9;
},
{
glyphname = Ebreve;
lastChange = "2015-10-27 15:00:59 +0000";
layers = (
{
layerId = "8296656B-A453-444F-9AE7-A28FFBBB6660";
name = "Bold Italic";
paths = (
{
closed = 1;
nodes = (
"556 0 LINE",
"612 185 LINE",
"576 185 LINE",
"554 164 OFFCURVE",
"507 92 OFFCURVE",
"496 54 CURVE",
"252 54 LINE",
"373 645 LINE",
"611 645 LINE",
"606 613 OFFCURVE",
"614 536 OFFCURVE",
"625 513 CURVE",
"661 513 LINE",
"699 700 LINE",
"130 700 LINE",
"126 680 LINE",
"153 669 OFFCURVE",
"182 661 OFFCURVE",
"204 657 CURVE",
"79 42 LINE",
"56 38 OFFCURVE",
"21 30 OFFCURVE",
"-9 20 CURVE",
"-12 0 LINE"
);
},
{
closed = 1;
nodes = (
"493 241 LINE",
"540 470 LINE",
"513 470 LINE",
"495 440 OFFCURVE",
"481 401 OFFCURVE",
"474 383 CURVE",
"245 383 LINE",
"233 328 LINE",
"463 328 LINE",
"462 311 OFFCURVE",
"462 272 OFFCURVE",
"467 241 CURVE"
);
},
{
closed = 1;
nodes = (
"589 784 OFFCURVE",
"667 828 OFFCURVE",
"701 921 CURVE",
"609 921 LINE",
"588 849 OFFCURVE",
"542 840 OFFCURVE",
"503 840 CURVE SMOOTH",
"464 840 OFFCURVE",
"421 849 OFFCURVE",
"429 921 CURVE",
"338 921 LINE",
"336 828 OFFCURVE",
"393 784 OFFCURVE",
"492 784 CURVE SMOOTH"
);
}
);
width = 649;
}
);
note = Ebreve;
unicode = 0114;
},
{
glyphname = Ecaron;
lastChange = "2015-10-27 15:00:59 +0000";
layers = (
{
layerId = "8296656B-A453-444F-9AE7-A28FFBBB6660";
name = "Bold Italic";
paths = (
{
closed = 1;
nodes = (
"556 0 LINE",
"612 185 LINE",
"576 185 LINE",
"554 164 OFFCURVE",
"507 92 OFFCURVE",
"496 54 CURVE",
"252 54 LINE",
"373 645 LINE",
"611 645 LINE",
"606 613 OFFCURVE",
"614 536 OFFCURVE",
"625 513 CURVE",
"661 513 LINE",
"699 700 LINE",
"130 700 LINE",
"126 680 LINE",
"153 669 OFFCURVE",
"182 661 OFFCURVE",
"204 657 CURVE",
"79 42 LINE",
"56 38 OFFCURVE",
"21 30 OFFCURVE",
"-9 20 CURVE",
"-12 0 LINE"
);
},
{
closed = 1;
nodes = (
"493 241 LINE",
"540 470 LINE",
"513 470 LINE",
"495 440 OFFCURVE",
"481 401 OFFCURVE",
"474 383 CURVE",
"245 383 LINE",
"233 328 LINE",
"463 328 LINE",
"462 311 OFFCURVE",
"462 272 OFFCURVE",
"467 241 CURVE"
);
},
{
closed = 1;
nodes = (
"528 786 LINE",
"556 820 OFFCURVE",
"664 906 OFFCURVE",
"714 935 CURVE",
"657 985 LINE",
"609 952 OFFCURVE",
"533 887 OFFCURVE",
"503 850 CURVE",
"499 850 LINE",
"486 887 OFFCURVE",
"436 952 OFFCURVE",
"401 985 CURVE",
"324 935 LINE",
"362 906 OFFCURVE",
"435 820 OFFCURVE",
"449 786 CURVE"
);
}
);
width = 649;
}
);
note = Ecaron;
unicode = 011A;
},
{
glyphname = Ecircumflex;
lastChange = "2015-10-27 15:00:58 +0000";
layers = (
{
layerId = "8296656B-A453-444F-9AE7-A28FFBBB6660";
name = "Bold Italic";
paths = (
{
closed = 1;
nodes = (
"556 0 LINE",
"612 185 LINE",
"576 185 LINE",
"554 164 OFFCURVE",
"507 92 OFFCURVE",
"496 54 CURVE",
"252 54 LINE",
"373 645 LINE",
"611 645 LINE",
"606 613 OFFCURVE",
"614 536 OFFCURVE",
"625 513 CURVE",
"661 513 LINE",
"699 700 LINE",
"130 700 LINE",
"126 680 LINE",
"153 669 OFFCURVE",
"182 661 OFFCURVE",
"204 657 CURVE",
"79 42 LINE",
"56 38 OFFCURVE",
"21 30 OFFCURVE",
"-9 20 CURVE",
"-12 0 LINE"
);
},
{
closed = 1;
nodes = (
"493 241 LINE",
"540 470 LINE",
"513 470 LINE",
"495 440 OFFCURVE",
"481 401 OFFCURVE",
"474 383 CURVE",
"245 383 LINE",
"233 328 LINE",
"463 328 LINE",
"462 311 OFFCURVE",
"462 272 OFFCURVE",
"467 241 CURVE"
);
},
{
closed = 1;
nodes = (
"402 818 OFFCURVE",
"479 883 OFFCURVE",
"508 920 CURVE",
"512 920 LINE",
"526 883 OFFCURVE",
"575 818 OFFCURVE",
"610 784 CURVE",
"688 835 LINE",
"650 863 OFFCURVE",
"576 950 OFFCURVE",
"563 984 CURVE",
"484 984 LINE",
"455 950 OFFCURVE",
"348 863 OFFCURVE",
"298 835 CURVE",
"355 784 LINE"
);
}
);
width = 649;
}
);
note = Ecircumflex;
unicode = 00CA;
},
{
glyphname = Ecircumflexacute;
lastChange = "2015-10-27 15:00:58 +0000";
layers = (
{
layerId = "8296656B-A453-444F-9AE7-A28FFBBB6660";
name = "Bold Italic";
paths = (
{
closed = 1;
nodes = (
"556 0 LINE",
"612 185 LINE",
"576 185 LINE",
"554 164 OFFCURVE",
"507 92 OFFCURVE",
"496 54 CURVE",
"252 54 LINE",
"373 645 LINE",
"611 645 LINE",
"606 613 OFFCURVE",
"614 536 OFFCURVE",
"625 513 CURVE",
"661 513 LINE",
"699 700 LINE",
"130 700 LINE",
"126 680 LINE",
"153 669 OFFCURVE",
"182 661 OFFCURVE",
"204 657 CURVE",
"79 42 LINE",
"56 38 OFFCURVE",
"21 30 OFFCURVE",
"-9 20 CURVE",
"-12 0 LINE"
);
},
{
closed = 1;
nodes = (
"493 241 LINE",
"540 470 LINE",
"513 470 LINE",
"495 440 OFFCURVE",
"481 401 OFFCURVE",
"474 383 CURVE",
"245 383 LINE",
"233 328 LINE",
"463 328 LINE",
"462 311 OFFCURVE",
"462 272 OFFCURVE",
"467 241 CURVE"
);
},
{
closed = 1;
nodes = (
"379 818 OFFCURVE",
"456 883 OFFCURVE",
"486 920 CURVE",
"486 920 OFFCURVE",
"489 920 OFFCURVE",
"489 920 CURVE",
"503 883 OFFCURVE",
"553 818 OFFCURVE",
"587 784 CURVE",
"664 835 LINE",
"627 863 OFFCURVE",
"554 950 OFFCURVE",
"540 984 CURVE",
"462 984 LINE",
"432 950 OFFCURVE",
"324 863 OFFCURVE",
"275 835 CURVE",
"332 784 LINE"
);
},
{
closed = 1;
nodes = (
"752 985 LINE SMOOTH",
"795 1005 OFFCURVE",
"822 1022 OFFCURVE",
"827 1048 CURVE",
"833 1078 OFFCURVE",
"813 1097 OFFCURVE",
"783 1097 CURVE SMOOTH",
"754 1097 OFFCURVE",
"727 1077 OFFCURVE",
"707 1057 CURVE SMOOTH",
"613 964 LINE",
"633 929 LINE"
);
}
);
width = 649;
}
);
note = Ecircumflexacute;
unicode = 1EBE;
},
{
glyphname = Ecircumflexdotbelow;
lastChange = "2015-10-27 15:00:59 +0000";
layers = (
{
layerId = "8296656B-A453-444F-9AE7-A28FFBBB6660";
name = "Bold Italic";
paths = (
{
closed = 1;
nodes = (
"556 0 LINE",
"612 185 LINE",
"576 185 LINE",
"554 164 OFFCURVE",
"507 92 OFFCURVE",
"496 54 CURVE",
"252 54 LINE",
"373 645 LINE",
"611 645 LINE",
"606 613 OFFCURVE",
"614 536 OFFCURVE",
"625 513 CURVE",
"661 513 LINE",
"699 700 LINE",
"130 700 LINE",
"126 680 LINE",
"153 669 OFFCURVE",
"182 661 OFFCURVE",
"204 657 CURVE",
"79 42 LINE",
"56 38 OFFCURVE",
"21 30 OFFCURVE",
"-9 20 CURVE",
"-12 0 LINE"
);
},
{
closed = 1;
nodes = (
"305 -187 OFFCURVE",
"336 -157 OFFCURVE",
"344 -120 CURVE SMOOTH",
"351 -82 OFFCURVE",
"332 -52 OFFCURVE",
"292 -52 CURVE SMOOTH",
"252 -52 OFFCURVE",
"223 -82 OFFCURVE",
"215 -120 CURVE SMOOTH",
"207 -157 OFFCURVE",
"226 -187 OFFCURVE",
"265 -187 CURVE SMOOTH"
);
},
{
closed = 1;
nodes = (
"493 241 LINE",
"540 470 LINE",
"513 470 LINE",
"495 440 OFFCURVE",
"481 401 OFFCURVE",
"474 383 CURVE",
"245 383 LINE",
"233 328 LINE",
"463 328 LINE",
"462 311 OFFCURVE",
"462 272 OFFCURVE",
"467 241 CURVE"
);
},
{
closed = 1;
nodes = (
"379 818 OFFCURVE",
"456 883 OFFCURVE",
"485 920 CURVE",
"489 920 LINE",
"503 883 OFFCURVE",
"552 818 OFFCURVE",
"587 784 CURVE",
"665 835 LINE",
"627 863 OFFCURVE",
"553 950 OFFCURVE",
"540 984 CURVE",
"461 984 LINE",
"432 950 OFFCURVE",
"324 863 OFFCURVE",
"275 835 CURVE",
"332 784 LINE"
);
}
);
width = 649;
}
);
note = Ecircumflexdotbelow;
unicode = 1EC6;
},
{
glyphname = Ecircumflexgrave;
lastChange = "2015-10-27 15:00:58 +0000";
layers = (
{
layerId = "8296656B-A453-444F-9AE7-A28FFBBB6660";
name = "Bold Italic";
paths = (
{
closed = 1;
nodes = (
"556 0 LINE",
"612 185 LINE",
"576 185 LINE",
"554 164 OFFCURVE",
"507 92 OFFCURVE",
"496 54 CURVE",
"252 54 LINE",
"373 645 LINE",
"611 645 LINE",
"606 613 OFFCURVE",
"614 536 OFFCURVE",
"625 513 CURVE",
"661 513 LINE",
"699 700 LINE",
"130 700 LINE",
"126 680 LINE",
"153 669 OFFCURVE",
"182 661 OFFCURVE",
"204 657 CURVE",
"79 42 LINE",
"56 38 OFFCURVE",
"21 30 OFFCURVE",
"-9 20 CURVE",
"-12 0 LINE"
);
},
{
closed = 1;
nodes = (
"493 241 LINE",
"540 470 LINE",
"513 470 LINE",
"495 440 OFFCURVE",
"481 401 OFFCURVE",
"474 383 CURVE",
"245 383 LINE",
"233 328 LINE",
"463 328 LINE",
"462 311 OFFCURVE",
"462 272 OFFCURVE",
"467 241 CURVE"
);
},
{
closed = 1;
nodes = (
"374 964 LINE",
"320 1057 LINE SMOOTH",
"307 1077 OFFCURVE",
"290 1097 OFFCURVE",
"260 1097 CURVE SMOOTH",
"230 1097 OFFCURVE",
"203 1078 OFFCURVE",
"196 1048 CURVE",
"191 1022 OFFCURVE",
"210 1005 OFFCURVE",
"246 985 CURVE SMOOTH",
"342 929 LINE"
);
},
{
closed = 1;
nodes = (
"379 818 OFFCURVE",
"456 883 OFFCURVE",
"486 920 CURVE",
"486 920 OFFCURVE",
"489 920 OFFCURVE",
"489 920 CURVE",
"503 883 OFFCURVE",
"553 818 OFFCURVE",
"587 784 CURVE",
"664 835 LINE",
"627 863 OFFCURVE",
"554 950 OFFCURVE",
"540 984 CURVE",
"462 984 LINE",
"432 950 OFFCURVE",
"324 863 OFFCURVE",
"275 835 CURVE",
"332 784 LINE"
);
}
);
width = 649;
}
);
note = Ecircumflexgrave;
unicode = 1EC0;
},
{
glyphname = Ecircumflexhookabove;
lastChange = "2015-10-27 15:00:59 +0000";
layers = (
{
layerId = "8296656B-A453-444F-9AE7-A28FFBBB6660";
name = "Bold Italic";
paths = (
{
closed = 1;
nodes = (
"556 0 LINE",
"612 185 LINE",
"576 185 LINE",
"554 164 OFFCURVE",
"507 92 OFFCURVE",
"496 54 CURVE",
"252 54 LINE",
"373 645 LINE",
"611 645 LINE",
"606 613 OFFCURVE",
"614 536 OFFCURVE",
"625 513 CURVE",
"661 513 LINE",
"699 700 LINE",
"130 700 LINE",
"126 680 LINE",
"153 669 OFFCURVE",
"182 661 OFFCURVE",
"204 657 CURVE",
"79 42 LINE",
"56 38 OFFCURVE",
"21 30 OFFCURVE",
"-9 20 CURVE",
"-12 0 LINE"
);
},
{
closed = 1;
nodes = (
"493 241 LINE",
"540 470 LINE",
"513 470 LINE",
"495 440 OFFCURVE",
"481 401 OFFCURVE",
"474 383 CURVE",
"245 383 LINE",
"233 328 LINE",
"463 328 LINE",
"462 311 OFFCURVE",
"462 272 OFFCURVE",
"467 241 CURVE"
);
},
{
closed = 1;
nodes = (
"379 818 OFFCURVE",
"456 883 OFFCURVE",
"486 920 CURVE",
"486 920 OFFCURVE",
"489 920 OFFCURVE",
"489 920 CURVE",
"503 883 OFFCURVE",
"553 818 OFFCURVE",
"587 784 CURVE",
"664 835 LINE",
"627 863 OFFCURVE",
"554 950 OFFCURVE",
"540 984 CURVE",
"462 984 LINE",
"432 950 OFFCURVE",
"324 863 OFFCURVE",
"275 835 CURVE",
"332 784 LINE"
);
},
{
closed = 1;
nodes = (
"673 948 LINE",
"690 992 LINE",
"736 997 OFFCURVE",
"778 1014 OFFCURVE",
"789 1072 CURVE SMOOTH",
"803 1135 OFFCURVE",
"753 1158 OFFCURVE",
"699 1158 CURVE SMOOTH",
"671 1158 OFFCURVE",
"641 1151 OFFCURVE",
"621 1142 CURVE",
"619 1103 LINE",
"637 1112 OFFCURVE",
"660 1116 OFFCURVE",
"675 1116 CURVE SMOOTH",
"710 1116 OFFCURVE",
"724 1096 OFFCURVE",
"719 1073 CURVE SMOOTH",
"711 1037 OFFCURVE",
"683 1027 OFFCURVE",
"661 1027 CURVE SMOOTH",
"626 1027 LINE",
"613 948 LINE"
);
}
);
width = 649;
}
);
note = Ecircumflexhookabove;
unicode = 1EC2;
},
{
glyphname = Ecircumflextilde;
lastChange = "2015-10-27 15:00:59 +0000";
layers = (
{
layerId = "8296656B-A453-444F-9AE7-A28FFBBB6660";
name = "Bold Italic";
paths = (
{
closed = 1;
nodes = (
"556 0 LINE",
"612 185 LINE",
"576 185 LINE",
"554 164 OFFCURVE",
"507 92 OFFCURVE",
"496 54 CURVE",
"252 54 LINE",
"373 645 LINE",
"611 645 LINE",
"606 613 OFFCURVE",
"614 536 OFFCURVE",
"625 513 CURVE",
"661 513 LINE",
"699 700 LINE",
"130 700 LINE",
"126 680 LINE",
"153 669 OFFCURVE",
"182 661 OFFCURVE",
"204 657 CURVE",
"79 42 LINE",
"56 38 OFFCURVE",
"21 30 OFFCURVE",
"-9 20 CURVE",
"-12 0 LINE"
);
},
{
closed = 1;
nodes = (
"493 241 LINE",
"540 470 LINE",
"513 470 LINE",
"495 440 OFFCURVE",
"481 401 OFFCURVE",
"474 383 CURVE",
"245 383 LINE",
"233 328 LINE",
"463 328 LINE",
"462 311 OFFCURVE",
"462 272 OFFCURVE",
"467 241 CURVE"
);
},
{
closed = 1;
nodes = (
"379 818 OFFCURVE",
"456 883 OFFCURVE",
"486 920 CURVE",
"486 920 OFFCURVE",
"489 920 OFFCURVE",
"489 920 CURVE",
"503 883 OFFCURVE",
"553 818 OFFCURVE",
"587 784 CURVE",
"664 835 LINE",
"627 863 OFFCURVE",
"554 950 OFFCURVE",
"540 984 CURVE",
"462 984 LINE",
"432 950 OFFCURVE",
"324 863 OFFCURVE",
"275 835 CURVE",
"332 784 LINE"
);
},
{
closed = 1;
nodes = (
"386 1022 LINE",
"397 1052 OFFCURVE",
"424 1072 OFFCURVE",
"456 1072 CURVE SMOOTH",
"502 1072 OFFCURVE",
"529 1022 OFFCURVE",
"587 1022 CURVE SMOOTH",
"662 1022 OFFCURVE",
"708 1070 OFFCURVE",
"730 1142 CURVE",
"675 1142 LINE",
"656 1096 OFFCURVE",
"618 1090 OFFCURVE",
"598 1090 CURVE SMOOTH",
"560 1090 OFFCURVE",
"546 1140 OFFCURVE",
"475 1140 CURVE SMOOTH",
"407 1140 OFFCURVE",
"356 1099 OFFCURVE",
"330 1022 CURVE"
);
}
);
width = 649;
}
);
note = Ecircumflextilde;
unicode = 1EC4;
},
{
glyphname = Edieresis;
lastChange = "2015-10-27 15:00:58 +0000";
layers = (
{
layerId = "8296656B-A453-444F-9AE7-A28FFBBB6660";
name = "Bold Italic";
paths = (
{
closed = 1;
nodes = (
"556 0 LINE",
"612 185 LINE",
"576 185 LINE",
"554 164 OFFCURVE",
"507 92 OFFCURVE",
"496 54 CURVE",
"252 54 LINE",
"373 645 LINE",
"611 645 LINE",
"606 613 OFFCURVE",
"614 536 OFFCURVE",
"625 513 CURVE",
"661 513 LINE",
"699 700 LINE",
"130 700 LINE",
"126 680 LINE",
"153 669 OFFCURVE",
"182 661 OFFCURVE",
"204 657 CURVE",
"79 42 LINE",
"56 38 OFFCURVE",
"21 30 OFFCURVE",
"-9 20 CURVE",
"-12 0 LINE"
);
},
{
closed = 1;
nodes = (
"493 241 LINE",
"540 470 LINE",
"513 470 LINE",
"495 440 OFFCURVE",
"481 401 OFFCURVE",
"474 383 CURVE",
"245 383 LINE",
"233 328 LINE",
"463 328 LINE",
"462 311 OFFCURVE",
"462 272 OFFCURVE",
"467 241 CURVE"
);
},
{
closed = 1;
nodes = (
"416 785 OFFCURVE",
"447 815 OFFCURVE",
"455 852 CURVE SMOOTH",
"463 890 OFFCURVE",
"444 920 OFFCURVE",
"404 920 CURVE SMOOTH",
"366 920 OFFCURVE",
"335 890 OFFCURVE",
"327 852 CURVE SMOOTH",
"320 815 OFFCURVE",
"338 785 OFFCURVE",
"377 785 CURVE SMOOTH"
);
},
{
closed = 1;
nodes = (
"653 785 OFFCURVE",
"684 815 OFFCURVE",
"692 852 CURVE SMOOTH",
"700 890 OFFCURVE",
"681 920 OFFCURVE",
"640 920 CURVE SMOOTH",
"601 920 OFFCURVE",
"571 890 OFFCURVE",
"564 852 CURVE SMOOTH",
"556 815 OFFCURVE",
"573 785 OFFCURVE",
"612 785 CURVE SMOOTH"
);
}
);
width = 649;
}
);
note = Edieresis;
unicode = 00CB;
},
{
glyphname = Edotaccent;
lastChange = "2015-10-27 15:00:59 +0000";
layers = (
{
layerId = "8296656B-A453-444F-9AE7-A28FFBBB6660";
name = "Bold Italic";
paths = (
{
closed = 1;
nodes = (
"556 0 LINE",
"612 185 LINE",
"576 185 LINE",
"554 164 OFFCURVE",
"507 92 OFFCURVE",
"496 54 CURVE",
"252 54 LINE",
"373 645 LINE",
"611 645 LINE",
"606 613 OFFCURVE",
"614 536 OFFCURVE",
"625 513 CURVE",
"661 513 LINE",
"699 700 LINE",
"130 700 LINE",
"126 680 LINE",
"153 669 OFFCURVE",
"182 661 OFFCURVE",
"204 657 CURVE",
"79 42 LINE",
"56 38 OFFCURVE",
"21 30 OFFCURVE",
"-9 20 CURVE",
"-12 0 LINE"
);
},
{
closed = 1;
nodes = (
"493 241 LINE",
"540 470 LINE",
"513 470 LINE",
"495 440 OFFCURVE",
"481 401 OFFCURVE",
"474 383 CURVE",
"245 383 LINE",
"233 328 LINE",
"463 328 LINE",
"462 311 OFFCURVE",
"462 272 OFFCURVE",
"467 241 CURVE"
);
},
{
closed = 1;
nodes = (
"535 785 OFFCURVE",
"566 815 OFFCURVE",
"574 852 CURVE SMOOTH",
"582 890 OFFCURVE",
"563 920 OFFCURVE",
"523 920 CURVE SMOOTH",
"483 920 OFFCURVE",
"453 890 OFFCURVE",
"445 852 CURVE SMOOTH",
"438 815 OFFCURVE",
"455 785 OFFCURVE",
"495 785 CURVE SMOOTH"
);
}
);
width = 649;
}
);
note = Edotaccent;
unicode = 0116;
},
{
glyphname = Edotbelow;
lastChange = "2015-10-27 15:00:58 +0000";
layers = (
{
layerId = "8296656B-A453-444F-9AE7-A28FFBBB6660";
name = "Bold Italic";
paths = (
{
closed = 1;
nodes = (
"556 0 LINE",
"612 185 LINE",
"576 185 LINE",
"554 164 OFFCURVE",
"507 92 OFFCURVE",
"496 54 CURVE",
"252 54 LINE",
"373 645 LINE",
"611 645 LINE",
"606 613 OFFCURVE",
"614 536 OFFCURVE",
"625 513 CURVE",
"661 513 LINE",
"699 700 LINE",
"130 700 LINE",
"126 680 LINE",
"153 669 OFFCURVE",
"182 661 OFFCURVE",
"204 657 CURVE",
"79 42 LINE",
"56 38 OFFCURVE",
"21 30 OFFCURVE",
"-9 20 CURVE",
"-12 0 LINE"
);
},
{
closed = 1;
nodes = (
"289 -187 OFFCURVE",
"320 -157 OFFCURVE",
"327 -120 CURVE SMOOTH",
"335 -82 OFFCURVE",
"316 -52 OFFCURVE",
"276 -52 CURVE SMOOTH",
"236 -52 OFFCURVE",
"206 -82 OFFCURVE",
"199 -120 CURVE SMOOTH",
"191 -157 OFFCURVE",
"209 -187 OFFCURVE",
"249 -187 CURVE SMOOTH"
);
},
{
closed = 1;
nodes = (
"493 241 LINE",
"540 470 LINE",
"513 470 LINE",
"495 440 OFFCURVE",
"481 401 OFFCURVE",
"474 383 CURVE",
"245 383 LINE",
"233 328 LINE",
"463 328 LINE",
"462 311 OFFCURVE",
"462 272 OFFCURVE",
"467 241 CURVE"
);
}
);
width = 649;
}
);
note = Edotbelow;
unicode = 1EB8;
},
{
glyphname = Egrave;
lastChange = "2015-10-27 15:00:59 +0000";
layers = (
{
layerId = "8296656B-A453-444F-9AE7-A28FFBBB6660";
name = "Bold Italic";
paths = (
{
closed = 1;
nodes = (
"556 0 LINE",
"612 185 LINE",
"576 185 LINE",
"554 164 OFFCURVE",
"507 92 OFFCURVE",
"496 54 CURVE",
"252 54 LINE",
"373 645 LINE",
"611 645 LINE",
"606 613 OFFCURVE",
"614 536 OFFCURVE",
"625 513 CURVE",
"661 513 LINE",
"699 700 LINE",
"130 700 LINE",
"126 680 LINE",
"153 669 OFFCURVE",
"182 661 OFFCURVE",
"204 657 CURVE",
"79 42 LINE",
"56 38 OFFCURVE",
"21 30 OFFCURVE",
"-9 20 CURVE",
"-12 0 LINE"
);
},
{
closed = 1;
nodes = (
"493 241 LINE",
"540 470 LINE",
"513 470 LINE",
"495 440 OFFCURVE",
"481 401 OFFCURVE",
"474 383 CURVE",
"245 383 LINE",
"233 328 LINE",
"463 328 LINE",
"462 311 OFFCURVE",
"462 272 OFFCURVE",
"467 241 CURVE"
);
},
{
closed = 1;
nodes = (
"612 825 LINE",
"518 958 LINE",
"515 965 OFFCURVE",
"494 996 OFFCURVE",
"459 996 CURVE SMOOTH",
"421 996 OFFCURVE",
"401 970 OFFCURVE",
"396 950 CURVE",
"392 923 OFFCURVE",
"407 903 OFFCURVE",
"437 882 CURVE SMOOTH",
"577 786 LINE"
);
}
);
width = 649;
}
);
note = Egrave;
unicode = 00C8;
},
{
glyphname = Ehookabove;
lastChange = "2015-10-27 15:00:59 +0000";
layers = (
{
layerId = "8296656B-A453-444F-9AE7-A28FFBBB6660";
name = "Bold Italic";
paths = (
{
closed = 1;
nodes = (
"556 0 LINE",
"612 185 LINE",
"576 185 LINE",
"554 164 OFFCURVE",
"507 92 OFFCURVE",
"496 54 CURVE",
"252 54 LINE",
"373 645 LINE",
"611 645 LINE",
"606 613 OFFCURVE",
"614 536 OFFCURVE",
"625 513 CURVE",
"661 513 LINE",
"699 700 LINE",
"130 700 LINE",
"126 680 LINE",
"153 669 OFFCURVE",
"182 661 OFFCURVE",
"204 657 CURVE",
"79 42 LINE",
"56 38 OFFCURVE",
"21 30 OFFCURVE",
"-9 20 CURVE",
"-12 0 LINE"
);
},
{
closed = 1;
nodes = (
"493 241 LINE",
"540 470 LINE",
"513 470 LINE",
"495 440 OFFCURVE",
"481 401 OFFCURVE",
"474 383 CURVE",
"245 383 LINE",
"233 328 LINE",
"463 328 LINE",
"462 311 OFFCURVE",
"462 272 OFFCURVE",
"467 241 CURVE"
);
},
{
closed = 1;
nodes = (
"511 784 LINE",
"536 855 LINE",
"588 860 OFFCURVE",
"635 880 OFFCURVE",
"647 944 CURVE SMOOTH",
"661 1014 OFFCURVE",
"605 1040 OFFCURVE",
"544 1040 CURVE SMOOTH",
"512 1040 OFFCURVE",
"478 1032 OFFCURVE",
"455 1021 CURVE",
"453 979 LINE",
"475 991 OFFCURVE",
"499 995 OFFCURVE",
"516 995 CURVE SMOOTH",
"557 995 OFFCURVE",
"572 971 OFFCURVE",
"567 945 CURVE SMOOTH",
"559 905 OFFCURVE",
"526 893 OFFCURVE",
"502 893 CURVE SMOOTH",
"462 893 LINE",
"444 784 LINE"
);
}
);
width = 649;
}
);
note = Ehookabove;
unicode = 1EBA;
},
{
glyphname = Emacron;
lastChange = "2015-10-27 15:00:59 +0000";
layers = (
{
layerId = "8296656B-A453-444F-9AE7-A28FFBBB6660";
name = "Bold Italic";
paths = (
{
closed = 1;
nodes = (
"556 0 LINE",
"612 185 LINE",
"576 185 LINE",
"554 164 OFFCURVE",
"507 92 OFFCURVE",
"496 54 CURVE",
"252 54 LINE",
"373 645 LINE",
"611 645 LINE",
"606 613 OFFCURVE",
"614 536 OFFCURVE",
"625 513 CURVE",
"661 513 LINE",
"699 700 LINE",
"130 700 LINE",
"126 680 LINE",
"153 669 OFFCURVE",
"182 661 OFFCURVE",
"204 657 CURVE",
"79 42 LINE",
"56 38 OFFCURVE",
"21 30 OFFCURVE",
"-9 20 CURVE",
"-12 0 LINE"
);
},
{
closed = 1;
nodes = (
"493 241 LINE",
"540 470 LINE",
"513 470 LINE",
"495 440 OFFCURVE",
"481 401 OFFCURVE",
"474 383 CURVE",
"245 383 LINE",
"233 328 LINE",
"463 328 LINE",
"462 311 OFFCURVE",
"462 272 OFFCURVE",
"467 241 CURVE"
);
},
{
closed = 1;
nodes = (
"681 785 LINE",
"691 837 LINE",
"300 837 LINE",
"289 785 LINE"
);
}
);
width = 649;
}
);
note = Emacron;
unicode = 0112;
},
{
glyphname = Eogonek;
lastChange = "2015-10-27 15:00:59 +0000";
layers = (
{
layerId = "8296656B-A453-444F-9AE7-A28FFBBB6660";
name = "Bold Italic";
paths = (
{
closed = 1;
nodes = (
"556 0 LINE",
"612 185 LINE",
"576 185 LINE",
"554 164 OFFCURVE",
"507 92 OFFCURVE",
"496 54 CURVE",
"252 54 LINE",
"373 645 LINE",
"611 645 LINE",
"606 613 OFFCURVE",
"614 536 OFFCURVE",
"625 513 CURVE",
"661 513 LINE",
"699 700 LINE",
"130 700 LINE",
"126 680 LINE",
"153 669 OFFCURVE",
"182 661 OFFCURVE",
"204 657 CURVE",
"79 42 LINE",
"56 38 OFFCURVE",
"21 30 OFFCURVE",
"-9 20 CURVE",
"-12 0 LINE"
);
},
{
closed = 1;
nodes = (
"489 -212 OFFCURVE",
"537 -201 OFFCURVE",
"566 -183 CURVE",
"580 -113 LINE",
"551 -130 OFFCURVE",
"526 -136 OFFCURVE",
"508 -136 CURVE SMOOTH",
"472 -136 OFFCURVE",
"453 -114 OFFCURVE",
"460 -84 CURVE",
"466 -53 OFFCURVE",
"497 -18 OFFCURVE",
"522 0 CURVE",
"444 0 LINE",
"381 -18 OFFCURVE",
"336 -74 OFFCURVE",
"326 -119 CURVE SMOOTH",
"315 -177 OFFCURVE",
"358 -212 OFFCURVE",
"444 -212 CURVE SMOOTH"
);
},
{
closed = 1;
nodes = (
"493 241 LINE",
"540 470 LINE",
"513 470 LINE",
"495 440 OFFCURVE",
"481 401 OFFCURVE",
"474 383 CURVE",
"245 383 LINE",
"233 328 LINE",
"463 328 LINE",
"462 311 OFFCURVE",
"462 272 OFFCURVE",
"467 241 CURVE"
);
}
);
width = 649;
}
);
note = Eogonek;
unicode = 0118;
},
{
glyphname = Etilde;
lastChange = "2015-10-27 15:00:59 +0000";
layers = (
{
layerId = "8296656B-A453-444F-9AE7-A28FFBBB6660";
name = "Bold Italic";
paths = (
{
closed = 1;
nodes = (
"556 0 LINE",
"612 185 LINE",
"576 185 LINE",
"554 164 OFFCURVE",
"507 92 OFFCURVE",
"496 54 CURVE",
"252 54 LINE",
"373 645 LINE",
"611 645 LINE",
"606 613 OFFCURVE",
"614 536 OFFCURVE",
"625 513 CURVE",
"661 513 LINE",
"699 700 LINE",
"130 700 LINE",
"126 680 LINE",
"153 669 OFFCURVE",
"182 661 OFFCURVE",
"204 657 CURVE",
"79 42 LINE",
"56 38 OFFCURVE",
"21 30 OFFCURVE",
"-9 20 CURVE",
"-12 0 LINE"
);
},
{
closed = 1;
nodes = (
"493 241 LINE",
"540 470 LINE",
"513 470 LINE",
"495 440 OFFCURVE",
"481 401 OFFCURVE",
"474 383 CURVE",
"245 383 LINE",
"233 328 LINE",
"463 328 LINE",
"462 311 OFFCURVE",
"462 272 OFFCURVE",
"467 241 CURVE"
);
},
{
closed = 1;
nodes = (
"343 785 LINE",
"354 816 OFFCURVE",
"376 836 OFFCURVE",
"404 836 CURVE SMOOTH",
"438 836 OFFCURVE",
"491 785 OFFCURVE",
"549 785 CURVE SMOOTH",
"630 785 OFFCURVE",
"675 835 OFFCURVE",
"697 909 CURVE",
"622 909 LINE",
"602 862 OFFCURVE",
"579 856 OFFCURVE",
"556 856 CURVE SMOOTH",
"516 856 OFFCURVE",
"490 907 OFFCURVE",
"416 907 CURVE SMOOTH",
"346 907 OFFCURVE",
"294 865 OFFCURVE",
"266 785 CURVE"
);
}
);
width = 649;
}
);
note = Etilde;
unicode = 1EBC;
},
{
glyphname = F;
lastChange = "2015-10-27 15:00:59 +0000";
layers = (
{
layerId = "8296656B-A453-444F-9AE7-A28FFBBB6660";
name = "Bold Italic";
paths = (
{
closed = 1;
nodes = (
"326 0 LINE",
"330 19 LINE",
"303 30 OFFCURVE",
"273 38 OFFCURVE",
"250 42 CURVE",
"373 645 LINE",
"594 645 LINE",
"589 613 OFFCURVE",
"598 536 OFFCURVE",
"609 513 CURVE",
"645 513 LINE",
"683 700 LINE",
"130 700 LINE",
"126 680 LINE",
"153 669 OFFCURVE",
"182 661 OFFCURVE",
"204 657 CURVE",
"79 42 LINE",
"54 38 OFFCURVE",
"21 30 OFFCURVE",
"-9 20 CURVE",
"-12 0 LINE"
);
},
{
closed = 1;
nodes = (
"487 209 LINE",
"534 438 LINE",
"507 438 LINE",
"489 409 OFFCURVE",
"474 369 OFFCURVE",
"468 351 CURVE",
"164 351 LINE",
"154 297 LINE",
"457 297 LINE",
"455 280 OFFCURVE",
"456 241 OFFCURVE",
"460 209 CURVE"
);
}
);
width = 602;
}
);
note = F;
unicode = 0046;
},
{
glyphname = G;
lastChange = "2015-10-27 15:00:59 +0000";
layers = (
{
layerId = "8296656B-A453-444F-9AE7-A28FFBBB6660";
name = "Bold Italic";
paths = (
{
closed = 1;
nodes = (
"435 -10 OFFCURVE",
"547 10 OFFCURVE",
"605 48 CURVE",
"656 297 LINE",
"671 301 OFFCURVE",
"709 315 OFFCURVE",
"728 326 CURVE",
"731 342 LINE",
"423 342 LINE",
"420 320 LINE",
"442 312 OFFCURVE",
"468 306 OFFCURVE",
"490 300 CURVE",
"440 55 LINE",
"420 49 OFFCURVE",
"391 47 OFFCURVE",
"374 47 CURVE SMOOTH",
"252 47 OFFCURVE",
"201 159 OFFCURVE",
"240 350 CURVE SMOOTH",
"278 539 OFFCURVE",
"392 653 OFFCURVE",
"521 653 CURVE SMOOTH",
"564 653 OFFCURVE",
"620 643 OFFCURVE",
"652 614 CURVE",
"646 565 OFFCURVE",
"645 515 OFFCURVE",
"648 474 CURVE",
"688 474 LINE",
"734 628 LINE",
"693 679 OFFCURVE",
"609 710 OFFCURVE",
"490 710 CURVE SMOOTH",
"267 710 OFFCURVE",
"110 572 OFFCURVE",
"65 350 CURVE SMOOTH",
"19 127 OFFCURVE",
"111 -10 OFFCURVE",
"341 -10 CURVE SMOOTH"
);
}
);
width = 709;
}
);
leftKerningGroup = G;
note = G;
unicode = 0047;
},
{
glyphname = Gbreve;
lastChange = "2015-10-27 15:00:59 +0000";
layers = (
{
layerId = "8296656B-A453-444F-9AE7-A28FFBBB6660";
name = "Bold Italic";
paths = (
{
closed = 1;
nodes = (
"435 -10 OFFCURVE",
"547 10 OFFCURVE",
"605 48 CURVE",
"656 297 LINE",
"671 301 OFFCURVE",
"709 315 OFFCURVE",
"728 326 CURVE",
"731 342 LINE",
"423 342 LINE",
"420 320 LINE",
"442 312 OFFCURVE",
"468 306 OFFCURVE",
"490 300 CURVE",
"440 55 LINE",
"420 49 OFFCURVE",
"391 47 OFFCURVE",
"374 47 CURVE SMOOTH",
"252 47 OFFCURVE",
"201 159 OFFCURVE",
"240 350 CURVE SMOOTH",
"278 539 OFFCURVE",
"392 653 OFFCURVE",
"521 653 CURVE SMOOTH",
"564 653 OFFCURVE",
"620 643 OFFCURVE",
"652 614 CURVE",
"646 565 OFFCURVE",
"645 515 OFFCURVE",
"648 474 CURVE",
"688 474 LINE",
"734 628 LINE",
"693 679 OFFCURVE",
"609 710 OFFCURVE",
"490 710 CURVE SMOOTH",
"267 710 OFFCURVE",
"110 572 OFFCURVE",
"65 350 CURVE SMOOTH",
"19 127 OFFCURVE",
"111 -10 OFFCURVE",
"341 -10 CURVE SMOOTH"
);
},
{
closed = 1;
nodes = (
"606 784 OFFCURVE",
"684 828 OFFCURVE",
"717 921 CURVE",
"625 921 LINE",
"604 849 OFFCURVE",
"559 840 OFFCURVE",
"519 840 CURVE SMOOTH",
"480 840 OFFCURVE",
"438 849 OFFCURVE",
"445 921 CURVE",
"354 921 LINE",
"352 828 OFFCURVE",
"409 784 OFFCURVE",
"508 784 CURVE SMOOTH"
);
}
);
width = 709;
}
);
leftKerningGroup = G;
note = Gbreve;
unicode = 011E;
},
{
glyphname = Gcaron;
lastChange = "2015-10-27 15:00:58 +0000";
layers = (
{
layerId = "8296656B-A453-444F-9AE7-A28FFBBB6660";
name = "Bold Italic";
paths = (
{
closed = 1;
nodes = (
"435 -10 OFFCURVE",
"547 10 OFFCURVE",
"605 48 CURVE",
"656 297 LINE",
"671 301 OFFCURVE",
"709 315 OFFCURVE",
"728 326 CURVE",
"731 342 LINE",
"423 342 LINE",
"420 320 LINE",
"442 312 OFFCURVE",
"468 306 OFFCURVE",
"490 300 CURVE",
"440 55 LINE",
"420 49 OFFCURVE",
"391 47 OFFCURVE",
"374 47 CURVE SMOOTH",
"252 47 OFFCURVE",
"201 159 OFFCURVE",
"240 350 CURVE SMOOTH",
"278 539 OFFCURVE",
"392 653 OFFCURVE",
"521 653 CURVE SMOOTH",
"564 653 OFFCURVE",
"620 643 OFFCURVE",
"652 614 CURVE",
"646 565 OFFCURVE",
"645 515 OFFCURVE",
"648 474 CURVE",
"688 474 LINE",
"734 628 LINE",
"693 679 OFFCURVE",
"609 710 OFFCURVE",
"490 710 CURVE SMOOTH",
"267 710 OFFCURVE",
"110 572 OFFCURVE",
"65 350 CURVE SMOOTH",
"19 127 OFFCURVE",
"111 -10 OFFCURVE",
"341 -10 CURVE SMOOTH"
);
},
{
closed = 1;
nodes = (
"524 788 LINE",
"552 822 OFFCURVE",
"660 908 OFFCURVE",
"710 937 CURVE",
"653 987 LINE",
"605 954 OFFCURVE",
"529 889 OFFCURVE",
"499 852 CURVE",
"495 852 LINE",
"482 889 OFFCURVE",
"432 954 OFFCURVE",
"397 987 CURVE",
"320 937 LINE",
"358 908 OFFCURVE",
"431 822 OFFCURVE",
"445 788 CURVE"
);
}
);
width = 709;
}
);
leftKerningGroup = G;
note = Gcaron;
unicode = 01E6;
},
{
glyphname = Gcircumflex;
lastChange = "2015-10-27 15:00:59 +0000";
layers = (
{
layerId = "8296656B-A453-444F-9AE7-A28FFBBB6660";
name = "Bold Italic";
paths = (
{
closed = 1;
nodes = (
"435 -10 OFFCURVE",
"547 10 OFFCURVE",
"605 48 CURVE",
"656 297 LINE",
"671 301 OFFCURVE",
"709 315 OFFCURVE",
"728 326 CURVE",
"731 342 LINE",
"423 342 LINE",
"420 320 LINE",
"442 312 OFFCURVE",
"468 306 OFFCURVE",
"490 300 CURVE",
"440 55 LINE",
"420 49 OFFCURVE",
"391 47 OFFCURVE",
"374 47 CURVE SMOOTH",
"252 47 OFFCURVE",
"201 159 OFFCURVE",
"240 350 CURVE SMOOTH",
"278 539 OFFCURVE",
"392 653 OFFCURVE",
"521 653 CURVE SMOOTH",
"564 653 OFFCURVE",
"620 643 OFFCURVE",
"652 614 CURVE",
"646 565 OFFCURVE",
"645 515 OFFCURVE",
"648 474 CURVE",
"688 474 LINE",
"734 628 LINE",
"693 679 OFFCURVE",
"609 710 OFFCURVE",
"490 710 CURVE SMOOTH",
"267 710 OFFCURVE",
"110 572 OFFCURVE",
"65 350 CURVE SMOOTH",
"19 127 OFFCURVE",
"111 -10 OFFCURVE",
"341 -10 CURVE SMOOTH"
);
},
{
closed = 1;
nodes = (
"441 818 OFFCURVE",
"517 883 OFFCURVE",
"546 920 CURVE",
"550 920 LINE",
"564 883 OFFCURVE",
"613 818 OFFCURVE",
"648 784 CURVE",
"727 835 LINE",
"688 863 OFFCURVE",
"614 950 OFFCURVE",
"601 984 CURVE",
"522 984 LINE",
"493 950 OFFCURVE",
"386 863 OFFCURVE",
"336 835 CURVE",
"394 784 LINE"
);
}
);
width = 709;
}
);
leftKerningGroup = G;
note = Gcircumflex;
unicode = 011C;
},
{
glyphname = Gcommaaccent;
lastChange = "2015-10-27 15:00:58 +0000";
layers = (
{
layerId = "8296656B-A453-444F-9AE7-A28FFBBB6660";
name = "Bold Italic";
paths = (
{
closed = 1;
nodes = (
"435 -10 OFFCURVE",
"547 10 OFFCURVE",
"605 48 CURVE",
"656 297 LINE",
"671 301 OFFCURVE",
"709 315 OFFCURVE",
"728 326 CURVE",
"731 342 LINE",
"423 342 LINE",
"420 320 LINE",
"442 312 OFFCURVE",
"468 306 OFFCURVE",
"490 300 CURVE",
"440 55 LINE",
"420 49 OFFCURVE",
"391 47 OFFCURVE",
"374 47 CURVE SMOOTH",
"252 47 OFFCURVE",
"201 159 OFFCURVE",
"240 350 CURVE SMOOTH",
"278 539 OFFCURVE",
"392 653 OFFCURVE",
"521 653 CURVE SMOOTH",
"564 653 OFFCURVE",
"620 643 OFFCURVE",
"652 614 CURVE",
"646 565 OFFCURVE",
"645 515 OFFCURVE",
"648 474 CURVE",
"688 474 LINE",
"734 628 LINE",
"693 679 OFFCURVE",
"609 710 OFFCURVE",
"490 710 CURVE SMOOTH",
"267 710 OFFCURVE",
"110 572 OFFCURVE",
"65 350 CURVE SMOOTH",
"19 127 OFFCURVE",
"111 -10 OFFCURVE",
"341 -10 CURVE SMOOTH"
);
},
{
closed = 1;
nodes = (
"325 -338 OFFCURVE",
"388 -250 OFFCURVE",
"405 -167 CURVE SMOOTH",
"414 -124 OFFCURVE",
"396 -85 OFFCURVE",
"340 -85 CURVE SMOOTH",
"300 -85 OFFCURVE",
"257 -113 OFFCURVE",
"249 -158 CURVE SMOOTH",
"240 -199 OFFCURVE",
"266 -231 OFFCURVE",
"306 -234 CURVE",
"289 -279 OFFCURVE",
"242 -325 OFFCURVE",
"213 -350 CURVE",
"256 -390 LINE"
);
}
);
width = 709;
}
);
leftKerningGroup = G;
note = Gcommaaccent;
unicode = 0122;
},
{
glyphname = Gdotaccent;
lastChange = "2015-10-27 15:00:59 +0000";
layers = (
{
layerId = "8296656B-A453-444F-9AE7-A28FFBBB6660";
name = "Bold Italic";
paths = (
{
closed = 1;
nodes = (
"435 -10 OFFCURVE",
"547 10 OFFCURVE",
"605 48 CURVE",
"656 297 LINE",
"671 301 OFFCURVE",
"709 315 OFFCURVE",
"728 326 CURVE",
"731 342 LINE",
"423 342 LINE",
"420 320 LINE",
"442 312 OFFCURVE",
"468 306 OFFCURVE",
"490 300 CURVE",
"440 55 LINE",
"420 49 OFFCURVE",
"391 47 OFFCURVE",
"374 47 CURVE SMOOTH",
"252 47 OFFCURVE",
"201 159 OFFCURVE",
"240 350 CURVE SMOOTH",
"278 539 OFFCURVE",
"392 653 OFFCURVE",
"521 653 CURVE SMOOTH",
"564 653 OFFCURVE",
"620 643 OFFCURVE",
"652 614 CURVE",
"646 565 OFFCURVE",
"645 515 OFFCURVE",
"648 474 CURVE",
"688 474 LINE",
"734 628 LINE",
"693 679 OFFCURVE",
"609 710 OFFCURVE",
"490 710 CURVE SMOOTH",
"267 710 OFFCURVE",
"110 572 OFFCURVE",
"65 350 CURVE SMOOTH",
"19 127 OFFCURVE",
"111 -10 OFFCURVE",
"341 -10 CURVE SMOOTH"
);
},
{
closed = 1;
nodes = (
"564 785 OFFCURVE",
"596 815 OFFCURVE",
"604 852 CURVE SMOOTH",
"612 890 OFFCURVE",
"592 920 OFFCURVE",
"553 920 CURVE SMOOTH",
"513 920 OFFCURVE",
"483 890 OFFCURVE",
"475 852 CURVE SMOOTH",
"468 815 OFFCURVE",
"485 785 OFFCURVE",
"525 785 CURVE SMOOTH"
);
}
);
width = 709;
}
);
leftKerningGroup = G;
note = Gdotaccent;
unicode = 0120;
},
{
glyphname = Gmacron;
lastChange = "2015-10-27 15:00:59 +0000";
layers = (
{
layerId = "8296656B-A453-444F-9AE7-A28FFBBB6660";
name = "Bold Italic";
paths = (
{
closed = 1;
nodes = (
"435 -10 OFFCURVE",
"547 10 OFFCURVE",
"605 48 CURVE",
"656 297 LINE",
"671 301 OFFCURVE",
"709 315 OFFCURVE",
"728 326 CURVE",
"731 342 LINE",
"423 342 LINE",
"420 320 LINE",
"442 312 OFFCURVE",
"468 306 OFFCURVE",
"490 300 CURVE",
"440 55 LINE",
"420 49 OFFCURVE",
"391 47 OFFCURVE",
"374 47 CURVE SMOOTH",
"252 47 OFFCURVE",
"201 159 OFFCURVE",
"240 350 CURVE SMOOTH",
"278 539 OFFCURVE",
"392 653 OFFCURVE",
"521 653 CURVE SMOOTH",
"564 653 OFFCURVE",
"620 643 OFFCURVE",
"652 614 CURVE",
"646 565 OFFCURVE",
"645 515 OFFCURVE",
"648 474 CURVE",
"688 474 LINE",
"734 628 LINE",
"693 679 OFFCURVE",
"609 710 OFFCURVE",
"490 710 CURVE SMOOTH",
"267 710 OFFCURVE",
"110 572 OFFCURVE",
"65 350 CURVE SMOOTH",
"19 127 OFFCURVE",
"111 -10 OFFCURVE",
"341 -10 CURVE SMOOTH"
);
},
{
closed = 1;
nodes = (
"676 785 LINE",
"686 837 LINE",
"295 837 LINE",
"284 785 LINE"
);
}
);
width = 709;
}
);
leftKerningGroup = G;
note = Gmacron;
unicode = 1E20;
},
{
glyphname = H;
lastChange = "2015-10-27 15:00:59 +0000";
layers = (
{
layerId = "8296656B-A453-444F-9AE7-A28FFBBB6660";
name = "Bold Italic";
paths = (
{
closed = 1;
nodes = (
"741 0 LINE",
"745 19 LINE",
"718 30 OFFCURVE",
"696 37 OFFCURVE",
"673 42 CURVE",
"799 655 LINE",
"813 657 OFFCURVE",
"847 668 OFFCURVE",
"879 678 CURVE",
"883 700 LINE",
"563 700 LINE",
"559 680 LINE",
"585 670 OFFCURVE",
"607 663 OFFCURVE",
"628 658 CURVE",
"503 43 LINE",
"492 41 OFFCURVE",
"452 29 OFFCURVE",
"423 17 CURVE",
"420 0 LINE"
);
},
{
closed = 1;
nodes = (
"307 0 LINE",
"311 19 LINE",
"285 28 OFFCURVE",
"261 36 OFFCURVE",
"241 41 CURVE",
"367 656 LINE",
"375 658 OFFCURVE",
"381 658 OFFCURVE",
"445 682 CURVE",
"449 700 LINE",
"130 700 LINE",
"126 680 LINE",
"153 669 OFFCURVE",
"174 662 OFFCURVE",
"196 657 CURVE",
"71 44 LINE",
"56 42 OFFCURVE",
"22 31 OFFCURVE",
"-9 21 CURVE",
"-12 0 LINE"
);
},
{
closed = 1;
nodes = (
"642 328 LINE",
"654 382 LINE",
"230 382 LINE",
"219 328 LINE"
);
}
);
width = 805;
}
);
note = H;
unicode = 0048;
},
{
glyphname = Hbar;
lastChange = "2015-10-27 15:00:59 +0000";
layers = (
{
layerId = "8296656B-A453-444F-9AE7-A28FFBBB6660";
name = "Bold Italic";
paths = (
{
closed = 1;
nodes = (
"741 0 LINE",
"745 19 LINE",
"718 30 OFFCURVE",
"696 37 OFFCURVE",
"673 42 CURVE",
"799 655 LINE",
"813 657 OFFCURVE",
"847 668 OFFCURVE",
"879 678 CURVE",
"883 700 LINE",
"563 700 LINE",
"559 680 LINE",
"585 670 OFFCURVE",
"607 663 OFFCURVE",
"628 658 CURVE",
"503 43 LINE",
"492 41 OFFCURVE",
"452 29 OFFCURVE",
"423 17 CURVE",
"420 0 LINE"
);
},
{
closed = 1;
nodes = (
"307 0 LINE",
"311 19 LINE",
"285 28 OFFCURVE",
"261 36 OFFCURVE",
"241 41 CURVE",
"367 656 LINE",
"375 658 OFFCURVE",
"381 658 OFFCURVE",
"445 682 CURVE",
"449 700 LINE",
"130 700 LINE",
"126 680 LINE",
"153 669 OFFCURVE",
"174 662 OFFCURVE",
"196 657 CURVE",
"71 44 LINE",
"56 42 OFFCURVE",
"22 31 OFFCURVE",
"-9 21 CURVE",
"-12 0 LINE"
);
},
{
closed = 1;
nodes = (
"642 328 LINE",
"654 382 LINE",
"230 382 LINE",
"219 328 LINE"
);
},
{
closed = 1;
nodes = (
"822 490 LINE",
"832 544 LINE",
"115 544 LINE",
"105 490 LINE"
);
}
);
width = 805;
}
);
note = Hbar;
unicode = 0126;
},
{
glyphname = Hbrevebelow;
lastChange = "2015-10-27 15:00:59 +0000";
layers = (
{
layerId = "8296656B-A453-444F-9AE7-A28FFBBB6660";
name = "Bold Italic";
paths = (
{
closed = 1;
nodes = (
"741 0 LINE",
"745 19 LINE",
"718 30 OFFCURVE",
"696 37 OFFCURVE",
"673 42 CURVE",
"799 655 LINE",
"813 657 OFFCURVE",
"847 668 OFFCURVE",
"879 678 CURVE",
"883 700 LINE",
"563 700 LINE",
"559 680 LINE",
"585 670 OFFCURVE",
"607 663 OFFCURVE",
"628 658 CURVE",
"503 43 LINE",
"492 41 OFFCURVE",
"452 29 OFFCURVE",
"423 17 CURVE",
"420 0 LINE"
);
},
{
closed = 1;
nodes = (
"423 -188 OFFCURVE",
"500 -144 OFFCURVE",
"535 -50 CURVE",
"443 -50 LINE",
"421 -122 OFFCURVE",
"375 -132 OFFCURVE",
"337 -132 CURVE SMOOTH",
"298 -132 OFFCURVE",
"256 -122 OFFCURVE",
"264 -50 CURVE",
"172 -50 LINE",
"169 -144 OFFCURVE",
"228 -188 OFFCURVE",
"326 -188 CURVE SMOOTH"
);
},
{
closed = 1;
nodes = (
"307 0 LINE",
"311 19 LINE",
"285 28 OFFCURVE",
"261 36 OFFCURVE",
"241 41 CURVE",
"367 656 LINE",
"375 658 OFFCURVE",
"381 658 OFFCURVE",
"445 682 CURVE",
"449 700 LINE",
"130 700 LINE",
"126 680 LINE",
"153 669 OFFCURVE",
"174 662 OFFCURVE",
"196 657 CURVE",
"71 44 LINE",
"56 42 OFFCURVE",
"22 31 OFFCURVE",
"-9 21 CURVE",
"-12 0 LINE"
);
},
{
closed = 1;
nodes = (
"642 328 LINE",
"654 382 LINE",
"230 382 LINE",
"219 328 LINE"
);
}
);
width = 805;
}
);
note = Hbrevebelow;
unicode = 1E2A;
},
{
glyphname = Hcircumflex;
lastChange = "2015-10-27 15:00:59 +0000";
layers = (
{
layerId = "8296656B-A453-444F-9AE7-A28FFBBB6660";
name = "Bold Italic";
paths = (
{
closed = 1;
nodes = (
"741 0 LINE",
"745 19 LINE",
"718 30 OFFCURVE",
"696 37 OFFCURVE",
"673 42 CURVE",
"799 655 LINE",
"813 657 OFFCURVE",
"847 668 OFFCURVE",
"879 678 CURVE",
"883 700 LINE",
"563 700 LINE",
"559 680 LINE",
"585 670 OFFCURVE",
"607 663 OFFCURVE",
"628 658 CURVE",
"503 43 LINE",
"492 41 OFFCURVE",
"452 29 OFFCURVE",
"423 17 CURVE",
"420 0 LINE"
);
},
{
closed = 1;
nodes = (
"307 0 LINE",
"311 19 LINE",
"285 28 OFFCURVE",
"261 36 OFFCURVE",
"241 41 CURVE",
"367 656 LINE",
"375 658 OFFCURVE",
"381 658 OFFCURVE",
"445 682 CURVE",
"449 700 LINE",
"130 700 LINE",
"126 680 LINE",
"153 669 OFFCURVE",
"174 662 OFFCURVE",
"196 657 CURVE",
"71 44 LINE",
"56 42 OFFCURVE",
"22 31 OFFCURVE",
"-9 21 CURVE",
"-12 0 LINE"
);
},
{
closed = 1;
nodes = (
"642 328 LINE",
"654 382 LINE",
"230 382 LINE",
"219 328 LINE"
);
},
{
closed = 1;
nodes = (
"443 818 OFFCURVE",
"519 883 OFFCURVE",
"548 920 CURVE",
"552 920 LINE",
"566 883 OFFCURVE",
"615 818 OFFCURVE",
"650 784 CURVE",
"729 835 LINE",
"690 863 OFFCURVE",
"616 950 OFFCURVE",
"603 984 CURVE",
"524 984 LINE",
"495 950 OFFCURVE",
"388 863 OFFCURVE",
"338 835 CURVE",
"396 784 LINE"
);
}
);
width = 805;
}
);
note = Hcircumflex;
unicode = 0124;
},
{
glyphname = Hdotbelow;
lastChange = "2015-10-27 15:00:59 +0000";
layers = (
{
layerId = "8296656B-A453-444F-9AE7-A28FFBBB6660";
name = "Bold Italic";
paths = (
{
closed = 1;
nodes = (
"741 0 LINE",
"745 19 LINE",
"718 30 OFFCURVE",
"696 37 OFFCURVE",
"673 42 CURVE",
"799 655 LINE",
"813 657 OFFCURVE",
"847 668 OFFCURVE",
"879 678 CURVE",
"883 700 LINE",
"563 700 LINE",
"559 680 LINE",
"585 670 OFFCURVE",
"607 663 OFFCURVE",
"628 658 CURVE",
"503 43 LINE",
"492 41 OFFCURVE",
"452 29 OFFCURVE",
"423 17 CURVE",
"420 0 LINE"
);
},
{
closed = 1;
nodes = (
"365 -187 OFFCURVE",
"396 -157 OFFCURVE",
"403 -120 CURVE SMOOTH",
"411 -82 OFFCURVE",
"392 -52 OFFCURVE",
"351 -52 CURVE SMOOTH",
"312 -52 OFFCURVE",
"282 -82 OFFCURVE",
"275 -120 CURVE SMOOTH",
"267 -157 OFFCURVE",
"285 -187 OFFCURVE",
"324 -187 CURVE SMOOTH"
);
},
{
closed = 1;
nodes = (
"307 0 LINE",
"311 19 LINE",
"285 28 OFFCURVE",
"261 36 OFFCURVE",
"241 41 CURVE",
"367 656 LINE",
"375 658 OFFCURVE",
"381 658 OFFCURVE",
"445 682 CURVE",
"449 700 LINE",
"130 700 LINE",
"126 680 LINE",
"153 669 OFFCURVE",
"174 662 OFFCURVE",
"196 657 CURVE",
"71 44 LINE",
"56 42 OFFCURVE",
"22 31 OFFCURVE",
"-9 21 CURVE",
"-12 0 LINE"
);
},
{
closed = 1;
nodes = (
"642 328 LINE",
"654 382 LINE",
"230 382 LINE",
"219 328 LINE"
);
}
);
width = 805;
}
);
note = Hdotbelow;
unicode = 1E24;
},
{
glyphname = I;
lastChange = "2015-10-27 15:00:59 +0000";
layers = (
{
layerId = "8296656B-A453-444F-9AE7-A28FFBBB6660";
name = "Bold Italic";
paths = (
{
closed = 1;
nodes = (
"313 0 LINE",
"317 20 LINE",
"291 28 OFFCURVE",
"265 38 OFFCURVE",
"243 42 CURVE",
"369 656 LINE",
"396 663 OFFCURVE",
"426 670 OFFCURVE",
"450 677 CURVE",
"455 700 LINE",
"130 700 LINE",
"126 679 LINE",
"150 671 OFFCURVE",
"178 661 OFFCURVE",
"198 657 CURVE",
"73 43 LINE",
"45 37 OFFCURVE",
"16 29 OFFCURVE",
"-9 22 CURVE",
"-12 0 LINE"
);
}
);
width = 377;
}
);
note = I;
unicode = 0049;
},
{
glyphname = IJ;
lastChange = "2015-10-27 15:00:59 +0000";
layers = (
{
layerId = "8296656B-A453-444F-9AE7-A28FFBBB6660";
name = "Bold Italic";
paths = (
{
closed = 1;
nodes = (
"637 -10 OFFCURVE",
"754 39 OFFCURVE",
"780 169 CURVE SMOOTH",
"879 655 LINE",
"893 657 OFFCURVE",
"926 668 OFFCURVE",
"958 678 CURVE",
"962 700 LINE",
"641 700 LINE",
"637 678 LINE",
"660 669 OFFCURVE",
"680 661 OFFCURVE",
"708 656 CURVE",
"608 160 LINE SMOOTH",
"591 83 OFFCURVE",
"540 56 OFFCURVE",
"492 56 CURVE SMOOTH",
"449 56 OFFCURVE",
"411 74 OFFCURVE",
"390 94 CURVE",
"356 51 LINE",
"393 11 OFFCURVE",
"460 -10 OFFCURVE",
"528 -10 CURVE SMOOTH"
);
},
{
closed = 1;
nodes = (
"313 0 LINE",
"317 20 LINE",
"291 28 OFFCURVE",
"265 38 OFFCURVE",
"243 42 CURVE",
"369 656 LINE",
"396 663 OFFCURVE",
"426 670 OFFCURVE",
"450 677 CURVE",
"455 700 LINE",
"130 700 LINE",
"126 679 LINE",
"150 671 OFFCURVE",
"178 661 OFFCURVE",
"198 657 CURVE",
"73 43 LINE",
"45 37 OFFCURVE",
"16 29 OFFCURVE",
"-9 22 CURVE",
"-12 0 LINE"
);
}
);
width = 885;
}
);
note = IJ;
rightKerningGroup = J;
unicode = 0132;
},
{
glyphname = Iacute;
lastChange = "2015-10-27 15:00:59 +0000";
layers = (
{
layerId = "8296656B-A453-444F-9AE7-A28FFBBB6660";
name = "Bold Italic";
paths = (
{
closed = 1;
nodes = (
"313 0 LINE",
"317 20 LINE",
"291 28 OFFCURVE",
"265 38 OFFCURVE",
"243 42 CURVE",
"369 656 LINE",
"396 663 OFFCURVE",
"426 670 OFFCURVE",
"450 677 CURVE",
"455 700 LINE",
"130 700 LINE",
"126 679 LINE",
"150 671 OFFCURVE",
"178 661 OFFCURVE",
"198 657 CURVE",
"73 43 LINE",
"45 37 OFFCURVE",
"16 29 OFFCURVE",
"-9 22 CURVE",
"-12 0 LINE"
);
},
{
closed = 1;
nodes = (
"395 882 LINE SMOOTH",
"433 903 OFFCURVE",
"455 923 OFFCURVE",
"460 950 CURVE",
"465 970 OFFCURVE",
"455 996 OFFCURVE",
"419 996 CURVE SMOOTH",
"386 996 OFFCURVE",
"349 964 OFFCURVE",
"343 958 CURVE SMOOTH",
"197 825 LINE",
"216 786 LINE"
);
}
);
width = 377;
}
);
note = Iacute;
unicode = 00CD;
},
{
glyphname = Ibreve;
lastChange = "2015-10-27 15:00:58 +0000";
layers = (
{
layerId = "8296656B-A453-444F-9AE7-A28FFBBB6660";
name = "Bold Italic";
paths = (
{
closed = 1;
nodes = (
"313 0 LINE",
"317 20 LINE",
"291 28 OFFCURVE",
"265 38 OFFCURVE",
"243 42 CURVE",
"369 656 LINE",
"396 663 OFFCURVE",
"426 670 OFFCURVE",
"450 677 CURVE",
"455 700 LINE",
"130 700 LINE",
"126 679 LINE",
"150 671 OFFCURVE",
"178 661 OFFCURVE",
"198 657 CURVE",
"73 43 LINE",
"45 37 OFFCURVE",
"16 29 OFFCURVE",
"-9 22 CURVE",
"-12 0 LINE"
);
},
{
closed = 1;
nodes = (
"406 784 OFFCURVE",
"484 828 OFFCURVE",
"517 921 CURVE",
"425 921 LINE",
"404 849 OFFCURVE",
"359 840 OFFCURVE",
"320 840 CURVE SMOOTH",
"280 840 OFFCURVE",
"238 849 OFFCURVE",
"246 921 CURVE",
"155 921 LINE",
"153 828 OFFCURVE",
"209 784 OFFCURVE",
"308 784 CURVE SMOOTH"
);
}
);
width = 377;
}
);
note = Ibreve;
unicode = 012C;
},
{
glyphname = Icaron;
lastChange = "2015-10-27 15:00:58 +0000";
layers = (
{
layerId = "8296656B-A453-444F-9AE7-A28FFBBB6660";
name = "Bold Italic";
paths = (
{
closed = 1;
nodes = (
"313 0 LINE",
"317 20 LINE",
"291 28 OFFCURVE",
"265 38 OFFCURVE",
"243 42 CURVE",
"369 656 LINE",
"396 663 OFFCURVE",
"426 670 OFFCURVE",
"450 677 CURVE",
"455 700 LINE",
"130 700 LINE",
"126 679 LINE",
"150 671 OFFCURVE",
"178 661 OFFCURVE",
"198 657 CURVE",
"73 43 LINE",
"45 37 OFFCURVE",
"16 29 OFFCURVE",
"-9 22 CURVE",
"-12 0 LINE"
);
},
{
closed = 1;
nodes = (
"348 786 LINE",
"376 820 OFFCURVE",
"485 906 OFFCURVE",
"535 935 CURVE",
"477 985 LINE",
"429 952 OFFCURVE",
"353 887 OFFCURVE",
"324 850 CURVE",
"320 850 LINE",
"306 887 OFFCURVE",
"256 952 OFFCURVE",
"222 985 CURVE",
"144 935 LINE",
"182 906 OFFCURVE",
"255 820 OFFCURVE",
"270 786 CURVE"
);
}
);
width = 377;
}
);
note = Icaron;
unicode = 01CF;
},
{
glyphname = Icircumflex;
lastChange = "2015-10-27 15:00:59 +0000";
layers = (
{
layerId = "8296656B-A453-444F-9AE7-A28FFBBB6660";
name = "Bold Italic";
paths = (
{
closed = 1;
nodes = (
"313 0 LINE",
"317 20 LINE",
"291 28 OFFCURVE",
"265 38 OFFCURVE",
"243 42 CURVE",
"369 656 LINE",
"396 663 OFFCURVE",
"426 670 OFFCURVE",
"450 677 CURVE",
"455 700 LINE",
"130 700 LINE",
"126 679 LINE",
"150 671 OFFCURVE",
"178 661 OFFCURVE",
"198 657 CURVE",
"73 43 LINE",
"45 37 OFFCURVE",
"16 29 OFFCURVE",
"-9 22 CURVE",
"-12 0 LINE"
);
},
{
closed = 1;
nodes = (
"228 818 OFFCURVE",
"305 883 OFFCURVE",
"334 920 CURVE",
"338 920 LINE",
"352 883 OFFCURVE",
"401 818 OFFCURVE",
"436 784 CURVE",
"515 835 LINE",
"476 863 OFFCURVE",
"402 950 OFFCURVE",
"389 984 CURVE",
"310 984 LINE",
"281 950 OFFCURVE",
"174 863 OFFCURVE",
"124 835 CURVE",
"181 784 LINE"
);
}
);
width = 377;
}
);
note = Icircumflex;
unicode = 00CE;
},
{
glyphname = Idieresis;
lastChange = "2015-10-27 15:00:58 +0000";
layers = (
{
layerId = "8296656B-A453-444F-9AE7-A28FFBBB6660";
name = "Bold Italic";
paths = (
{
closed = 1;
nodes = (
"313 0 LINE",
"317 20 LINE",
"291 28 OFFCURVE",
"265 38 OFFCURVE",
"243 42 CURVE",
"369 656 LINE",
"396 663 OFFCURVE",
"426 670 OFFCURVE",
"450 677 CURVE",
"455 700 LINE",
"130 700 LINE",
"126 679 LINE",
"150 671 OFFCURVE",
"178 661 OFFCURVE",
"198 657 CURVE",
"73 43 LINE",
"45 37 OFFCURVE",
"16 29 OFFCURVE",
"-9 22 CURVE",
"-12 0 LINE"
);
},
{
closed = 1;
nodes = (
"228 785 OFFCURVE",
"260 815 OFFCURVE",
"268 852 CURVE SMOOTH",
"276 890 OFFCURVE",
"256 920 OFFCURVE",
"217 920 CURVE SMOOTH",
"179 920 OFFCURVE",
"148 890 OFFCURVE",
"140 852 CURVE SMOOTH",
"132 815 OFFCURVE",
"151 785 OFFCURVE",
"190 785 CURVE SMOOTH"
);
},
{
closed = 1;
nodes = (
"466 785 OFFCURVE",
"497 815 OFFCURVE",
"505 852 CURVE SMOOTH",
"513 890 OFFCURVE",
"493 920 OFFCURVE",
"453 920 CURVE SMOOTH",
"414 920 OFFCURVE",
"384 890 OFFCURVE",
"376 852 CURVE SMOOTH",
"369 815 OFFCURVE",
"386 785 OFFCURVE",
"425 785 CURVE SMOOTH"
);
}
);
width = 377;
}
);
note = Idieresis;
unicode = 00CF;
},
{
glyphname = Idotaccent;
lastChange = "2015-10-27 15:00:58 +0000";
layers = (
{
layerId = "8296656B-A453-444F-9AE7-A28FFBBB6660";
name = "Bold Italic";
paths = (
{
closed = 1;
nodes = (
"313 0 LINE",
"317 20 LINE",
"291 28 OFFCURVE",
"265 38 OFFCURVE",
"243 42 CURVE",
"369 656 LINE",
"396 663 OFFCURVE",
"426 670 OFFCURVE",
"450 677 CURVE",
"455 700 LINE",
"130 700 LINE",
"126 679 LINE",
"150 671 OFFCURVE",
"178 661 OFFCURVE",
"198 657 CURVE",
"73 43 LINE",
"45 37 OFFCURVE",
"16 29 OFFCURVE",
"-9 22 CURVE",
"-12 0 LINE"
);
},
{
closed = 1;
nodes = (
"346 785 OFFCURVE",
"377 815 OFFCURVE",
"385 852 CURVE SMOOTH",
"393 890 OFFCURVE",
"373 920 OFFCURVE",
"334 920 CURVE SMOOTH",
"294 920 OFFCURVE",
"264 890 OFFCURVE",
"256 852 CURVE SMOOTH",
"249 815 OFFCURVE",
"266 785 OFFCURVE",
"306 785 CURVE SMOOTH"
);
}
);
width = 377;
}
);
note = Idotaccent;
unicode = 0130;
},
{
glyphname = Idotbelow;
lastChange = "2015-10-27 15:00:59 +0000";
layers = (
{
layerId = "8296656B-A453-444F-9AE7-A28FFBBB6660";
name = "Bold Italic";
paths = (
{
closed = 1;
nodes = (
"313 0 LINE",
"317 20 LINE",
"291 28 OFFCURVE",
"265 38 OFFCURVE",
"243 42 CURVE",
"369 656 LINE",
"396 663 OFFCURVE",
"426 670 OFFCURVE",
"450 677 CURVE",
"455 700 LINE",
"130 700 LINE",
"126 679 LINE",
"150 671 OFFCURVE",
"178 661 OFFCURVE",
"198 657 CURVE",
"73 43 LINE",
"45 37 OFFCURVE",
"16 29 OFFCURVE",
"-9 22 CURVE",
"-12 0 LINE"
);
},
{
closed = 1;
nodes = (
"152 -187 OFFCURVE",
"182 -157 OFFCURVE",
"190 -120 CURVE SMOOTH",
"198 -82 OFFCURVE",
"179 -52 OFFCURVE",
"138 -52 CURVE SMOOTH",
"99 -52 OFFCURVE",
"69 -82 OFFCURVE",
"61 -120 CURVE SMOOTH",
"54 -157 OFFCURVE",
"72 -187 OFFCURVE",
"111 -187 CURVE SMOOTH"
);
}
);
width = 377;
}
);
note = Idotbelow;
unicode = 1ECA;
},
{
glyphname = Igrave;
lastChange = "2015-10-27 15:00:59 +0000";
layers = (
{
layerId = "8296656B-A453-444F-9AE7-A28FFBBB6660";
name = "Bold Italic";
paths = (
{
closed = 1;
nodes = (
"313 0 LINE",
"317 20 LINE",
"291 28 OFFCURVE",
"265 38 OFFCURVE",
"243 42 CURVE",
"369 656 LINE",
"396 663 OFFCURVE",
"426 670 OFFCURVE",
"450 677 CURVE",
"455 700 LINE",
"130 700 LINE",
"126 679 LINE",
"150 671 OFFCURVE",
"178 661 OFFCURVE",
"198 657 CURVE",
"73 43 LINE",
"45 37 OFFCURVE",
"16 29 OFFCURVE",
"-9 22 CURVE",
"-12 0 LINE"
);
},
{
closed = 1;
nodes = (
"437 825 LINE",
"344 958 LINE",
"340 965 OFFCURVE",
"320 996 OFFCURVE",
"284 996 CURVE SMOOTH",
"247 996 OFFCURVE",
"227 970 OFFCURVE",
"222 950 CURVE",
"217 923 OFFCURVE",
"232 903 OFFCURVE",
"262 882 CURVE SMOOTH",
"402 786 LINE"
);
}
);
width = 377;
}
);
note = Igrave;
unicode = 00CC;
},
{
glyphname = Ihookabove;
lastChange = "2015-10-27 15:00:58 +0000";
layers = (
{
layerId = "8296656B-A453-444F-9AE7-A28FFBBB6660";
name = "Bold Italic";
paths = (
{
closed = 1;
nodes = (
"313 0 LINE",
"317 20 LINE",
"291 28 OFFCURVE",
"265 38 OFFCURVE",
"243 42 CURVE",
"369 656 LINE",
"396 663 OFFCURVE",
"426 670 OFFCURVE",
"450 677 CURVE",
"455 700 LINE",
"130 700 LINE",
"126 679 LINE",
"150 671 OFFCURVE",
"178 661 OFFCURVE",
"198 657 CURVE",
"73 43 LINE",
"45 37 OFFCURVE",
"16 29 OFFCURVE",
"-9 22 CURVE",
"-12 0 LINE"
);
},
{
closed = 1;
nodes = (
"348 784 LINE",
"373 855 LINE",
"426 860 OFFCURVE",
"472 880 OFFCURVE",
"485 944 CURVE SMOOTH",
"499 1014 OFFCURVE",
"443 1040 OFFCURVE",
"382 1040 CURVE SMOOTH",
"349 1040 OFFCURVE",
"316 1032 OFFCURVE",
"293 1021 CURVE",
"291 979 LINE",
"313 991 OFFCURVE",
"337 995 OFFCURVE",
"354 995 CURVE SMOOTH",
"395 995 OFFCURVE",
"410 971 OFFCURVE",
"405 945 CURVE SMOOTH",
"396 905 OFFCURVE",
"364 893 OFFCURVE",
"340 893 CURVE SMOOTH",
"300 893 LINE",
"281 784 LINE"
);
}
);
width = 377;
}
);
note = Ihookabove;
unicode = 1EC8;
},
{
glyphname = Imacron;
lastChange = "2015-10-27 15:00:59 +0000";
layers = (
{
layerId = "8296656B-A453-444F-9AE7-A28FFBBB6660";
name = "Bold Italic";
paths = (
{
closed = 1;
nodes = (
"313 0 LINE",
"317 20 LINE",
"291 28 OFFCURVE",
"265 38 OFFCURVE",
"243 42 CURVE",
"369 656 LINE",
"396 663 OFFCURVE",
"426 670 OFFCURVE",
"450 677 CURVE",
"455 700 LINE",
"130 700 LINE",
"126 679 LINE",
"150 671 OFFCURVE",
"178 661 OFFCURVE",
"198 657 CURVE",
"73 43 LINE",
"45 37 OFFCURVE",
"16 29 OFFCURVE",
"-9 22 CURVE",
"-12 0 LINE"
);
},
{
closed = 1;
nodes = (
"525 785 LINE",
"537 838 LINE",
"106 838 LINE",
"94 785 LINE"
);
}
);
width = 377;
}
);
note = Imacron;
unicode = 012A;
},
{
glyphname = Iogonek;
lastChange = "2015-10-27 15:00:58 +0000";
layers = (
{
layerId = "8296656B-A453-444F-9AE7-A28FFBBB6660";
name = "Bold Italic";
paths = (
{
closed = 1;
nodes = (
"313 0 LINE",
"317 20 LINE",
"291 28 OFFCURVE",
"265 38 OFFCURVE",
"243 42 CURVE",
"369 656 LINE",
"396 663 OFFCURVE",
"426 670 OFFCURVE",
"450 677 CURVE",
"455 700 LINE",
"130 700 LINE",
"126 679 LINE",
"150 671 OFFCURVE",
"178 661 OFFCURVE",
"198 657 CURVE",
"73 43 LINE",
"45 37 OFFCURVE",
"16 29 OFFCURVE",
"-9 22 CURVE",
"-12 0 LINE"
);
},
{
closed = 1;
nodes = (
"266 -212 OFFCURVE",
"314 -201 OFFCURVE",
"344 -183 CURVE",
"357 -113 LINE",
"328 -130 OFFCURVE",
"303 -136 OFFCURVE",
"285 -136 CURVE SMOOTH",
"250 -136 OFFCURVE",
"230 -114 OFFCURVE",
"237 -84 CURVE",
"243 -53 OFFCURVE",
"275 -18 OFFCURVE",
"300 0 CURVE",
"222 0 LINE",
"158 -18 OFFCURVE",
"113 -74 OFFCURVE",
"104 -119 CURVE SMOOTH",
"92 -177 OFFCURVE",
"135 -212 OFFCURVE",
"221 -212 CURVE SMOOTH"
);
}
);
width = 377;
}
);
note = Iogonek;
unicode = 012E;
},
{
glyphname = Itilde;
lastChange = "2015-10-27 15:00:59 +0000";
layers = (
{
layerId = "8296656B-A453-444F-9AE7-A28FFBBB6660";
name = "Bold Italic";
paths = (
{
closed = 1;
nodes = (
"313 0 LINE",
"317 20 LINE",
"291 28 OFFCURVE",
"265 38 OFFCURVE",
"243 42 CURVE",
"369 656 LINE",
"396 663 OFFCURVE",
"426 670 OFFCURVE",
"450 677 CURVE",
"455 700 LINE",
"130 700 LINE",
"126 679 LINE",
"150 671 OFFCURVE",
"178 661 OFFCURVE",
"198 657 CURVE",
"73 43 LINE",
"45 37 OFFCURVE",
"16 29 OFFCURVE",
"-9 22 CURVE",
"-12 0 LINE"
);
},
{
closed = 1;
nodes = (
"183 786 LINE",
"195 817 OFFCURVE",
"217 837 OFFCURVE",
"245 837 CURVE SMOOTH",
"278 837 OFFCURVE",
"331 786 OFFCURVE",
"390 786 CURVE SMOOTH",
"470 786 OFFCURVE",
"516 836 OFFCURVE",
"538 910 CURVE",
"463 910 LINE",
"443 863 OFFCURVE",
"420 857 OFFCURVE",
"396 857 CURVE SMOOTH",
"357 857 OFFCURVE",
"330 908 OFFCURVE",
"256 908 CURVE SMOOTH",
"186 908 OFFCURVE",
"134 866 OFFCURVE",
"107 786 CURVE"
);
}
);
width = 377;
}
);
note = Itilde;
unicode = 0128;
},
{
glyphname = J;
lastChange = "2015-10-27 15:00:59 +0000";
layers = (
{
layerId = "8296656B-A453-444F-9AE7-A28FFBBB6660";
name = "Bold Italic";
paths = (
{
closed = 1;
nodes = (
"269 -10 OFFCURVE",
"385 39 OFFCURVE",
"411 169 CURVE SMOOTH",
"511 655 LINE",
"524 657 OFFCURVE",
"558 668 OFFCURVE",
"589 678 CURVE",
"593 700 LINE",
"273 700 LINE",
"269 678 LINE",
"291 669 OFFCURVE",
"311 661 OFFCURVE",
"340 656 CURVE",
"239 160 LINE SMOOTH",
"223 83 OFFCURVE",
"172 56 OFFCURVE",
"123 56 CURVE SMOOTH",
"81 56 OFFCURVE",
"42 74 OFFCURVE",
"21 94 CURVE",
"-12 51 LINE",
"24 11 OFFCURVE",
"91 -10 OFFCURVE",
"159 -10 CURVE SMOOTH"
);
}
);
width = 516;
}
);
leftKerningGroup = J;
note = J;
rightKerningGroup = J;
unicode = 004A;
},
{
glyphname = Jcircumflex;
lastChange = "2015-10-27 15:00:58 +0000";
layers = (
{
layerId = "8296656B-A453-444F-9AE7-A28FFBBB6660";
name = "Bold Italic";
paths = (
{
closed = 1;
nodes = (
"269 -10 OFFCURVE",
"385 39 OFFCURVE",
"411 169 CURVE SMOOTH",
"511 655 LINE",
"524 657 OFFCURVE",
"558 668 OFFCURVE",
"589 678 CURVE",
"593 700 LINE",
"273 700 LINE",
"269 678 LINE",
"291 669 OFFCURVE",
"311 661 OFFCURVE",
"340 656 CURVE",
"239 160 LINE SMOOTH",
"223 83 OFFCURVE",
"172 56 OFFCURVE",
"123 56 CURVE SMOOTH",
"81 56 OFFCURVE",
"42 74 OFFCURVE",
"21 94 CURVE",
"-12 51 LINE",
"24 11 OFFCURVE",
"91 -10 OFFCURVE",
"159 -10 CURVE SMOOTH"
);
},
{
closed = 1;
nodes = (
"369 818 OFFCURVE",
"445 883 OFFCURVE",
"474 920 CURVE",
"478 920 LINE",
"492 883 OFFCURVE",
"541 818 OFFCURVE",
"576 784 CURVE",
"655 835 LINE",
"616 863 OFFCURVE",
"542 950 OFFCURVE",
"529 984 CURVE",
"450 984 LINE",
"421 950 OFFCURVE",
"314 863 OFFCURVE",
"264 835 CURVE",
"322 784 LINE"
);
}
);
width = 516;
}
);
leftKerningGroup = J;
note = Jcircumflex;
rightKerningGroup = J;
unicode = 0134;
},
{
glyphname = K;
lastChange = "2015-10-27 15:00:59 +0000";
layers = (
{
layerId = "8296656B-A453-444F-9AE7-A28FFBBB6660";
name = "Bold Italic";
paths = (
{
closed = 1;
nodes = (
"310 0 LINE",
"314 20 LINE",
"289 28 OFFCURVE",
"264 38 OFFCURVE",
"242 42 CURVE",
"368 656 LINE",
"394 662 OFFCURVE",
"421 670 OFFCURVE",
"447 677 CURVE",
"452 700 LINE",
"130 700 LINE",
"126 680 LINE",
"151 670 OFFCURVE",
"176 662 OFFCURVE",
"197 657 CURVE",
"72 43 LINE",
"69 43 OFFCURVE",
"20 30 OFFCURVE",
"-9 22 CURVE",
"-12 0 LINE"
);
},
{
closed = 1;
nodes = (
"752 0 LINE",
"756 20 LINE",
"724 31 OFFCURVE",
"697 38 OFFCURVE",
"675 42 CURVE",
"474 442 LINE",
"353 335 LINE",
"518 0 LINE"
);
},
{
closed = 1;
nodes = (
"737 646 LINE",
"760 664 OFFCURVE",
"793 664 OFFCURVE",
"818 672 CURVE",
"824 700 LINE",
"591 700 LINE",
"586 672 LINE",
"611 666 OFFCURVE",
"638 662 OFFCURVE",
"660 655 CURVE",
"233 278 LINE",
"214 184 LINE"
);
}
);
width = 795;
}
);
note = K;
rightKerningGroup = K;
unicode = 004B;
},
{
glyphname = Kcommaaccent;
lastChange = "2015-10-27 15:00:59 +0000";
layers = (
{
layerId = "8296656B-A453-444F-9AE7-A28FFBBB6660";
name = "Bold Italic";
paths = (
{
closed = 1;
nodes = (
"310 0 LINE",
"314 20 LINE",
"289 28 OFFCURVE",
"264 38 OFFCURVE",
"242 42 CURVE",
"368 656 LINE",
"394 662 OFFCURVE",
"421 670 OFFCURVE",
"447 677 CURVE",
"452 700 LINE",
"130 700 LINE",
"126 680 LINE",
"151 670 OFFCURVE",
"176 662 OFFCURVE",
"197 657 CURVE",
"72 43 LINE",
"69 43 OFFCURVE",
"20 30 OFFCURVE",
"-9 22 CURVE",
"-12 0 LINE"
);
},
{
closed = 1;
nodes = (
"336 -338 OFFCURVE",
"398 -250 OFFCURVE",
"416 -167 CURVE SMOOTH",
"424 -124 OFFCURVE",
"406 -85 OFFCURVE",
"350 -85 CURVE SMOOTH",
"310 -85 OFFCURVE",
"268 -113 OFFCURVE",
"259 -158 CURVE SMOOTH",
"251 -199 OFFCURVE",
"276 -231 OFFCURVE",
"317 -234 CURVE",
"300 -279 OFFCURVE",
"252 -325 OFFCURVE",
"224 -350 CURVE",
"267 -390 LINE"
);
},
{
closed = 1;
nodes = (
"752 0 LINE",
"756 20 LINE",
"724 31 OFFCURVE",
"697 38 OFFCURVE",
"675 42 CURVE",
"474 442 LINE",
"353 335 LINE",
"518 0 LINE"
);
},
{
closed = 1;
nodes = (
"737 646 LINE",
"760 664 OFFCURVE",
"793 664 OFFCURVE",
"818 672 CURVE",
"824 700 LINE",
"591 700 LINE",
"586 672 LINE",
"611 666 OFFCURVE",
"638 662 OFFCURVE",
"660 655 CURVE",
"233 278 LINE",
"214 184 LINE"
);
}
);
width = 795;
}
);
note = Kcommaaccent;
rightKerningGroup = K;
unicode = 0136;
},
{
glyphname = L;
lastChange = "2015-10-27 15:00:59 +0000";
layers = (
{
layerId = "8296656B-A453-444F-9AE7-A28FFBBB6660";
name = "Bold Italic";
paths = (
{
closed = 1;
nodes = (
"555 0 LINE",
"611 185 LINE",
"575 185 LINE",
"552 164 OFFCURVE",
"506 92 OFFCURVE",
"495 54 CURVE",
"252 54 LINE",
"375 656 LINE",
"401 662 OFFCURVE",
"430 670 OFFCURVE",
"456 677 CURVE",
"461 700 LINE",
"137 700 LINE",
"133 680 LINE",
"158 670 OFFCURVE",
"182 662 OFFCURVE",
"204 657 CURVE",
"79 42 LINE",
"55 38 OFFCURVE",
"21 30 OFFCURVE",
"-9 20 CURVE",
"-12 0 LINE"
);
}
);
width = 646;
}
);
note = L;
rightKerningGroup = L;
unicode = 004C;
},
{
glyphname = Lacute;
lastChange = "2015-10-27 15:00:59 +0000";
layers = (
{
layerId = "8296656B-A453-444F-9AE7-A28FFBBB6660";
name = "Bold Italic";
paths = (
{
closed = 1;
nodes = (
"555 0 LINE",
"611 185 LINE",
"575 185 LINE",
"552 164 OFFCURVE",
"506 92 OFFCURVE",
"495 54 CURVE",
"252 54 LINE",
"375 656 LINE",
"401 662 OFFCURVE",
"430 670 OFFCURVE",
"456 677 CURVE",
"461 700 LINE",
"137 700 LINE",
"133 680 LINE",
"158 670 OFFCURVE",
"182 662 OFFCURVE",
"204 657 CURVE",
"79 42 LINE",
"55 38 OFFCURVE",
"21 30 OFFCURVE",
"-9 20 CURVE",
"-12 0 LINE"
);
},
{
closed = 1;
nodes = (
"422 882 LINE SMOOTH",
"461 903 OFFCURVE",
"483 923 OFFCURVE",
"488 950 CURVE",
"492 970 OFFCURVE",
"483 996 OFFCURVE",
"446 996 CURVE SMOOTH",
"414 996 OFFCURVE",
"377 964 OFFCURVE",
"371 958 CURVE SMOOTH",
"225 825 LINE",
"244 786 LINE"
);
}
);
width = 646;
}
);
note = Lacute;
rightKerningGroup = L;
unicode = 0139;
},
{
glyphname = Lcaron;
lastChange = "2015-10-27 15:00:59 +0000";
layers = (
{
layerId = "8296656B-A453-444F-9AE7-A28FFBBB6660";
name = "Bold Italic";
paths = (
{
closed = 1;
nodes = (
"555 0 LINE",
"611 185 LINE",
"575 185 LINE",
"552 164 OFFCURVE",
"506 92 OFFCURVE",
"495 54 CURVE",
"252 54 LINE",
"375 656 LINE",
"401 662 OFFCURVE",
"430 670 OFFCURVE",
"456 677 CURVE",
"461 700 LINE",
"137 700 LINE",
"133 680 LINE",
"158 670 OFFCURVE",
"182 662 OFFCURVE",
"204 657 CURVE",
"79 42 LINE",
"55 38 OFFCURVE",
"21 30 OFFCURVE",
"-9 20 CURVE",
"-12 0 LINE"
);
},
{
closed = 1;
nodes = (
"594 446 OFFCURVE",
"663 535 OFFCURVE",
"681 618 CURVE SMOOTH",
"689 660 OFFCURVE",
"677 710 OFFCURVE",
"612 710 CURVE SMOOTH",
"557 710 OFFCURVE",
"524 669 OFFCURVE",
"515 624 CURVE SMOOTH",
"506 581 OFFCURVE",
"531 549 OFFCURVE",
"576 549 CURVE",
"560 504 OFFCURVE",
"512 458 OFFCURVE",
"483 433 CURVE",
"526 393 LINE"
);
}
);
width = 646;
}
);
note = Lcaron;
rightKerningGroup = L;
unicode = 013D;
},
{
glyphname = Lcommaaccent;
lastChange = "2015-10-27 15:00:59 +0000";
layers = (
{
layerId = "8296656B-A453-444F-9AE7-A28FFBBB6660";
name = "Bold Italic";
paths = (
{
closed = 1;
nodes = (
"555 0 LINE",
"611 185 LINE",
"575 185 LINE",
"552 164 OFFCURVE",
"506 92 OFFCURVE",
"495 54 CURVE",
"252 54 LINE",
"375 656 LINE",
"401 662 OFFCURVE",
"430 670 OFFCURVE",
"456 677 CURVE",
"461 700 LINE",
"137 700 LINE",
"133 680 LINE",
"158 670 OFFCURVE",
"182 662 OFFCURVE",
"204 657 CURVE",
"79 42 LINE",
"55 38 OFFCURVE",
"21 30 OFFCURVE",
"-9 20 CURVE",
"-12 0 LINE"
);
},
{
closed = 1;
nodes = (
"261 -338 OFFCURVE",
"324 -250 OFFCURVE",
"341 -167 CURVE SMOOTH",
"349 -124 OFFCURVE",
"331 -85 OFFCURVE",
"276 -85 CURVE SMOOTH",
"235 -85 OFFCURVE",
"193 -113 OFFCURVE",
"184 -158 CURVE SMOOTH",
"176 -199 OFFCURVE",
"202 -231 OFFCURVE",
"242 -234 CURVE",
"225 -279 OFFCURVE",
"178 -325 OFFCURVE",
"149 -350 CURVE",
"192 -390 LINE"
);
}
);
width = 646;
}
);
note = Lcommaaccent;
rightKerningGroup = L;
unicode = 013B;
},
{
glyphname = Ldot;
lastChange = "2015-10-27 15:00:59 +0000";
layers = (
{
layerId = "8296656B-A453-444F-9AE7-A28FFBBB6660";
name = "Bold Italic";
paths = (
{
closed = 1;
nodes = (
"555 0 LINE",
"611 185 LINE",
"575 185 LINE",
"552 164 OFFCURVE",
"506 92 OFFCURVE",
"495 54 CURVE",
"252 54 LINE",
"375 656 LINE",
"401 662 OFFCURVE",
"430 670 OFFCURVE",
"456 677 CURVE",
"461 700 LINE",
"137 700 LINE",
"133 680 LINE",
"158 670 OFFCURVE",
"182 662 OFFCURVE",
"204 657 CURVE",
"79 42 LINE",
"55 38 OFFCURVE",
"21 30 OFFCURVE",
"-9 20 CURVE",
"-12 0 LINE"
);
},
{
closed = 1;
nodes = (
"533 326 OFFCURVE",
"564 355 OFFCURVE",
"571 393 CURVE SMOOTH",
"579 430 OFFCURVE",
"560 460 OFFCURVE",
"520 460 CURVE SMOOTH",
"480 460 OFFCURVE",
"450 430 OFFCURVE",
"443 393 CURVE SMOOTH",
"435 355 OFFCURVE",
"453 326 OFFCURVE",
"493 326 CURVE SMOOTH"
);
}
);
width = 646;
}
);
note = Ldot;
rightKerningGroup = L;
unicode = 013F;
},
{
glyphname = Ldotbelow;
lastChange = "2015-10-27 15:00:59 +0000";
layers = (
{
layerId = "8296656B-A453-444F-9AE7-A28FFBBB6660";
name = "Bold Italic";
paths = (
{
closed = 1;
nodes = (
"555 0 LINE",
"611 185 LINE",
"575 185 LINE",
"552 164 OFFCURVE",
"506 92 OFFCURVE",
"495 54 CURVE",
"252 54 LINE",
"375 656 LINE",
"401 662 OFFCURVE",
"430 670 OFFCURVE",
"456 677 CURVE",
"461 700 LINE",
"137 700 LINE",
"133 680 LINE",
"158 670 OFFCURVE",
"182 662 OFFCURVE",
"204 657 CURVE",
"79 42 LINE",
"55 38 OFFCURVE",
"21 30 OFFCURVE",
"-9 20 CURVE",
"-12 0 LINE"
);
},
{
closed = 1;
nodes = (
"290 -185 OFFCURVE",
"321 -156 OFFCURVE",
"328 -118 CURVE SMOOTH",
"336 -81 OFFCURVE",
"318 -51 OFFCURVE",
"278 -51 CURVE SMOOTH",
"238 -51 OFFCURVE",
"207 -81 OFFCURVE",
"200 -118 CURVE SMOOTH",
"192 -156 OFFCURVE",
"210 -185 OFFCURVE",
"251 -185 CURVE SMOOTH"
);
}
);
width = 646;
}
);
note = Ldotbelow;
rightKerningGroup = L;
unicode = 1E36;
},
{
glyphname = Ldotbelowmacron;
lastChange = "2015-10-27 15:00:59 +0000";
layers = (
{
layerId = "8296656B-A453-444F-9AE7-A28FFBBB6660";
name = "Bold Italic";
paths = (
{
closed = 1;
nodes = (
"555 0 LINE",
"611 185 LINE",
"575 185 LINE",
"552 164 OFFCURVE",
"506 92 OFFCURVE",
"495 54 CURVE",
"252 54 LINE",
"375 656 LINE",
"401 662 OFFCURVE",
"430 670 OFFCURVE",
"456 677 CURVE",
"461 700 LINE",
"137 700 LINE",
"133 680 LINE",
"158 670 OFFCURVE",
"182 662 OFFCURVE",
"204 657 CURVE",
"79 42 LINE",
"55 38 OFFCURVE",
"21 30 OFFCURVE",
"-9 20 CURVE",
"-12 0 LINE"
);
},
{
closed = 1;
nodes = (
"290 -185 OFFCURVE",
"321 -156 OFFCURVE",
"328 -118 CURVE SMOOTH",
"336 -81 OFFCURVE",
"318 -51 OFFCURVE",
"278 -51 CURVE SMOOTH",
"238 -51 OFFCURVE",
"207 -81 OFFCURVE",
"200 -118 CURVE SMOOTH",
"192 -156 OFFCURVE",
"210 -185 OFFCURVE",
"251 -185 CURVE SMOOTH"
);
},
{
closed = 1;
nodes = (
"510 785 LINE",
"520 837 LINE",
"128 837 LINE",
"117 785 LINE"
);
}
);
width = 646;
}
);
note = Ldotbelowmacron;
rightKerningGroup = L;
unicode = 1E38;
},
{
glyphname = Llinebelow;
lastChange = "2015-10-27 15:00:58 +0000";
layers = (
{
layerId = "8296656B-A453-444F-9AE7-A28FFBBB6660";
name = "Bold Italic";
paths = (
{
closed = 1;
nodes = (
"555 0 LINE",
"611 185 LINE",
"575 185 LINE",
"552 164 OFFCURVE",
"506 92 OFFCURVE",
"495 54 CURVE",
"252 54 LINE",
"375 656 LINE",
"401 662 OFFCURVE",
"430 670 OFFCURVE",
"456 677 CURVE",
"461 700 LINE",
"137 700 LINE",
"133 680 LINE",
"158 670 OFFCURVE",
"182 662 OFFCURVE",
"204 657 CURVE",
"79 42 LINE",
"55 38 OFFCURVE",
"21 30 OFFCURVE",
"-9 20 CURVE",
"-12 0 LINE"
);
},
{
closed = 1;
nodes = (
"453 -111 LINE",
"464 -58 LINE",
"72 -58 LINE",
"61 -111 LINE"
);
}
);
width = 646;
}
);
note = Llinebelow;
rightKerningGroup = L;
unicode = 1E3A;
},
{
glyphname = Lslash;
lastChange = "2015-10-27 15:00:58 +0000";
layers = (
{
layerId = "8296656B-A453-444F-9AE7-A28FFBBB6660";
name = "Bold Italic";
paths = (
{
closed = 1;
nodes = (
"555 0 LINE",
"611 185 LINE",
"575 185 LINE",
"552 164 OFFCURVE",
"506 92 OFFCURVE",
"495 54 CURVE",
"252 54 LINE",
"375 656 LINE",
"401 662 OFFCURVE",
"430 670 OFFCURVE",
"456 677 CURVE",
"461 700 LINE",
"137 700 LINE",
"133 680 LINE",
"158 670 OFFCURVE",
"182 662 OFFCURVE",
"204 657 CURVE",
"79 42 LINE",
"55 38 OFFCURVE",
"21 30 OFFCURVE",
"-9 20 CURVE",
"-12 0 LINE"
);
},
{
closed = 1;
nodes = (
"504 375 LINE",
"519 450 LINE",
"59 290 LINE",
"43 216 LINE"
);
}
);
width = 646;
}
);
note = Lslash;
rightKerningGroup = L;
unicode = 0141;
},
{
glyphname = M;
lastChange = "2015-10-27 15:00:58 +0000";
layers = (
{
layerId = "8296656B-A453-444F-9AE7-A28FFBBB6660";
name = "Bold Italic";
paths = (
{
closed = 1;
nodes = (
"204 0 LINE",
"208 19 LINE",
"181 28 OFFCURVE",
"159 35 OFFCURVE",
"136 41 CURVE",
"247 579 LINE",
"343 75 LINE",
"443 75 LINE",
"747 565 LINE",
"639 41 LINE",
"614 35 OFFCURVE",
"589 28 OFFCURVE",
"561 19 CURVE",
"557 0 LINE",
"878 0 LINE",
"882 19 LINE",
"855 28 OFFCURVE",
"832 35 OFFCURVE",
"810 41 CURVE",
"936 655 LINE",
"963 663 OFFCURVE",
"992 672 OFFCURVE",
"1017 680 CURVE",
"1020 700 LINE",
"768 700 LINE",
"464 206 LINE",
"381 700 LINE",
"130 700 LINE",
"126 680 LINE",
"151 670 OFFCURVE",
"176 662 OFFCURVE",
"197 657 CURVE",
"71 41 LINE",
"47 35 OFFCURVE",
"21 28 OFFCURVE",
"-8 19 CURVE",
"-12 0 LINE"
);
}
);
width = 943;
}
);
note = M;
unicode = 004D;
},
{
glyphname = Mdotbelow;
lastChange = "2015-10-27 15:00:58 +0000";
layers = (
{
layerId = "8296656B-A453-444F-9AE7-A28FFBBB6660";
name = "Bold Italic";
paths = (
{
closed = 1;
nodes = (
"204 0 LINE",
"208 19 LINE",
"181 28 OFFCURVE",
"159 35 OFFCURVE",
"136 41 CURVE",
"247 579 LINE",
"343 75 LINE",
"443 75 LINE",
"747 565 LINE",
"639 41 LINE",
"614 35 OFFCURVE",
"589 28 OFFCURVE",
"561 19 CURVE",
"557 0 LINE",
"878 0 LINE",
"882 19 LINE",
"855 28 OFFCURVE",
"832 35 OFFCURVE",
"810 41 CURVE",
"936 655 LINE",
"963 663 OFFCURVE",
"992 672 OFFCURVE",
"1017 680 CURVE",
"1020 700 LINE",
"768 700 LINE",
"464 206 LINE",
"381 700 LINE",
"130 700 LINE",
"126 680 LINE",
"151 670 OFFCURVE",
"176 662 OFFCURVE",
"197 657 CURVE",
"71 41 LINE",
"47 35 OFFCURVE",
"21 28 OFFCURVE",
"-8 19 CURVE",
"-12 0 LINE"
);
},
{
closed = 1;
nodes = (
"434 -187 OFFCURVE",
"465 -157 OFFCURVE",
"472 -120 CURVE SMOOTH",
"480 -82 OFFCURVE",
"461 -52 OFFCURVE",
"420 -52 CURVE SMOOTH",
"381 -52 OFFCURVE",
"351 -82 OFFCURVE",
"344 -120 CURVE SMOOTH",
"336 -157 OFFCURVE",
"354 -187 OFFCURVE",
"394 -187 CURVE SMOOTH"
);
}
);
width = 943;
}
);
note = Mdotbelow;
unicode = 1E42;
},
{
glyphname = N;
lastChange = "2015-10-27 15:00:58 +0000";
layers = (
{
layerId = "8296656B-A453-444F-9AE7-A28FFBBB6660";
name = "Bold Italic";
paths = (
{
closed = 1;
nodes = (
"204 0 LINE",
"208 19 LINE",
"181 28 OFFCURVE",
"159 35 OFFCURVE",
"136 41 CURVE",
"252 611 LINE",
"533 0 LINE",
"617 0 LINE",
"751 658 LINE",
"777 664 OFFCURVE",
"801 671 OFFCURVE",
"831 680 CURVE",
"835 700 LINE",
"618 700 LINE",
"614 680 LINE",
"641 671 OFFCURVE",
"663 664 OFFCURVE",
"685 658 CURVE",
"595 213 LINE",
"374 700 LINE",
"130 700 LINE",
"126 680 LINE",
"151 670 OFFCURVE",
"175 662 OFFCURVE",
"197 657 CURVE",
"71 41 LINE",
"47 35 OFFCURVE",
"21 28 OFFCURVE",
"-8 19 CURVE",
"-12 0 LINE"
);
}
);
width = 757;
}
);
note = N;
unicode = 004E;
},
{
glyphname = Nacute;
lastChange = "2015-10-27 15:00:59 +0000";
layers = (
{
layerId = "8296656B-A453-444F-9AE7-A28FFBBB6660";
name = "Bold Italic";
paths = (
{
closed = 1;
nodes = (
"204 0 LINE",
"208 19 LINE",
"181 28 OFFCURVE",
"159 35 OFFCURVE",
"136 41 CURVE",
"252 611 LINE",
"533 0 LINE",
"617 0 LINE",
"751 658 LINE",
"777 664 OFFCURVE",
"801 671 OFFCURVE",
"831 680 CURVE",
"835 700 LINE",
"618 700 LINE",
"614 680 LINE",
"641 671 OFFCURVE",
"663 664 OFFCURVE",
"685 658 CURVE",
"595 213 LINE",
"374 700 LINE",
"130 700 LINE",
"126 680 LINE",
"151 670 OFFCURVE",
"175 662 OFFCURVE",
"197 657 CURVE",
"71 41 LINE",
"47 35 OFFCURVE",
"21 28 OFFCURVE",
"-8 19 CURVE",
"-12 0 LINE"
);
},
{
closed = 1;
nodes = (
"628 882 LINE SMOOTH",
"666 903 OFFCURVE",
"688 923 OFFCURVE",
"693 950 CURVE",
"698 970 OFFCURVE",
"688 996 OFFCURVE",
"652 996 CURVE SMOOTH",
"619 996 OFFCURVE",
"583 964 OFFCURVE",
"576 958 CURVE SMOOTH",
"430 825 LINE",
"449 786 LINE"
);
}
);
width = 757;
}
);
note = Nacute;
unicode = 0143;
},
{
glyphname = Ncaron;
lastChange = "2015-10-27 15:00:58 +0000";
layers = (
{
layerId = "8296656B-A453-444F-9AE7-A28FFBBB6660";
name = "Bold Italic";
paths = (
{
closed = 1;
nodes = (
"204 0 LINE",
"208 19 LINE",
"181 28 OFFCURVE",
"159 35 OFFCURVE",
"136 41 CURVE",
"252 611 LINE",
"533 0 LINE",
"617 0 LINE",
"751 658 LINE",
"777 664 OFFCURVE",
"801 671 OFFCURVE",
"831 680 CURVE",
"835 700 LINE",
"618 700 LINE",
"614 680 LINE",
"641 671 OFFCURVE",
"663 664 OFFCURVE",
"685 658 CURVE",
"595 213 LINE",
"374 700 LINE",
"130 700 LINE",
"126 680 LINE",
"151 670 OFFCURVE",
"175 662 OFFCURVE",
"197 657 CURVE",
"71 41 LINE",
"47 35 OFFCURVE",
"21 28 OFFCURVE",
"-8 19 CURVE",
"-12 0 LINE"
);
},
{
closed = 1;
nodes = (
"538 786 LINE",
"565 820 OFFCURVE",
"674 906 OFFCURVE",
"724 935 CURVE",
"666 985 LINE",
"618 952 OFFCURVE",
"542 887 OFFCURVE",
"513 850 CURVE",
"509 850 LINE",
"495 887 OFFCURVE",
"445 952 OFFCURVE",
"411 985 CURVE",
"333 935 LINE",
"372 906 OFFCURVE",
"444 820 OFFCURVE",
"459 786 CURVE"
);
}
);
width = 757;
}
);
note = Ncaron;
unicode = 0147;
},
{
glyphname = Ncommaaccent;
lastChange = "2015-10-27 15:00:59 +0000";
layers = (
{
layerId = "8296656B-A453-444F-9AE7-A28FFBBB6660";
name = "Bold Italic";
paths = (
{
closed = 1;
nodes = (
"204 0 LINE",
"208 19 LINE",
"181 28 OFFCURVE",
"159 35 OFFCURVE",
"136 41 CURVE",
"252 611 LINE",
"533 0 LINE",
"617 0 LINE",
"751 658 LINE",
"777 664 OFFCURVE",
"801 671 OFFCURVE",
"831 680 CURVE",
"835 700 LINE",
"618 700 LINE",
"614 680 LINE",
"641 671 OFFCURVE",
"663 664 OFFCURVE",
"685 658 CURVE",
"595 213 LINE",
"374 700 LINE",
"130 700 LINE",
"126 680 LINE",
"151 670 OFFCURVE",
"175 662 OFFCURVE",
"197 657 CURVE",
"71 41 LINE",
"47 35 OFFCURVE",
"21 28 OFFCURVE",
"-8 19 CURVE",
"-12 0 LINE"
);
},
{
closed = 1;
nodes = (
"315 -338 OFFCURVE",
"377 -250 OFFCURVE",
"395 -167 CURVE SMOOTH",
"403 -124 OFFCURVE",
"385 -85 OFFCURVE",
"329 -85 CURVE SMOOTH",
"289 -85 OFFCURVE",
"247 -113 OFFCURVE",
"238 -158 CURVE SMOOTH",
"229 -199 OFFCURVE",
"255 -231 OFFCURVE",
"296 -234 CURVE",
"278 -279 OFFCURVE",
"231 -325 OFFCURVE",
"203 -350 CURVE",
"246 -390 LINE"
);
}
);
width = 757;
}
);
note = Ncommaaccent;
unicode = 0145;
},
{
glyphname = Ndotaccent;
lastChange = "2015-10-27 15:00:58 +0000";
layers = (
{
layerId = "8296656B-A453-444F-9AE7-A28FFBBB6660";
name = "Bold Italic";
paths = (
{
closed = 1;
nodes = (
"204 0 LINE",
"208 19 LINE",
"181 28 OFFCURVE",
"159 35 OFFCURVE",
"136 41 CURVE",
"252 611 LINE",
"533 0 LINE",
"617 0 LINE",
"751 658 LINE",
"777 664 OFFCURVE",
"801 671 OFFCURVE",
"831 680 CURVE",
"835 700 LINE",
"618 700 LINE",
"614 680 LINE",
"641 671 OFFCURVE",
"663 664 OFFCURVE",
"685 658 CURVE",
"595 213 LINE",
"374 700 LINE",
"130 700 LINE",
"126 680 LINE",
"151 670 OFFCURVE",
"175 662 OFFCURVE",
"197 657 CURVE",
"71 41 LINE",
"47 35 OFFCURVE",
"21 28 OFFCURVE",
"-8 19 CURVE",
"-12 0 LINE"
);
},
{
closed = 1;
nodes = (
"538 785 OFFCURVE",
"569 815 OFFCURVE",
"577 852 CURVE SMOOTH",
"585 890 OFFCURVE",
"565 920 OFFCURVE",
"526 920 CURVE SMOOTH",
"486 920 OFFCURVE",
"456 890 OFFCURVE",
"448 852 CURVE SMOOTH",
"441 815 OFFCURVE",
"458 785 OFFCURVE",
"498 785 CURVE SMOOTH"
);
}
);
width = 757;
}
);
note = Ndotaccent;
unicode = 1E44;
},
{
glyphname = Ndotbelow;
lastChange = "2015-10-27 15:00:58 +0000";
layers = (
{
layerId = "8296656B-A453-444F-9AE7-A28FFBBB6660";
name = "Bold Italic";
paths = (
{
closed = 1;
nodes = (
"204 0 LINE",
"208 19 LINE",
"181 28 OFFCURVE",
"159 35 OFFCURVE",
"136 41 CURVE",
"252 611 LINE",
"533 0 LINE",
"617 0 LINE",
"751 658 LINE",
"777 664 OFFCURVE",
"801 671 OFFCURVE",
"831 680 CURVE",
"835 700 LINE",
"618 700 LINE",
"614 680 LINE",
"641 671 OFFCURVE",
"663 664 OFFCURVE",
"685 658 CURVE",
"595 213 LINE",
"374 700 LINE",
"130 700 LINE",
"126 680 LINE",
"151 670 OFFCURVE",
"175 662 OFFCURVE",
"197 657 CURVE",
"71 41 LINE",
"47 35 OFFCURVE",
"21 28 OFFCURVE",
"-8 19 CURVE",
"-12 0 LINE"
);
},
{
closed = 1;
nodes = (
"340 -187 OFFCURVE",
"371 -157 OFFCURVE",
"378 -120 CURVE SMOOTH",
"386 -82 OFFCURVE",
"367 -52 OFFCURVE",
"326 -52 CURVE SMOOTH",
"287 -52 OFFCURVE",
"257 -82 OFFCURVE",
"250 -120 CURVE SMOOTH",
"242 -157 OFFCURVE",
"260 -187 OFFCURVE",
"300 -187 CURVE SMOOTH"
);
}
);
width = 757;
}
);
note = uni1E46;
unicode = 1E46;
},
{
glyphname = Eng;
lastChange = "2015-10-27 15:00:58 +0000";
layers = (
{
layerId = "8296656B-A453-444F-9AE7-A28FFBBB6660";
name = "Bold Italic";
paths = (
{
closed = 1;
nodes = (
"499 -250 OFFCURVE",
"574 -209 OFFCURVE",
"596 -102 CURVE SMOOTH",
"751 658 LINE",
"777 664 OFFCURVE",
"801 671 OFFCURVE",
"831 680 CURVE",
"835 700 LINE",
"618 700 LINE",
"614 680 LINE",
"641 671 OFFCURVE",
"663 664 OFFCURVE",
"685 658 CURVE",
"595 213 LINE",
"374 700 LINE",
"130 700 LINE",
"126 680 LINE",
"151 670 OFFCURVE",
"175 662 OFFCURVE",
"197 657 CURVE",
"71 41 LINE",
"47 35 OFFCURVE",
"21 28 OFFCURVE",
"-8 19 CURVE",
"-12 0 LINE",
"204 0 LINE",
"208 19 LINE",
"181 28 OFFCURVE",
"159 35 OFFCURVE",
"136 41 CURVE",
"252 611 LINE",
"552 -2 LINE",
"531 -106 LINE SMOOTH",
"517 -170 OFFCURVE",
"457 -193 OFFCURVE",
"400 -193 CURVE SMOOTH",
"369 -193 OFFCURVE",
"341 -188 OFFCURVE",
"320 -180 CURVE",
"302 -225 LINE",
"336 -240 OFFCURVE",
"375 -250 OFFCURVE",
"416 -250 CURVE SMOOTH"
);
}
);
width = 757;
}
);
note = Eng;
unicode = 014A;
},
{
glyphname = Nlinebelow;
lastChange = "2015-10-27 15:00:58 +0000";
layers = (
{
layerId = "8296656B-A453-444F-9AE7-A28FFBBB6660";
name = "Bold Italic";
paths = (
{
closed = 1;
nodes = (
"204 0 LINE",
"208 19 LINE",
"181 28 OFFCURVE",
"159 35 OFFCURVE",
"136 41 CURVE",
"252 611 LINE",
"533 0 LINE",
"617 0 LINE",
"751 658 LINE",
"777 664 OFFCURVE",
"801 671 OFFCURVE",
"831 680 CURVE",
"835 700 LINE",
"618 700 LINE",
"614 680 LINE",
"641 671 OFFCURVE",
"663 664 OFFCURVE",
"685 658 CURVE",
"595 213 LINE",
"374 700 LINE",
"130 700 LINE",
"126 680 LINE",
"151 670 OFFCURVE",
"175 662 OFFCURVE",
"197 657 CURVE",
"71 41 LINE",
"47 35 OFFCURVE",
"21 28 OFFCURVE",
"-8 19 CURVE",
"-12 0 LINE"
);
},
{
closed = 1;
nodes = (
"514 -111 LINE",
"524 -58 LINE",
"132 -58 LINE",
"122 -111 LINE"
);
}
);
width = 757;
}
);
note = Nlinebelow;
unicode = 1E48;
},
{
glyphname = Ntilde;
lastChange = "2015-10-27 15:00:58 +0000";
layers = (
{
layerId = "8296656B-A453-444F-9AE7-A28FFBBB6660";
name = "Bold Italic";
paths = (
{
closed = 1;
nodes = (
"204 0 LINE",
"208 19 LINE",
"181 28 OFFCURVE",
"159 35 OFFCURVE",
"136 41 CURVE",
"252 611 LINE",
"533 0 LINE",
"617 0 LINE",
"751 658 LINE",
"777 664 OFFCURVE",
"801 671 OFFCURVE",
"831 680 CURVE",
"835 700 LINE",
"618 700 LINE",
"614 680 LINE",
"641 671 OFFCURVE",
"663 664 OFFCURVE",
"685 658 CURVE",
"595 213 LINE",
"374 700 LINE",
"130 700 LINE",
"126 680 LINE",
"151 670 OFFCURVE",
"175 662 OFFCURVE",
"197 657 CURVE",
"71 41 LINE",
"47 35 OFFCURVE",
"21 28 OFFCURVE",
"-8 19 CURVE",
"-12 0 LINE"
);
},
{
closed = 1;
nodes = (
"382 786 LINE",
"394 817 OFFCURVE",
"416 837 OFFCURVE",
"444 837 CURVE SMOOTH",
"477 837 OFFCURVE",
"530 786 OFFCURVE",
"588 786 CURVE SMOOTH",
"669 786 OFFCURVE",
"714 836 OFFCURVE",
"736 910 CURVE",
"661 910 LINE",
"641 863 OFFCURVE",
"618 857 OFFCURVE",
"595 857 CURVE SMOOTH",
"556 857 OFFCURVE",
"529 908 OFFCURVE",
"455 908 CURVE SMOOTH",
"385 908 OFFCURVE",
"333 866 OFFCURVE",
"305 786 CURVE"
);
}
);
width = 757;
}
);
note = Ntilde;
unicode = 00D1;
},
{
glyphname = O;
lastChange = "2015-10-27 15:00:59 +0000";
layers = (
{
layerId = "8296656B-A453-444F-9AE7-A28FFBBB6660";
name = "Bold Italic";
paths = (
{
closed = 1;
nodes = (
"557 -10 OFFCURVE",
"707 127 OFFCURVE",
"753 350 CURVE SMOOTH",
"798 572 OFFCURVE",
"704 710 OFFCURVE",
"482 710 CURVE SMOOTH",
"257 710 OFFCURVE",
"109 572 OFFCURVE",
"64 350 CURVE SMOOTH",
"18 127 OFFCURVE",
"110 -10 OFFCURVE",
"335 -10 CURVE SMOOTH"
);
},
{
closed = 1;
nodes = (
"228 47 OFFCURVE",
"202 174 OFFCURVE",
"238 350 CURVE SMOOTH",
"274 525 OFFCURVE",
"352 653 OFFCURVE",
"470 653 CURVE SMOOTH",
"587 653 OFFCURVE",
"614 525 OFFCURVE",
"579 350 CURVE SMOOTH",
"542 174 OFFCURVE",
"463 47 OFFCURVE",
"347 47 CURVE SMOOTH"
);
}
);
width = 752;
}
);
leftKerningGroup = O;
note = O;
rightKerningGroup = O;
unicode = 004F;
},
{
glyphname = Oacute;
lastChange = "2015-10-27 15:00:59 +0000";
layers = (
{
layerId = "8296656B-A453-444F-9AE7-A28FFBBB6660";
name = "Bold Italic";
paths = (
{
closed = 1;
nodes = (
"557 -10 OFFCURVE",
"707 127 OFFCURVE",
"753 350 CURVE SMOOTH",
"798 572 OFFCURVE",
"704 710 OFFCURVE",
"482 710 CURVE SMOOTH",
"257 710 OFFCURVE",
"109 572 OFFCURVE",
"64 350 CURVE SMOOTH",
"18 127 OFFCURVE",
"110 -10 OFFCURVE",
"335 -10 CURVE SMOOTH"
);
},
{
closed = 1;
nodes = (
"228 47 OFFCURVE",
"202 174 OFFCURVE",
"238 350 CURVE SMOOTH",
"274 525 OFFCURVE",
"352 653 OFFCURVE",
"470 653 CURVE SMOOTH",
"587 653 OFFCURVE",
"614 525 OFFCURVE",
"579 350 CURVE SMOOTH",
"542 174 OFFCURVE",
"463 47 OFFCURVE",
"347 47 CURVE SMOOTH"
);
},
{
closed = 1;
nodes = (
"591 882 LINE SMOOTH",
"630 903 OFFCURVE",
"652 923 OFFCURVE",
"657 950 CURVE",
"661 970 OFFCURVE",
"652 996 OFFCURVE",
"615 996 CURVE SMOOTH",
"583 996 OFFCURVE",
"546 964 OFFCURVE",
"540 958 CURVE SMOOTH",
"394 825 LINE",
"413 786 LINE"
);
}
);
width = 752;
}
);
leftKerningGroup = O;
note = Oacute;
rightKerningGroup = O;
unicode = 00D3;
},
{
glyphname = Obreve;
lastChange = "2015-10-27 15:00:59 +0000";
layers = (
{
layerId = "8296656B-A453-444F-9AE7-A28FFBBB6660";
name = "Bold Italic";
paths = (
{
closed = 1;
nodes = (
"557 -10 OFFCURVE",
"707 127 OFFCURVE",
"753 350 CURVE SMOOTH",
"798 572 OFFCURVE",
"704 710 OFFCURVE",
"482 710 CURVE SMOOTH",
"257 710 OFFCURVE",
"109 572 OFFCURVE",
"64 350 CURVE SMOOTH",
"18 127 OFFCURVE",
"110 -10 OFFCURVE",
"335 -10 CURVE SMOOTH"
);
},
{
closed = 1;
nodes = (
"228 47 OFFCURVE",
"202 174 OFFCURVE",
"238 350 CURVE SMOOTH",
"274 525 OFFCURVE",
"352 653 OFFCURVE",
"470 653 CURVE SMOOTH",
"587 653 OFFCURVE",
"614 525 OFFCURVE",
"579 350 CURVE SMOOTH",
"542 174 OFFCURVE",
"463 47 OFFCURVE",
"347 47 CURVE SMOOTH"
);
},
{
closed = 1;
nodes = (
"593 783 OFFCURVE",
"671 827 OFFCURVE",
"705 920 CURVE",
"612 920 LINE",
"591 848 OFFCURVE",
"546 839 OFFCURVE",
"507 839 CURVE SMOOTH",
"468 839 OFFCURVE",
"425 848 OFFCURVE",
"433 920 CURVE",
"342 920 LINE",
"340 827 OFFCURVE",
"396 783 OFFCURVE",
"495 783 CURVE SMOOTH"
);
}
);
width = 752;
}
);
leftKerningGroup = O;
note = Obreve;
rightKerningGroup = O;
unicode = 014E;
},
{
glyphname = Ocaron;
lastChange = "2015-10-27 15:00:58 +0000";
layers = (
{
layerId = "8296656B-A453-444F-9AE7-A28FFBBB6660";
name = "Bold Italic";
paths = (
{
closed = 1;
nodes = (
"557 -10 OFFCURVE",
"707 127 OFFCURVE",
"753 350 CURVE SMOOTH",
"798 572 OFFCURVE",
"704 710 OFFCURVE",
"482 710 CURVE SMOOTH",
"257 710 OFFCURVE",
"109 572 OFFCURVE",
"64 350 CURVE SMOOTH",
"18 127 OFFCURVE",
"110 -10 OFFCURVE",
"335 -10 CURVE SMOOTH"
);
},
{
closed = 1;
nodes = (
"228 47 OFFCURVE",
"202 174 OFFCURVE",
"238 350 CURVE SMOOTH",
"274 525 OFFCURVE",
"352 653 OFFCURVE",
"470 653 CURVE SMOOTH",
"587 653 OFFCURVE",
"614 525 OFFCURVE",
"579 350 CURVE SMOOTH",
"542 174 OFFCURVE",
"463 47 OFFCURVE",
"347 47 CURVE SMOOTH"
);
},
{
closed = 1;
nodes = (
"536 786 LINE",
"564 820 OFFCURVE",
"672 906 OFFCURVE",
"722 935 CURVE",
"664 985 LINE",
"616 952 OFFCURVE",
"540 887 OFFCURVE",
"511 850 CURVE",
"507 850 LINE",
"493 887 OFFCURVE",
"444 952 OFFCURVE",
"409 985 CURVE",
"331 935 LINE",
"370 906 OFFCURVE",
"443 820 OFFCURVE",
"457 786 CURVE"
);
}
);
width = 752;
}
);
leftKerningGroup = O;
note = Ocaron;
rightKerningGroup = O;
unicode = 01D1;
},
{
glyphname = Ocircumflex;
lastChange = "2015-10-27 15:00:59 +0000";
layers = (
{
layerId = "8296656B-A453-444F-9AE7-A28FFBBB6660";
name = "Bold Italic";
paths = (
{
closed = 1;
nodes = (
"557 -10 OFFCURVE",
"707 127 OFFCURVE",
"753 350 CURVE SMOOTH",
"798 572 OFFCURVE",
"704 710 OFFCURVE",
"482 710 CURVE SMOOTH",
"257 710 OFFCURVE",
"109 572 OFFCURVE",
"64 350 CURVE SMOOTH",
"18 127 OFFCURVE",
"110 -10 OFFCURVE",
"335 -10 CURVE SMOOTH"
);
},
{
closed = 1;
nodes = (
"228 47 OFFCURVE",
"202 174 OFFCURVE",
"238 350 CURVE SMOOTH",
"274 525 OFFCURVE",
"352 653 OFFCURVE",
"470 653 CURVE SMOOTH",
"587 653 OFFCURVE",
"614 525 OFFCURVE",
"579 350 CURVE SMOOTH",
"542 174 OFFCURVE",
"463 47 OFFCURVE",
"347 47 CURVE SMOOTH"
);
},
{
closed = 1;
nodes = (
"416 818 OFFCURVE",
"492 883 OFFCURVE",
"521 920 CURVE",
"525 920 LINE",
"540 883 OFFCURVE",
"588 818 OFFCURVE",
"623 784 CURVE",
"702 835 LINE",
"663 863 OFFCURVE",
"589 950 OFFCURVE",
"576 984 CURVE",
"497 984 LINE",
"468 950 OFFCURVE",
"361 863 OFFCURVE",
"311 835 CURVE",
"369 784 LINE"
);
}
);
width = 752;
}
);
leftKerningGroup = O;
note = Ocircumflex;
rightKerningGroup = O;
unicode = 00D4;
},
{
glyphname = Ocircumflexacute;
lastChange = "2015-10-27 15:00:59 +0000";
layers = (
{
layerId = "8296656B-A453-444F-9AE7-A28FFBBB6660";
name = "Bold Italic";
paths = (
{
closed = 1;
nodes = (
"557 -10 OFFCURVE",
"707 127 OFFCURVE",
"753 350 CURVE SMOOTH",
"798 572 OFFCURVE",
"704 710 OFFCURVE",
"482 710 CURVE SMOOTH",
"257 710 OFFCURVE",
"109 572 OFFCURVE",
"64 350 CURVE SMOOTH",
"18 127 OFFCURVE",
"110 -10 OFFCURVE",
"335 -10 CURVE SMOOTH"
);
},
{
closed = 1;
nodes = (
"228 47 OFFCURVE",
"202 174 OFFCURVE",
"238 350 CURVE SMOOTH",
"274 525 OFFCURVE",
"352 653 OFFCURVE",
"470 653 CURVE SMOOTH",
"587 653 OFFCURVE",
"614 525 OFFCURVE",
"579 350 CURVE SMOOTH",
"542 174 OFFCURVE",
"463 47 OFFCURVE",
"347 47 CURVE SMOOTH"
);
},
{
closed = 1;
nodes = (
"416 818 OFFCURVE",
"492 883 OFFCURVE",
"522 920 CURVE",
"522 920 OFFCURVE",
"525 920 OFFCURVE",
"525 920 CURVE",
"540 883 OFFCURVE",
"589 818 OFFCURVE",
"623 784 CURVE",
"701 835 LINE",
"663 863 OFFCURVE",
"590 950 OFFCURVE",
"576 984 CURVE",
"498 984 LINE",
"468 950 OFFCURVE",
"360 863 OFFCURVE",
"311 835 CURVE",
"369 784 LINE"
);
},
{
closed = 1;
nodes = (
"788 985 LINE SMOOTH",
"831 1005 OFFCURVE",
"858 1022 OFFCURVE",
"863 1048 CURVE",
"870 1078 OFFCURVE",
"850 1097 OFFCURVE",
"820 1097 CURVE SMOOTH",
"790 1097 OFFCURVE",
"763 1077 OFFCURVE",
"743 1057 CURVE SMOOTH",
"650 964 LINE",
"669 929 LINE"
);
}
);
width = 752;
}
);
leftKerningGroup = O;
note = Ocircumflexacute;
rightKerningGroup = O;
unicode = 1ED0;
},
{
glyphname = Ocircumflexdotbelow;
lastChange = "2015-10-27 15:00:59 +0000";
layers = (
{
layerId = "8296656B-A453-444F-9AE7-A28FFBBB6660";
name = "Bold Italic";
paths = (
{
closed = 1;
nodes = (
"557 -10 OFFCURVE",
"707 127 OFFCURVE",
"753 350 CURVE SMOOTH",
"798 572 OFFCURVE",
"704 710 OFFCURVE",
"482 710 CURVE SMOOTH",
"257 710 OFFCURVE",
"109 572 OFFCURVE",
"64 350 CURVE SMOOTH",
"18 127 OFFCURVE",
"110 -10 OFFCURVE",
"335 -10 CURVE SMOOTH"
);
},
{
closed = 1;
nodes = (
"339 -187 OFFCURVE",
"370 -157 OFFCURVE",
"377 -120 CURVE SMOOTH",
"385 -82 OFFCURVE",
"366 -52 OFFCURVE",
"325 -52 CURVE SMOOTH",
"286 -52 OFFCURVE",
"256 -82 OFFCURVE",
"249 -120 CURVE SMOOTH",
"241 -157 OFFCURVE",
"259 -187 OFFCURVE",
"299 -187 CURVE SMOOTH"
);
},
{
closed = 1;
nodes = (
"228 47 OFFCURVE",
"202 174 OFFCURVE",
"238 350 CURVE SMOOTH",
"274 525 OFFCURVE",
"352 653 OFFCURVE",
"470 653 CURVE SMOOTH",
"587 653 OFFCURVE",
"614 525 OFFCURVE",
"579 350 CURVE SMOOTH",
"542 174 OFFCURVE",
"463 47 OFFCURVE",
"347 47 CURVE SMOOTH"
);
},
{
closed = 1;
nodes = (
"415 818 OFFCURVE",
"492 883 OFFCURVE",
"520 920 CURVE",
"524 920 LINE",
"539 883 OFFCURVE",
"588 818 OFFCURVE",
"622 784 CURVE",
"701 835 LINE",
"662 863 OFFCURVE",
"588 950 OFFCURVE",
"575 984 CURVE",
"496 984 LINE",
"468 950 OFFCURVE",
"360 863 OFFCURVE",
"310 835 CURVE",
"368 784 LINE"
);
}
);
width = 752;
}
);
leftKerningGroup = O;
note = Ocircumflexdotbelow;
rightKerningGroup = O;
unicode = 1ED8;
},
{
glyphname = Ocircumflexgrave;
lastChange = "2015-10-27 15:00:59 +0000";
layers = (
{
layerId = "8296656B-A453-444F-9AE7-A28FFBBB6660";
name = "Bold Italic";
paths = (
{
closed = 1;
nodes = (
"557 -10 OFFCURVE",
"707 127 OFFCURVE",
"753 350 CURVE SMOOTH",
"798 572 OFFCURVE",
"704 710 OFFCURVE",
"482 710 CURVE SMOOTH",
"257 710 OFFCURVE",
"109 572 OFFCURVE",
"64 350 CURVE SMOOTH",
"18 127 OFFCURVE",
"110 -10 OFFCURVE",
"335 -10 CURVE SMOOTH"
);
},
{
closed = 1;
nodes = (
"228 47 OFFCURVE",
"202 174 OFFCURVE",
"238 350 CURVE SMOOTH",
"274 525 OFFCURVE",
"352 653 OFFCURVE",
"470 653 CURVE SMOOTH",
"587 653 OFFCURVE",
"614 525 OFFCURVE",
"579 350 CURVE SMOOTH",
"542 174 OFFCURVE",
"463 47 OFFCURVE",
"347 47 CURVE SMOOTH"
);
},
{
closed = 1;
nodes = (
"411 964 LINE",
"356 1057 LINE SMOOTH",
"344 1077 OFFCURVE",
"326 1097 OFFCURVE",
"297 1097 CURVE SMOOTH",
"267 1097 OFFCURVE",
"239 1078 OFFCURVE",
"232 1048 CURVE",
"228 1022 OFFCURVE",
"247 1005 OFFCURVE",
"282 985 CURVE SMOOTH",
"378 929 LINE"
);
},
{
closed = 1;
nodes = (
"416 818 OFFCURVE",
"492 883 OFFCURVE",
"522 920 CURVE",
"522 920 OFFCURVE",
"525 920 OFFCURVE",
"525 920 CURVE",
"540 883 OFFCURVE",
"589 818 OFFCURVE",
"623 784 CURVE",
"701 835 LINE",
"663 863 OFFCURVE",
"590 950 OFFCURVE",
"576 984 CURVE",
"498 984 LINE",
"468 950 OFFCURVE",
"360 863 OFFCURVE",
"311 835 CURVE",
"369 784 LINE"
);
}
);
width = 752;
}
);
leftKerningGroup = O;
note = Ocircumflexgrave;
rightKerningGroup = O;
unicode = 1ED2;
},
{
glyphname = Ocircumflexhookabove;
lastChange = "2015-10-27 15:00:59 +0000";
layers = (
{
layerId = "8296656B-A453-444F-9AE7-A28FFBBB6660";
name = "Bold Italic";
paths = (
{
closed = 1;
nodes = (
"557 -10 OFFCURVE",
"707 127 OFFCURVE",
"753 350 CURVE SMOOTH",
"798 572 OFFCURVE",
"704 710 OFFCURVE",
"482 710 CURVE SMOOTH",
"257 710 OFFCURVE",
"109 572 OFFCURVE",
"64 350 CURVE SMOOTH",
"18 127 OFFCURVE",
"110 -10 OFFCURVE",
"335 -10 CURVE SMOOTH"
);
},
{
closed = 1;
nodes = (
"228 47 OFFCURVE",
"202 174 OFFCURVE",
"238 350 CURVE SMOOTH",
"274 525 OFFCURVE",
"352 653 OFFCURVE",
"470 653 CURVE SMOOTH",
"587 653 OFFCURVE",
"614 525 OFFCURVE",
"579 350 CURVE SMOOTH",
"542 174 OFFCURVE",
"463 47 OFFCURVE",
"347 47 CURVE SMOOTH"
);
},
{
closed = 1;
nodes = (
"417 819 OFFCURVE",
"493 884 OFFCURVE",
"523 921 CURVE",
"523 921 OFFCURVE",
"526 921 OFFCURVE",
"526 921 CURVE",
"540 884 OFFCURVE",
"590 819 OFFCURVE",
"624 785 CURVE",
"702 836 LINE",
"664 864 OFFCURVE",
"591 951 OFFCURVE",
"577 985 CURVE",
"499 985 LINE",
"469 951 OFFCURVE",
"361 864 OFFCURVE",
"312 836 CURVE",
"370 785 LINE"
);
},
{
closed = 1;
nodes = (
"710 949 LINE",
"728 993 LINE",
"774 998 OFFCURVE",
"815 1015 OFFCURVE",
"827 1073 CURVE SMOOTH",
"840 1136 OFFCURVE",
"790 1159 OFFCURVE",
"736 1159 CURVE SMOOTH",
"708 1159 OFFCURVE",
"679 1152 OFFCURVE",
"659 1143 CURVE",
"657 1104 LINE",
"675 1113 OFFCURVE",
"697 1117 OFFCURVE",
"712 1117 CURVE SMOOTH",
"748 1117 OFFCURVE",
"761 1097 OFFCURVE",
"756 1074 CURVE SMOOTH",
"749 1038 OFFCURVE",
"720 1028 OFFCURVE",
"699 1028 CURVE SMOOTH",
"663 1028 LINE",
"651 949 LINE"
);
}
);
width = 752;
}
);
leftKerningGroup = O;
note = Ocircumflexhookabove;
rightKerningGroup = O;
unicode = 1ED4;
},
{
glyphname = Ocircumflextilde;
lastChange = "2015-10-27 15:00:58 +0000";
layers = (
{
layerId = "8296656B-A453-444F-9AE7-A28FFBBB6660";
name = "Bold Italic";
paths = (
{
closed = 1;
nodes = (
"557 -10 OFFCURVE",
"707 127 OFFCURVE",
"753 350 CURVE SMOOTH",
"798 572 OFFCURVE",
"704 710 OFFCURVE",
"482 710 CURVE SMOOTH",
"257 710 OFFCURVE",
"109 572 OFFCURVE",
"64 350 CURVE SMOOTH",
"18 127 OFFCURVE",
"110 -10 OFFCURVE",
"335 -10 CURVE SMOOTH"
);
},
{
closed = 1;
nodes = (
"228 47 OFFCURVE",
"202 174 OFFCURVE",
"238 350 CURVE SMOOTH",
"274 525 OFFCURVE",
"352 653 OFFCURVE",
"470 653 CURVE SMOOTH",
"587 653 OFFCURVE",
"614 525 OFFCURVE",
"579 350 CURVE SMOOTH",
"542 174 OFFCURVE",
"463 47 OFFCURVE",
"347 47 CURVE SMOOTH"
);
},
{
closed = 1;
nodes = (
"416 818 OFFCURVE",
"492 883 OFFCURVE",
"522 920 CURVE",
"522 920 OFFCURVE",
"525 920 OFFCURVE",
"525 920 CURVE",
"540 883 OFFCURVE",
"589 818 OFFCURVE",
"623 784 CURVE",
"701 835 LINE",
"663 863 OFFCURVE",
"590 950 OFFCURVE",
"576 984 CURVE",
"498 984 LINE",
"468 950 OFFCURVE",
"360 863 OFFCURVE",
"311 835 CURVE",
"369 784 LINE"
);
},
{
closed = 1;
nodes = (
"422 1022 LINE",
"434 1052 OFFCURVE",
"461 1072 OFFCURVE",
"492 1072 CURVE SMOOTH",
"539 1072 OFFCURVE",
"565 1022 OFFCURVE",
"623 1022 CURVE SMOOTH",
"699 1022 OFFCURVE",
"745 1070 OFFCURVE",
"766 1142 CURVE",
"711 1142 LINE",
"692 1096 OFFCURVE",
"655 1090 OFFCURVE",
"635 1090 CURVE SMOOTH",
"596 1090 OFFCURVE",
"583 1140 OFFCURVE",
"512 1140 CURVE SMOOTH",
"444 1140 OFFCURVE",
"393 1099 OFFCURVE",
"367 1022 CURVE"
);
}
);
width = 752;
}
);
leftKerningGroup = O;
note = Ocircumflextilde;
rightKerningGroup = O;
unicode = 1ED6;
},
{
glyphname = Odieresis;
lastChange = "2015-10-27 15:00:58 +0000";
layers = (
{
layerId = "8296656B-A453-444F-9AE7-A28FFBBB6660";
name = "Bold Italic";
paths = (
{
closed = 1;
nodes = (
"557 -10 OFFCURVE",
"707 127 OFFCURVE",
"753 350 CURVE SMOOTH",
"798 572 OFFCURVE",
"704 710 OFFCURVE",
"482 710 CURVE SMOOTH",
"257 710 OFFCURVE",
"109 572 OFFCURVE",
"64 350 CURVE SMOOTH",
"18 127 OFFCURVE",
"110 -10 OFFCURVE",
"335 -10 CURVE SMOOTH"
);
},
{
closed = 1;
nodes = (
"228 47 OFFCURVE",
"202 174 OFFCURVE",
"238 350 CURVE SMOOTH",
"274 525 OFFCURVE",
"352 653 OFFCURVE",
"470 653 CURVE SMOOTH",
"587 653 OFFCURVE",
"614 525 OFFCURVE",
"579 350 CURVE SMOOTH",
"542 174 OFFCURVE",
"463 47 OFFCURVE",
"347 47 CURVE SMOOTH"
);
},
{
closed = 1;
nodes = (
"416 785 OFFCURVE",
"447 815 OFFCURVE",
"455 852 CURVE SMOOTH",
"463 890 OFFCURVE",
"444 920 OFFCURVE",
"404 920 CURVE SMOOTH",
"366 920 OFFCURVE",
"335 890 OFFCURVE",
"327 852 CURVE SMOOTH",
"320 815 OFFCURVE",
"338 785 OFFCURVE",
"377 785 CURVE SMOOTH"
);
},
{
closed = 1;
nodes = (
"653 785 OFFCURVE",
"684 815 OFFCURVE",
"692 852 CURVE SMOOTH",
"700 890 OFFCURVE",
"681 920 OFFCURVE",
"640 920 CURVE SMOOTH",
"601 920 OFFCURVE",
"571 890 OFFCURVE",
"564 852 CURVE SMOOTH",
"556 815 OFFCURVE",
"573 785 OFFCURVE",
"612 785 CURVE SMOOTH"
);
}
);
width = 752;
}
);
leftKerningGroup = O;
note = Odieresis;
rightKerningGroup = O;
unicode = 00D6;
},
{
glyphname = Odotbelow;
lastChange = "2015-10-27 15:00:59 +0000";
layers = (
{
layerId = "8296656B-A453-444F-9AE7-A28FFBBB6660";
name = "Bold Italic";
paths = (
{
closed = 1;
nodes = (
"557 -10 OFFCURVE",
"707 127 OFFCURVE",
"753 350 CURVE SMOOTH",
"798 572 OFFCURVE",
"704 710 OFFCURVE",
"482 710 CURVE SMOOTH",
"257 710 OFFCURVE",
"109 572 OFFCURVE",
"64 350 CURVE SMOOTH",
"18 127 OFFCURVE",
"110 -10 OFFCURVE",
"335 -10 CURVE SMOOTH"
);
},
{
closed = 1;
nodes = (
"339 -187 OFFCURVE",
"370 -157 OFFCURVE",
"377 -120 CURVE SMOOTH",
"385 -82 OFFCURVE",
"366 -52 OFFCURVE",
"325 -52 CURVE SMOOTH",
"286 -52 OFFCURVE",
"256 -82 OFFCURVE",
"249 -120 CURVE SMOOTH",
"241 -157 OFFCURVE",
"259 -187 OFFCURVE",
"299 -187 CURVE SMOOTH"
);
},
{
closed = 1;
nodes = (
"228 47 OFFCURVE",
"202 174 OFFCURVE",
"238 350 CURVE SMOOTH",
"274 525 OFFCURVE",
"352 653 OFFCURVE",
"470 653 CURVE SMOOTH",
"587 653 OFFCURVE",
"614 525 OFFCURVE",
"579 350 CURVE SMOOTH",
"542 174 OFFCURVE",
"463 47 OFFCURVE",
"347 47 CURVE SMOOTH"
);
}
);
width = 752;
}
);
leftKerningGroup = O;
note = Odotbelow;
rightKerningGroup = O;
unicode = 1ECC;
},
{
glyphname = Ograve;
lastChange = "2015-10-27 15:00:59 +0000";
layers = (
{
layerId = "8296656B-A453-444F-9AE7-A28FFBBB6660";
name = "Bold Italic";
paths = (
{
closed = 1;
nodes = (
"557 -10 OFFCURVE",
"707 127 OFFCURVE",
"753 350 CURVE SMOOTH",
"798 572 OFFCURVE",
"704 710 OFFCURVE",
"482 710 CURVE SMOOTH",
"257 710 OFFCURVE",
"109 572 OFFCURVE",
"64 350 CURVE SMOOTH",
"18 127 OFFCURVE",
"110 -10 OFFCURVE",
"335 -10 CURVE SMOOTH"
);
},
{
closed = 1;
nodes = (
"228 47 OFFCURVE",
"202 174 OFFCURVE",
"238 350 CURVE SMOOTH",
"274 525 OFFCURVE",
"352 653 OFFCURVE",
"470 653 CURVE SMOOTH",
"587 653 OFFCURVE",
"614 525 OFFCURVE",
"579 350 CURVE SMOOTH",
"542 174 OFFCURVE",
"463 47 OFFCURVE",
"347 47 CURVE SMOOTH"
);
},
{
closed = 1;
nodes = (
"616 825 LINE",
"523 958 LINE",
"519 965 OFFCURVE",
"499 996 OFFCURVE",
"464 996 CURVE SMOOTH",
"426 996 OFFCURVE",
"406 970 OFFCURVE",
"401 950 CURVE",
"396 923 OFFCURVE",
"412 903 OFFCURVE",
"442 882 CURVE SMOOTH",
"582 786 LINE"
);
}
);
width = 752;
}
);
leftKerningGroup = O;
note = Ograve;
rightKerningGroup = O;
unicode = 00D2;
},
{
glyphname = Ohookabove;
lastChange = "2015-10-27 15:00:58 +0000";
layers = (
{
layerId = "8296656B-A453-444F-9AE7-A28FFBBB6660";
name = "Bold Italic";
paths = (
{
closed = 1;
nodes = (
"557 -10 OFFCURVE",
"707 127 OFFCURVE",
"753 350 CURVE SMOOTH",
"798 572 OFFCURVE",
"704 710 OFFCURVE",
"482 710 CURVE SMOOTH",
"257 710 OFFCURVE",
"109 572 OFFCURVE",
"64 350 CURVE SMOOTH",
"18 127 OFFCURVE",
"110 -10 OFFCURVE",
"335 -10 CURVE SMOOTH"
);
},
{
closed = 1;
nodes = (
"228 47 OFFCURVE",
"202 174 OFFCURVE",
"238 350 CURVE SMOOTH",
"274 525 OFFCURVE",
"352 653 OFFCURVE",
"470 653 CURVE SMOOTH",
"587 653 OFFCURVE",
"614 525 OFFCURVE",
"579 350 CURVE SMOOTH",
"542 174 OFFCURVE",
"463 47 OFFCURVE",
"347 47 CURVE SMOOTH"
);
},
{
closed = 1;
nodes = (
"535 784 LINE",
"560 855 LINE",
"612 860 OFFCURVE",
"659 880 OFFCURVE",
"671 944 CURVE SMOOTH",
"685 1014 OFFCURVE",
"629 1040 OFFCURVE",
"568 1040 CURVE SMOOTH",
"536 1040 OFFCURVE",
"502 1032 OFFCURVE",
"479 1021 CURVE",
"477 979 LINE",
"499 991 OFFCURVE",
"523 995 OFFCURVE",
"540 995 CURVE SMOOTH",
"581 995 OFFCURVE",
"596 971 OFFCURVE",
"591 945 CURVE SMOOTH",
"583 905 OFFCURVE",
"550 893 OFFCURVE",
"526 893 CURVE SMOOTH",
"486 893 LINE",
"468 784 LINE"
);
}
);
width = 752;
}
);
leftKerningGroup = O;
note = Ohookabove;
rightKerningGroup = O;
unicode = 1ECE;
},
{
glyphname = Ohorn;
lastChange = "2015-10-27 15:00:58 +0000";
layers = (
{
layerId = "8296656B-A453-444F-9AE7-A28FFBBB6660";
name = "Bold Italic";
paths = (
{
closed = 1;
nodes = (
"557 -10 OFFCURVE",
"707 127 OFFCURVE",
"753 350 CURVE SMOOTH",
"798 572 OFFCURVE",
"704 710 OFFCURVE",
"482 710 CURVE SMOOTH",
"257 710 OFFCURVE",
"109 572 OFFCURVE",
"64 350 CURVE SMOOTH",
"18 127 OFFCURVE",
"110 -10 OFFCURVE",
"335 -10 CURVE SMOOTH"
);
},
{
closed = 1;
nodes = (
"228 47 OFFCURVE",
"202 174 OFFCURVE",
"238 350 CURVE SMOOTH",
"274 525 OFFCURVE",
"352 653 OFFCURVE",
"470 653 CURVE SMOOTH",
"587 653 OFFCURVE",
"614 525 OFFCURVE",
"579 350 CURVE SMOOTH",
"542 174 OFFCURVE",
"463 47 OFFCURVE",
"347 47 CURVE SMOOTH"
);
},
{
closed = 1;
nodes = (
"861 531 OFFCURVE",
"917 600 OFFCURVE",
"928 655 CURVE SMOOTH",
"934 685 OFFCURVE",
"941 743 OFFCURVE",
"864 743 CURVE SMOOTH",
"801 743 OFFCURVE",
"779 701 OFFCURVE",
"773 672 CURVE SMOOTH",
"764 630 OFFCURVE",
"784 604 OFFCURVE",
"823 604 CURVE SMOOTH",
"828 604 OFFCURVE",
"832 604 OFFCURVE",
"837 606 CURVE",
"815 556 OFFCURVE",
"738 507 OFFCURVE",
"714 493 CURVE",
"737 454 LINE"
);
}
);
width = 804;
}
);
leftKerningGroup = O;
note = Ohorn;
rightKerningGroup = O;
unicode = 01A0;
},
{
glyphname = Ohornacute;
lastChange = "2015-10-27 15:00:58 +0000";
layers = (
{
layerId = "8296656B-A453-444F-9AE7-A28FFBBB6660";
name = "Bold Italic";
paths = (
{
closed = 1;
nodes = (
"557 -10 OFFCURVE",
"707 127 OFFCURVE",
"753 350 CURVE SMOOTH",
"798 572 OFFCURVE",
"704 710 OFFCURVE",
"482 710 CURVE SMOOTH",
"257 710 OFFCURVE",
"109 572 OFFCURVE",
"64 350 CURVE SMOOTH",
"18 127 OFFCURVE",
"110 -10 OFFCURVE",
"335 -10 CURVE SMOOTH"
);
},
{
closed = 1;
nodes = (
"228 47 OFFCURVE",
"202 174 OFFCURVE",
"238 350 CURVE SMOOTH",
"274 525 OFFCURVE",
"352 653 OFFCURVE",
"470 653 CURVE SMOOTH",
"587 653 OFFCURVE",
"614 525 OFFCURVE",
"579 350 CURVE SMOOTH",
"542 174 OFFCURVE",
"463 47 OFFCURVE",
"347 47 CURVE SMOOTH"
);
},
{
closed = 1;
nodes = (
"592 881 LINE SMOOTH",
"631 902 OFFCURVE",
"653 922 OFFCURVE",
"658 949 CURVE",
"662 969 OFFCURVE",
"653 995 OFFCURVE",
"616 995 CURVE SMOOTH",
"584 995 OFFCURVE",
"547 963 OFFCURVE",
"540 957 CURVE SMOOTH",
"395 824 LINE",
"414 785 LINE"
);
},
{
closed = 1;
nodes = (
"861 531 OFFCURVE",
"917 600 OFFCURVE",
"928 655 CURVE SMOOTH",
"934 685 OFFCURVE",
"941 743 OFFCURVE",
"864 743 CURVE SMOOTH",
"801 743 OFFCURVE",
"779 701 OFFCURVE",
"773 672 CURVE SMOOTH",
"764 630 OFFCURVE",
"784 604 OFFCURVE",
"823 604 CURVE SMOOTH",
"828 604 OFFCURVE",
"832 604 OFFCURVE",
"837 606 CURVE",
"815 556 OFFCURVE",
"738 507 OFFCURVE",
"714 493 CURVE",
"737 454 LINE"
);
}
);
width = 804;
}
);
leftKerningGroup = O;
note = Ohornacute;
rightKerningGroup = O;
unicode = 1EDA;
},
{
glyphname = Ohorndotbelow;
lastChange = "2015-10-27 15:00:58 +0000";
layers = (
{
layerId = "8296656B-A453-444F-9AE7-A28FFBBB6660";
name = "Bold Italic";
paths = (
{
closed = 1;
nodes = (
"557 -10 OFFCURVE",
"707 127 OFFCURVE",
"753 350 CURVE SMOOTH",
"798 572 OFFCURVE",
"704 710 OFFCURVE",
"482 710 CURVE SMOOTH",
"257 710 OFFCURVE",
"109 572 OFFCURVE",
"64 350 CURVE SMOOTH",
"18 127 OFFCURVE",
"110 -10 OFFCURVE",
"335 -10 CURVE SMOOTH"
);
},
{
closed = 1;
nodes = (
"339 -187 OFFCURVE",
"370 -157 OFFCURVE",
"377 -120 CURVE SMOOTH",
"385 -82 OFFCURVE",
"366 -52 OFFCURVE",
"325 -52 CURVE SMOOTH",
"286 -52 OFFCURVE",
"256 -82 OFFCURVE",
"249 -120 CURVE SMOOTH",
"241 -157 OFFCURVE",
"259 -187 OFFCURVE",
"299 -187 CURVE SMOOTH"
);
},
{
closed = 1;
nodes = (
"228 47 OFFCURVE",
"202 174 OFFCURVE",
"238 350 CURVE SMOOTH",
"274 525 OFFCURVE",
"352 653 OFFCURVE",
"470 653 CURVE SMOOTH",
"587 653 OFFCURVE",
"614 525 OFFCURVE",
"579 350 CURVE SMOOTH",
"542 174 OFFCURVE",
"463 47 OFFCURVE",
"347 47 CURVE SMOOTH"
);
},
{
closed = 1;
nodes = (
"861 531 OFFCURVE",
"917 600 OFFCURVE",
"928 655 CURVE SMOOTH",
"934 685 OFFCURVE",
"941 743 OFFCURVE",
"864 743 CURVE SMOOTH",
"801 743 OFFCURVE",
"779 701 OFFCURVE",
"773 672 CURVE SMOOTH",
"764 630 OFFCURVE",
"784 604 OFFCURVE",
"823 604 CURVE SMOOTH",
"828 604 OFFCURVE",
"832 604 OFFCURVE",
"837 606 CURVE",
"815 556 OFFCURVE",
"738 507 OFFCURVE",
"714 493 CURVE",
"737 454 LINE"
);
}
);
width = 804;
}
);
leftKerningGroup = O;
note = Ohorndotbelow;
rightKerningGroup = O;
unicode = 1EE2;
},
{
glyphname = Ohorngrave;
lastChange = "2015-10-27 15:00:59 +0000";
layers = (
{
layerId = "8296656B-A453-444F-9AE7-A28FFBBB6660";
name = "Bold Italic";
paths = (
{
closed = 1;
nodes = (
"557 -10 OFFCURVE",
"707 127 OFFCURVE",
"753 350 CURVE SMOOTH",
"798 572 OFFCURVE",
"704 710 OFFCURVE",
"482 710 CURVE SMOOTH",
"257 710 OFFCURVE",
"109 572 OFFCURVE",
"64 350 CURVE SMOOTH",
"18 127 OFFCURVE",
"110 -10 OFFCURVE",
"335 -10 CURVE SMOOTH"
);
},
{
closed = 1;
nodes = (
"228 47 OFFCURVE",
"202 174 OFFCURVE",
"238 350 CURVE SMOOTH",
"274 525 OFFCURVE",
"352 653 OFFCURVE",
"470 653 CURVE SMOOTH",
"587 653 OFFCURVE",
"614 525 OFFCURVE",
"579 350 CURVE SMOOTH",
"542 174 OFFCURVE",
"463 47 OFFCURVE",
"347 47 CURVE SMOOTH"
);
},
{
closed = 1;
nodes = (
"616 824 LINE",
"523 957 LINE",
"519 964 OFFCURVE",
"499 995 OFFCURVE",
"464 995 CURVE SMOOTH",
"426 995 OFFCURVE",
"406 969 OFFCURVE",
"401 949 CURVE",
"396 922 OFFCURVE",
"412 902 OFFCURVE",
"442 881 CURVE SMOOTH",
"582 785 LINE"
);
},
{
closed = 1;
nodes = (
"861 531 OFFCURVE",
"917 600 OFFCURVE",
"928 655 CURVE SMOOTH",
"934 685 OFFCURVE",
"941 743 OFFCURVE",
"864 743 CURVE SMOOTH",
"801 743 OFFCURVE",
"779 701 OFFCURVE",
"773 672 CURVE SMOOTH",
"764 630 OFFCURVE",
"784 604 OFFCURVE",
"823 604 CURVE SMOOTH",
"828 604 OFFCURVE",
"832 604 OFFCURVE",
"837 606 CURVE",
"815 556 OFFCURVE",
"738 507 OFFCURVE",
"714 493 CURVE",
"737 454 LINE"
);
}
);
width = 804;
}
);
leftKerningGroup = O;
note = Ohorngrave;
rightKerningGroup = O;
unicode = 1EDC;
},
{
glyphname = Ohornhookabove;
lastChange = "2015-10-27 15:00:59 +0000";
layers = (
{
layerId = "8296656B-A453-444F-9AE7-A28FFBBB6660";
name = "Bold Italic";
paths = (
{
closed = 1;
nodes = (
"557 -10 OFFCURVE",
"707 127 OFFCURVE",
"753 350 CURVE SMOOTH",
"798 572 OFFCURVE",
"704 710 OFFCURVE",
"482 710 CURVE SMOOTH",
"257 710 OFFCURVE",
"109 572 OFFCURVE",
"64 350 CURVE SMOOTH",
"18 127 OFFCURVE",
"110 -10 OFFCURVE",
"335 -10 CURVE SMOOTH"
);
},
{
closed = 1;
nodes = (
"228 47 OFFCURVE",
"202 174 OFFCURVE",
"238 350 CURVE SMOOTH",
"274 525 OFFCURVE",
"352 653 OFFCURVE",
"470 653 CURVE SMOOTH",
"587 653 OFFCURVE",
"614 525 OFFCURVE",
"579 350 CURVE SMOOTH",
"542 174 OFFCURVE",
"463 47 OFFCURVE",
"347 47 CURVE SMOOTH"
);
},
{
closed = 1;
nodes = (
"861 531 OFFCURVE",
"917 600 OFFCURVE",
"928 655 CURVE SMOOTH",
"934 685 OFFCURVE",
"941 743 OFFCURVE",
"864 743 CURVE SMOOTH",
"801 743 OFFCURVE",
"779 701 OFFCURVE",
"773 672 CURVE SMOOTH",
"764 630 OFFCURVE",
"784 604 OFFCURVE",
"823 604 CURVE SMOOTH",
"828 604 OFFCURVE",
"832 604 OFFCURVE",
"837 606 CURVE",
"815 556 OFFCURVE",
"738 507 OFFCURVE",
"714 493 CURVE",
"737 454 LINE"
);
},
{
closed = 1;
nodes = (
"526 780 LINE",
"551 851 LINE",
"604 856 OFFCURVE",
"650 876 OFFCURVE",
"662 940 CURVE SMOOTH",
"677 1010 OFFCURVE",
"620 1036 OFFCURVE",
"560 1036 CURVE SMOOTH",
"527 1036 OFFCURVE",
"493 1028 OFFCURVE",
"470 1017 CURVE",
"468 975 LINE",
"491 987 OFFCURVE",
"515 991 OFFCURVE",
"532 991 CURVE SMOOTH",
"572 991 OFFCURVE",
"588 967 OFFCURVE",
"583 941 CURVE SMOOTH",
"574 901 OFFCURVE",
"541 889 OFFCURVE",
"517 889 CURVE SMOOTH",
"477 889 LINE",
"459 780 LINE"
);
}
);
width = 804;
}
);
leftKerningGroup = O;
note = Ohornhookabove;
rightKerningGroup = O;
unicode = 1EDE;
},
{
glyphname = Ohorntilde;
lastChange = "2015-10-27 15:00:59 +0000";
layers = (
{
layerId = "8296656B-A453-444F-9AE7-A28FFBBB6660";
name = "Bold Italic";
paths = (
{
closed = 1;
nodes = (
"557 -10 OFFCURVE",
"707 127 OFFCURVE",
"753 350 CURVE SMOOTH",
"798 572 OFFCURVE",
"704 710 OFFCURVE",
"482 710 CURVE SMOOTH",
"257 710 OFFCURVE",
"109 572 OFFCURVE",
"64 350 CURVE SMOOTH",
"18 127 OFFCURVE",
"110 -10 OFFCURVE",
"335 -10 CURVE SMOOTH"
);
},
{
closed = 1;
nodes = (
"228 47 OFFCURVE",
"202 174 OFFCURVE",
"238 350 CURVE SMOOTH",
"274 525 OFFCURVE",
"352 653 OFFCURVE",
"470 653 CURVE SMOOTH",
"587 653 OFFCURVE",
"614 525 OFFCURVE",
"579 350 CURVE SMOOTH",
"542 174 OFFCURVE",
"463 47 OFFCURVE",
"347 47 CURVE SMOOTH"
);
},
{
closed = 1;
nodes = (
"372 786 LINE",
"383 817 OFFCURVE",
"405 837 OFFCURVE",
"433 837 CURVE SMOOTH",
"467 837 OFFCURVE",
"519 786 OFFCURVE",
"578 786 CURVE SMOOTH",
"659 786 OFFCURVE",
"704 836 OFFCURVE",
"726 910 CURVE",
"651 910 LINE",
"631 863 OFFCURVE",
"608 857 OFFCURVE",
"585 857 CURVE SMOOTH",
"545 857 OFFCURVE",
"518 908 OFFCURVE",
"444 908 CURVE SMOOTH",
"374 908 OFFCURVE",
"323 866 OFFCURVE",
"295 786 CURVE"
);
},
{
closed = 1;
nodes = (
"861 531 OFFCURVE",
"917 600 OFFCURVE",
"928 655 CURVE SMOOTH",
"934 685 OFFCURVE",
"941 743 OFFCURVE",
"864 743 CURVE SMOOTH",
"801 743 OFFCURVE",
"779 701 OFFCURVE",
"773 672 CURVE SMOOTH",
"764 630 OFFCURVE",
"784 604 OFFCURVE",
"823 604 CURVE SMOOTH",
"828 604 OFFCURVE",
"832 604 OFFCURVE",
"837 606 CURVE",
"815 556 OFFCURVE",
"738 507 OFFCURVE",
"714 493 CURVE",
"737 454 LINE"
);
}
);
width = 804;
}
);
leftKerningGroup = O;
note = Ohorntilde;
rightKerningGroup = O;
unicode = 1EE0;
},
{
glyphname = Ohungarumlaut;
lastChange = "2015-10-27 15:00:58 +0000";
layers = (
{
layerId = "8296656B-A453-444F-9AE7-A28FFBBB6660";
name = "Bold Italic";
paths = (
{
closed = 1;
nodes = (
"557 -10 OFFCURVE",
"707 127 OFFCURVE",
"753 350 CURVE SMOOTH",
"798 572 OFFCURVE",
"704 710 OFFCURVE",
"482 710 CURVE SMOOTH",
"257 710 OFFCURVE",
"109 572 OFFCURVE",
"64 350 CURVE SMOOTH",
"18 127 OFFCURVE",
"110 -10 OFFCURVE",
"335 -10 CURVE SMOOTH"
);
},
{
closed = 1;
nodes = (
"228 47 OFFCURVE",
"202 174 OFFCURVE",
"238 350 CURVE SMOOTH",
"274 525 OFFCURVE",
"352 653 OFFCURVE",
"470 653 CURVE SMOOTH",
"587 653 OFFCURVE",
"614 525 OFFCURVE",
"579 350 CURVE SMOOTH",
"542 174 OFFCURVE",
"463 47 OFFCURVE",
"347 47 CURVE SMOOTH"
);
},
{
closed = 1;
nodes = (
"518 880 LINE SMOOTH",
"556 901 OFFCURVE",
"580 922 OFFCURVE",
"585 948 CURVE SMOOTH",
"588 968 OFFCURVE",
"579 994 OFFCURVE",
"541 994 CURVE SMOOTH",
"506 994 OFFCURVE",
"472 962 OFFCURVE",
"467 956 CURVE",
"322 824 LINE",
"340 784 LINE"
);
},
{
closed = 1;
nodes = (
"735 880 LINE SMOOTH",
"774 901 OFFCURVE",
"798 922 OFFCURVE",
"803 948 CURVE SMOOTH",
"806 968 OFFCURVE",
"797 994 OFFCURVE",
"759 994 CURVE SMOOTH",
"724 994 OFFCURVE",
"690 962 OFFCURVE",
"684 956 CURVE",
"538 824 LINE",
"556 784 LINE"
);
}
);
width = 752;
}
);
leftKerningGroup = O;
note = Ohungarumlaut;
rightKerningGroup = O;
unicode = 0150;
},
{
glyphname = Omacron;
lastChange = "2015-10-27 15:00:59 +0000";
layers = (
{
layerId = "8296656B-A453-444F-9AE7-A28FFBBB6660";
name = "Bold Italic";
paths = (
{
closed = 1;
nodes = (
"557 -10 OFFCURVE",
"707 127 OFFCURVE",
"753 350 CURVE SMOOTH",
"798 572 OFFCURVE",
"704 710 OFFCURVE",
"482 710 CURVE SMOOTH",
"257 710 OFFCURVE",
"109 572 OFFCURVE",
"64 350 CURVE SMOOTH",
"18 127 OFFCURVE",
"110 -10 OFFCURVE",
"335 -10 CURVE SMOOTH"
);
},
{
closed = 1;
nodes = (
"228 47 OFFCURVE",
"202 174 OFFCURVE",
"238 350 CURVE SMOOTH",
"274 525 OFFCURVE",
"352 653 OFFCURVE",
"470 653 CURVE SMOOTH",
"587 653 OFFCURVE",
"614 525 OFFCURVE",
"579 350 CURVE SMOOTH",
"542 174 OFFCURVE",
"463 47 OFFCURVE",
"347 47 CURVE SMOOTH"
);
},
{
closed = 1;
nodes = (
"693 788 LINE",
"704 840 LINE",
"312 840 LINE",
"301 788 LINE"
);
}
);
width = 752;
}
);
leftKerningGroup = O;
note = Omacron;
rightKerningGroup = O;
unicode = 014C;
},
{
glyphname = Oslash;
lastChange = "2015-10-27 15:00:59 +0000";
layers = (
{
layerId = "8296656B-A453-444F-9AE7-A28FFBBB6660";
name = "Bold Italic";
paths = (
{
closed = 1;
nodes = (
"785 690 LINE",
"748 726 LINE",
"10 -2 LINE",
"43 -38 LINE"
);
},
{
closed = 1;
nodes = (
"557 -10 OFFCURVE",
"707 127 OFFCURVE",
"753 350 CURVE SMOOTH",
"798 572 OFFCURVE",
"704 710 OFFCURVE",
"482 710 CURVE SMOOTH",
"257 710 OFFCURVE",
"109 572 OFFCURVE",
"64 350 CURVE SMOOTH",
"18 127 OFFCURVE",
"110 -10 OFFCURVE",
"335 -10 CURVE SMOOTH"
);
},
{
closed = 1;
nodes = (
"228 47 OFFCURVE",
"202 174 OFFCURVE",
"238 350 CURVE SMOOTH",
"274 525 OFFCURVE",
"352 653 OFFCURVE",
"470 653 CURVE SMOOTH",
"587 653 OFFCURVE",
"614 525 OFFCURVE",
"579 350 CURVE SMOOTH",
"542 174 OFFCURVE",
"463 47 OFFCURVE",
"347 47 CURVE SMOOTH"
);
}
);
width = 752;
}
);
leftKerningGroup = O;
note = Oslash;
rightKerningGroup = O;
unicode = 00D8;
},
{
glyphname = Oslashacute;
lastChange = "2015-10-27 15:00:58 +0000";
layers = (
{
layerId = "8296656B-A453-444F-9AE7-A28FFBBB6660";
name = "Bold Italic";
paths = (
{
closed = 1;
nodes = (
"785 690 LINE",
"748 726 LINE",
"10 -2 LINE",
"43 -38 LINE"
);
},
{
closed = 1;
nodes = (
"557 -10 OFFCURVE",
"707 127 OFFCURVE",
"753 350 CURVE SMOOTH",
"798 572 OFFCURVE",
"704 710 OFFCURVE",
"482 710 CURVE SMOOTH",
"257 710 OFFCURVE",
"109 572 OFFCURVE",
"64 350 CURVE SMOOTH",
"18 127 OFFCURVE",
"110 -10 OFFCURVE",
"335 -10 CURVE SMOOTH"
);
},
{
closed = 1;
nodes = (
"228 47 OFFCURVE",
"202 174 OFFCURVE",
"238 350 CURVE SMOOTH",
"274 525 OFFCURVE",
"352 653 OFFCURVE",
"470 653 CURVE SMOOTH",
"587 653 OFFCURVE",
"614 525 OFFCURVE",
"579 350 CURVE SMOOTH",
"542 174 OFFCURVE",
"463 47 OFFCURVE",
"347 47 CURVE SMOOTH"
);
},
{
closed = 1;
nodes = (
"593 882 LINE SMOOTH",
"632 903 OFFCURVE",
"654 923 OFFCURVE",
"659 950 CURVE",
"663 970 OFFCURVE",
"654 996 OFFCURVE",
"617 996 CURVE SMOOTH",
"585 996 OFFCURVE",
"548 964 OFFCURVE",
"541 958 CURVE SMOOTH",
"396 825 LINE",
"415 786 LINE"
);
}
);
width = 752;
}
);
leftKerningGroup = O;
note = Oslashacute;
rightKerningGroup = O;
unicode = 01FE;
},
{
glyphname = Otilde;
lastChange = "2015-10-27 15:00:59 +0000";
layers = (
{
layerId = "8296656B-A453-444F-9AE7-A28FFBBB6660";
name = "Bold Italic";
paths = (
{
closed = 1;
nodes = (
"557 -10 OFFCURVE",
"707 127 OFFCURVE",
"753 350 CURVE SMOOTH",
"798 572 OFFCURVE",
"704 710 OFFCURVE",
"482 710 CURVE SMOOTH",
"257 710 OFFCURVE",
"109 572 OFFCURVE",
"64 350 CURVE SMOOTH",
"18 127 OFFCURVE",
"110 -10 OFFCURVE",
"335 -10 CURVE SMOOTH"
);
},
{
closed = 1;
nodes = (
"228 47 OFFCURVE",
"202 174 OFFCURVE",
"238 350 CURVE SMOOTH",
"274 525 OFFCURVE",
"352 653 OFFCURVE",
"470 653 CURVE SMOOTH",
"587 653 OFFCURVE",
"614 525 OFFCURVE",
"579 350 CURVE SMOOTH",
"542 174 OFFCURVE",
"463 47 OFFCURVE",
"347 47 CURVE SMOOTH"
);
},
{
closed = 1;
nodes = (
"371 786 LINE",
"382 817 OFFCURVE",
"404 837 OFFCURVE",
"432 837 CURVE SMOOTH",
"466 837 OFFCURVE",
"518 786 OFFCURVE",
"577 786 CURVE SMOOTH",
"658 786 OFFCURVE",
"703 836 OFFCURVE",
"725 910 CURVE",
"650 910 LINE",
"630 863 OFFCURVE",
"607 857 OFFCURVE",
"584 857 CURVE SMOOTH",
"544 857 OFFCURVE",
"517 908 OFFCURVE",
"444 908 CURVE SMOOTH",
"373 908 OFFCURVE",
"322 866 OFFCURVE",
"294 786 CURVE"
);
}
);
width = 752;
}
);
leftKerningGroup = O;
note = Otilde;
rightKerningGroup = O;
unicode = 00D5;
},
{
glyphname = OE;
lastChange = "2015-10-27 15:00:59 +0000";
layers = (
{
layerId = "8296656B-A453-444F-9AE7-A28FFBBB6660";
name = "Bold Italic";
paths = (
{
closed = 1;
nodes = (
"379 -10 OFFCURVE",
"431 7 OFFCURVE",
"485 56 CURVE",
"474 0 LINE",
"960 0 LINE",
"1016 185 LINE",
"979 185 LINE",
"957 164 OFFCURVE",
"911 92 OFFCURVE",
"900 54 CURVE",
"656 54 LINE",
"712 332 LINE",
"868 332 LINE",
"866 315 OFFCURVE",
"866 276 OFFCURVE",
"870 244 CURVE",
"897 244 LINE",
"944 473 LINE",
"917 473 LINE",
"900 444 OFFCURVE",
"884 404 OFFCURVE",
"879 386 CURVE",
"724 386 LINE",
"777 645 LINE",
"1015 645 LINE",
"1010 613 OFFCURVE",
"1019 536 OFFCURVE",
"1029 513 CURVE",
"1066 513 LINE",
"1103 700 LINE",
"616 700 LINE",
"605 640 LINE",
"578 683 OFFCURVE",
"526 710 OFFCURVE",
"451 710 CURVE SMOOTH",
"227 710 OFFCURVE",
"100 526 OFFCURVE",
"64 350 CURVE SMOOTH",
"28 173 OFFCURVE",
"80 -10 OFFCURVE",
"304 -10 CURVE SMOOTH"
);
},
{
closed = 1;
nodes = (
"228 47 OFFCURVE",
"201 174 OFFCURVE",
"237 350 CURVE SMOOTH",
"273 525 OFFCURVE",
"352 653 OFFCURVE",
"470 653 CURVE SMOOTH",
"533 653 OFFCURVE",
"576 608 OFFCURVE",
"588 557 CURVE",
"502 141 LINE",
"464 85 OFFCURVE",
"409 47 OFFCURVE",
"347 47 CURVE SMOOTH"
);
}
);
width = 1052;
}
);
note = OE;
unicode = 0152;
},
{
glyphname = P;
lastChange = "2015-10-27 15:00:59 +0000";
layers = (
{
layerId = "8296656B-A453-444F-9AE7-A28FFBBB6660";
name = "Bold Italic";
paths = (
{
closed = 1;
nodes = (
"313 0 LINE",
"317 20 LINE",
"292 28 OFFCURVE",
"265 38 OFFCURVE",
"243 42 CURVE",
"290 269 LINE",
"413 269 LINE SMOOTH",
"565 269 OFFCURVE",
"660 375 OFFCURVE",
"684 495 CURVE SMOOTH",
"708 609 OFFCURVE",
"671 700 OFFCURVE",
"490 700 CURVE SMOOTH",
"132 700 LINE",
"128 679 LINE",
"154 669 OFFCURVE",
"177 662 OFFCURVE",
"198 657 CURVE",
"73 43 LINE",
"70 43 OFFCURVE",
"20 30 OFFCURVE",
"-9 22 CURVE",
"-12 0 LINE"
);
},
{
closed = 1;
nodes = (
"367 645 LINE",
"443 645 LINE SMOOTH",
"515 645 OFFCURVE",
"535 590 OFFCURVE",
"516 497 CURVE SMOOTH",
"497 405 OFFCURVE",
"452 323 OFFCURVE",
"376 323 CURVE SMOOTH",
"300 323 LINE"
);
}
);
width = 639;
}
);
note = P;
unicode = 0050;
},
{
glyphname = Thorn;
lastChange = "2015-10-27 15:00:58 +0000";
layers = (
{
layerId = "8296656B-A453-444F-9AE7-A28FFBBB6660";
name = "Bold Italic";
paths = (
{
closed = 1;
nodes = (
"304 0 LINE",
"308 20 LINE",
"283 28 OFFCURVE",
"257 38 OFFCURVE",
"235 42 CURVE",
"258 151 LINE",
"380 151 LINE SMOOTH",
"533 151 OFFCURVE",
"627 256 OFFCURVE",
"651 376 CURVE SMOOTH",
"674 487 OFFCURVE",
"640 581 OFFCURVE",
"465 581 CURVE SMOOTH",
"346 581 LINE",
"370 700 LINE",
"123 700 LINE",
"119 679 LINE",
"145 669 OFFCURVE",
"168 662 OFFCURVE",
"189 657 CURVE",
"64 43 LINE",
"61 43 OFFCURVE",
"12 30 OFFCURVE",
"-17 22 CURVE",
"-21 0 LINE"
);
},
{
closed = 1;
nodes = (
"335 527 LINE",
"410 527 LINE SMOOTH",
"482 527 OFFCURVE",
"502 471 OFFCURVE",
"483 378 CURVE SMOOTH",
"465 287 OFFCURVE",
"420 204 OFFCURVE",
"344 204 CURVE SMOOTH",
"269 204 LINE"
);
}
);
width = 630;
}
);
note = Thorn;
unicode = 00DE;
},
{
glyphname = Q;
lastChange = "2015-10-27 15:00:58 +0000";
layers = (
{
layerId = "8296656B-A453-444F-9AE7-A28FFBBB6660";
name = "Bold Italic";
paths = (
{
closed = 1;
nodes = (
"557 -10 OFFCURVE",
"707 127 OFFCURVE",
"753 350 CURVE SMOOTH",
"798 572 OFFCURVE",
"704 710 OFFCURVE",
"482 710 CURVE SMOOTH",
"257 710 OFFCURVE",
"109 572 OFFCURVE",
"64 350 CURVE SMOOTH",
"18 127 OFFCURVE",
"110 -10 OFFCURVE",
"335 -10 CURVE SMOOTH"
);
},
{
closed = 1;
nodes = (
"568 -107 LINE",
"472 -99 OFFCURVE",
"424 -47 OFFCURVE",
"431 29 CURVE",
"264 29 LINE",
"256 -71 OFFCURVE",
"351 -141 OFFCURVE",
"558 -159 CURVE"
);
},
{
closed = 1;
nodes = (
"228 47 OFFCURVE",
"202 174 OFFCURVE",
"238 350 CURVE SMOOTH",
"274 525 OFFCURVE",
"352 653 OFFCURVE",
"470 653 CURVE SMOOTH",
"587 653 OFFCURVE",
"614 525 OFFCURVE",
"579 350 CURVE SMOOTH",
"542 174 OFFCURVE",
"463 47 OFFCURVE",
"347 47 CURVE SMOOTH"
);
}
);
width = 752;
}
);
leftKerningGroup = O;
note = Q;
rightKerningGroup = O;
unicode = 0051;
},
{
glyphname = R;
lastChange = "2015-10-27 15:00:58 +0000";
layers = (
{
layerId = "8296656B-A453-444F-9AE7-A28FFBBB6660";
name = "Bold Italic";
paths = (
{
closed = 1;
nodes = (
"313 0 LINE",
"317 20 LINE",
"291 28 OFFCURVE",
"265 38 OFFCURVE",
"244 42 CURVE",
"297 298 LINE",
"432 298 LINE SMOOTH",
"564 298 OFFCURVE",
"669 378 OFFCURVE",
"695 505 CURVE SMOOTH",
"717 616 OFFCURVE",
"687 700 OFFCURVE",
"513 700 CURVE SMOOTH",
"132 700 LINE",
"128 679 LINE",
"154 669 OFFCURVE",
"176 662 OFFCURVE",
"198 657 CURVE",
"73 43 LINE",
"69 43 OFFCURVE",
"20 30 OFFCURVE",
"-9 22 CURVE",
"-12 0 LINE"
);
},
{
closed = 1;
nodes = (
"656 0 LINE",
"660 20 LINE",
"635 30 OFFCURVE",
"610 37 OFFCURVE",
"588 42 CURVE",
"503 316 LINE",
"356 316 LINE",
"443 0 LINE"
);
},
{
closed = 1;
nodes = (
"368 645 LINE",
"443 645 LINE SMOOTH",
"520 645 OFFCURVE",
"544 600 OFFCURVE",
"525 507 CURVE SMOOTH",
"507 415 OFFCURVE",
"464 352 OFFCURVE",
"382 352 CURVE SMOOTH",
"307 352 LINE"
);
}
);
width = 709;
}
);
note = R;
rightKerningGroup = R;
unicode = 0052;
},
{
glyphname = Racute;
lastChange = "2015-10-27 15:00:59 +0000";
layers = (
{
layerId = "8296656B-A453-444F-9AE7-A28FFBBB6660";
name = "Bold Italic";
paths = (
{
closed = 1;
nodes = (
"313 0 LINE",
"317 20 LINE",
"291 28 OFFCURVE",
"265 38 OFFCURVE",
"244 42 CURVE",
"297 298 LINE",
"432 298 LINE SMOOTH",
"564 298 OFFCURVE",
"669 378 OFFCURVE",
"695 505 CURVE SMOOTH",
"717 616 OFFCURVE",
"687 700 OFFCURVE",
"513 700 CURVE SMOOTH",
"132 700 LINE",
"128 679 LINE",
"154 669 OFFCURVE",
"176 662 OFFCURVE",
"198 657 CURVE",
"73 43 LINE",
"69 43 OFFCURVE",
"20 30 OFFCURVE",
"-9 22 CURVE",
"-12 0 LINE"
);
},
{
closed = 1;
nodes = (
"656 0 LINE",
"660 20 LINE",
"635 30 OFFCURVE",
"610 37 OFFCURVE",
"588 42 CURVE",
"503 316 LINE",
"356 316 LINE",
"443 0 LINE"
);
},
{
closed = 1;
nodes = (
"368 645 LINE",
"443 645 LINE SMOOTH",
"520 645 OFFCURVE",
"544 600 OFFCURVE",
"525 507 CURVE SMOOTH",
"507 415 OFFCURVE",
"464 352 OFFCURVE",
"382 352 CURVE SMOOTH",
"307 352 LINE"
);
},
{
closed = 1;
nodes = (
"557 882 LINE SMOOTH",
"595 903 OFFCURVE",
"617 923 OFFCURVE",
"622 950 CURVE",
"627 970 OFFCURVE",
"617 996 OFFCURVE",
"581 996 CURVE SMOOTH",
"548 996 OFFCURVE",
"512 964 OFFCURVE",
"505 958 CURVE SMOOTH",
"359 825 LINE",
"378 786 LINE"
);
}
);
width = 701;
}
);
note = Racute;
rightKerningGroup = R;
unicode = 0154;
},
{
glyphname = Rcaron;
lastChange = "2015-10-27 15:00:59 +0000";
layers = (
{
layerId = "8296656B-A453-444F-9AE7-A28FFBBB6660";
name = "Bold Italic";
paths = (
{
closed = 1;
nodes = (
"313 0 LINE",
"317 20 LINE",
"291 28 OFFCURVE",
"265 38 OFFCURVE",
"244 42 CURVE",
"297 298 LINE",
"432 298 LINE SMOOTH",
"564 298 OFFCURVE",
"669 378 OFFCURVE",
"695 505 CURVE SMOOTH",
"717 616 OFFCURVE",
"687 700 OFFCURVE",
"513 700 CURVE SMOOTH",
"132 700 LINE",
"128 679 LINE",
"154 669 OFFCURVE",
"176 662 OFFCURVE",
"198 657 CURVE",
"73 43 LINE",
"69 43 OFFCURVE",
"20 30 OFFCURVE",
"-9 22 CURVE",
"-12 0 LINE"
);
},
{
closed = 1;
nodes = (
"656 0 LINE",
"660 20 LINE",
"635 30 OFFCURVE",
"610 37 OFFCURVE",
"588 42 CURVE",
"503 316 LINE",
"356 316 LINE",
"443 0 LINE"
);
},
{
closed = 1;
nodes = (
"368 645 LINE",
"443 645 LINE SMOOTH",
"520 645 OFFCURVE",
"544 600 OFFCURVE",
"525 507 CURVE SMOOTH",
"507 415 OFFCURVE",
"464 352 OFFCURVE",
"382 352 CURVE SMOOTH",
"307 352 LINE"
);
},
{
closed = 1;
nodes = (
"508 786 LINE",
"536 820 OFFCURVE",
"644 906 OFFCURVE",
"694 935 CURVE",
"636 985 LINE",
"588 952 OFFCURVE",
"513 887 OFFCURVE",
"483 850 CURVE",
"479 850 LINE",
"466 887 OFFCURVE",
"416 952 OFFCURVE",
"381 985 CURVE",
"303 935 LINE",
"342 906 OFFCURVE",
"415 820 OFFCURVE",
"429 786 CURVE"
);
}
);
width = 701;
}
);
note = Rcaron;
rightKerningGroup = R;
unicode = 0158;
},
{
glyphname = Rcommaaccent;
lastChange = "2015-10-27 15:00:59 +0000";
layers = (
{
layerId = "8296656B-A453-444F-9AE7-A28FFBBB6660";
name = "Bold Italic";
paths = (
{
closed = 1;
nodes = (
"313 0 LINE",
"317 20 LINE",
"291 28 OFFCURVE",
"265 38 OFFCURVE",
"244 42 CURVE",
"297 298 LINE",
"432 298 LINE SMOOTH",
"564 298 OFFCURVE",
"669 378 OFFCURVE",
"695 505 CURVE SMOOTH",
"717 616 OFFCURVE",
"687 700 OFFCURVE",
"513 700 CURVE SMOOTH",
"132 700 LINE",
"128 679 LINE",
"154 669 OFFCURVE",
"176 662 OFFCURVE",
"198 657 CURVE",
"73 43 LINE",
"69 43 OFFCURVE",
"20 30 OFFCURVE",
"-9 22 CURVE",
"-12 0 LINE"
);
},
{
closed = 1;
nodes = (
"292 -338 OFFCURVE",
"354 -250 OFFCURVE",
"372 -167 CURVE SMOOTH",
"380 -124 OFFCURVE",
"362 -85 OFFCURVE",
"306 -85 CURVE SMOOTH",
"266 -85 OFFCURVE",
"224 -113 OFFCURVE",
"215 -158 CURVE SMOOTH",
"206 -199 OFFCURVE",
"232 -231 OFFCURVE",
"273 -234 CURVE",
"255 -279 OFFCURVE",
"208 -325 OFFCURVE",
"180 -350 CURVE",
"223 -390 LINE"
);
},
{
closed = 1;
nodes = (
"656 0 LINE",
"660 20 LINE",
"635 30 OFFCURVE",
"610 37 OFFCURVE",
"588 42 CURVE",
"503 316 LINE",
"356 316 LINE",
"443 0 LINE"
);
},
{
closed = 1;
nodes = (
"368 645 LINE",
"443 645 LINE SMOOTH",
"520 645 OFFCURVE",
"544 600 OFFCURVE",
"525 507 CURVE SMOOTH",
"507 415 OFFCURVE",
"464 352 OFFCURVE",
"382 352 CURVE SMOOTH",
"307 352 LINE"
);
}
);
width = 701;
}
);
note = Rcommaaccent;
rightKerningGroup = R;
unicode = 0156;
},
{
glyphname = Rdotbelow;
lastChange = "2015-10-27 15:00:59 +0000";
layers = (
{
layerId = "8296656B-A453-444F-9AE7-A28FFBBB6660";
name = "Bold Italic";
paths = (
{
closed = 1;
nodes = (
"313 0 LINE",
"317 20 LINE",
"291 28 OFFCURVE",
"265 38 OFFCURVE",
"244 42 CURVE",
"297 298 LINE",
"432 298 LINE SMOOTH",
"564 298 OFFCURVE",
"669 378 OFFCURVE",
"695 505 CURVE SMOOTH",
"717 616 OFFCURVE",
"687 700 OFFCURVE",
"513 700 CURVE SMOOTH",
"132 700 LINE",
"128 679 LINE",
"154 669 OFFCURVE",
"176 662 OFFCURVE",
"198 657 CURVE",
"73 43 LINE",
"69 43 OFFCURVE",
"20 30 OFFCURVE",
"-9 22 CURVE",
"-12 0 LINE"
);
},
{
closed = 1;
nodes = (
"311 -187 OFFCURVE",
"342 -157 OFFCURVE",
"349 -120 CURVE SMOOTH",
"357 -82 OFFCURVE",
"338 -52 OFFCURVE",
"298 -52 CURVE SMOOTH",
"258 -52 OFFCURVE",
"228 -82 OFFCURVE",
"221 -120 CURVE SMOOTH",
"213 -157 OFFCURVE",
"231 -187 OFFCURVE",
"271 -187 CURVE SMOOTH"
);
},
{
closed = 1;
nodes = (
"656 0 LINE",
"660 20 LINE",
"635 30 OFFCURVE",
"610 37 OFFCURVE",
"588 42 CURVE",
"503 316 LINE",
"356 316 LINE",
"443 0 LINE"
);
},
{
closed = 1;
nodes = (
"368 645 LINE",
"443 645 LINE SMOOTH",
"520 645 OFFCURVE",
"544 600 OFFCURVE",
"525 507 CURVE SMOOTH",
"507 415 OFFCURVE",
"464 352 OFFCURVE",
"382 352 CURVE SMOOTH",
"307 352 LINE"
);
}
);
width = 701;
}
);
note = Rdotbelow;
rightKerningGroup = R;
unicode = 1E5A;
},
{
glyphname = Rdotbelowmacron;
lastChange = "2015-10-27 15:00:59 +0000";
layers = (
{
layerId = "8296656B-A453-444F-9AE7-A28FFBBB6660";
name = "Bold Italic";
paths = (
{
closed = 1;
nodes = (
"313 0 LINE",
"317 20 LINE",
"291 28 OFFCURVE",
"265 38 OFFCURVE",
"244 42 CURVE",
"297 298 LINE",
"432 298 LINE SMOOTH",
"564 298 OFFCURVE",
"669 378 OFFCURVE",
"695 505 CURVE SMOOTH",
"717 616 OFFCURVE",
"687 700 OFFCURVE",
"513 700 CURVE SMOOTH",
"132 700 LINE",
"128 679 LINE",
"154 669 OFFCURVE",
"176 662 OFFCURVE",
"198 657 CURVE",
"73 43 LINE",
"69 43 OFFCURVE",
"20 30 OFFCURVE",
"-9 22 CURVE",
"-12 0 LINE"
);
},
{
closed = 1;
nodes = (
"320 -187 OFFCURVE",
"350 -157 OFFCURVE",
"358 -120 CURVE SMOOTH",
"366 -82 OFFCURVE",
"347 -52 OFFCURVE",
"306 -52 CURVE SMOOTH",
"267 -52 OFFCURVE",
"237 -82 OFFCURVE",
"229 -120 CURVE SMOOTH",
"222 -157 OFFCURVE",
"240 -187 OFFCURVE",
"279 -187 CURVE SMOOTH"
);
},
{
closed = 1;
nodes = (
"656 0 LINE",
"660 20 LINE",
"635 30 OFFCURVE",
"610 37 OFFCURVE",
"588 42 CURVE",
"503 316 LINE",
"356 316 LINE",
"443 0 LINE"
);
},
{
closed = 1;
nodes = (
"368 645 LINE",
"443 645 LINE SMOOTH",
"520 645 OFFCURVE",
"544 600 OFFCURVE",
"525 507 CURVE SMOOTH",
"507 415 OFFCURVE",
"464 352 OFFCURVE",
"382 352 CURVE SMOOTH",
"307 352 LINE"
);
},
{
closed = 1;
nodes = (
"655 785 LINE",
"666 838 LINE",
"233 838 LINE",
"222 785 LINE"
);
}
);
width = 709;
}
);
note = Rdotbelowmacron;
rightKerningGroup = R;
unicode = 1E5C;
},
{
glyphname = Rlinebelow;
lastChange = "2015-10-27 15:00:59 +0000";
layers = (
{
layerId = "8296656B-A453-444F-9AE7-A28FFBBB6660";
name = "Bold Italic";
paths = (
{
closed = 1;
nodes = (
"313 0 LINE",
"317 20 LINE",
"291 28 OFFCURVE",
"265 38 OFFCURVE",
"244 42 CURVE",
"297 298 LINE",
"432 298 LINE SMOOTH",
"564 298 OFFCURVE",
"669 378 OFFCURVE",
"695 505 CURVE SMOOTH",
"717 616 OFFCURVE",
"687 700 OFFCURVE",
"513 700 CURVE SMOOTH",
"132 700 LINE",
"128 679 LINE",
"154 669 OFFCURVE",
"176 662 OFFCURVE",
"198 657 CURVE",
"73 43 LINE",
"69 43 OFFCURVE",
"20 30 OFFCURVE",
"-9 22 CURVE",
"-12 0 LINE"
);
},
{
closed = 1;
nodes = (
"455 -111 LINE",
"466 -58 LINE",
"74 -58 LINE",
"63 -111 LINE"
);
},
{
closed = 1;
nodes = (
"656 0 LINE",
"660 20 LINE",
"635 30 OFFCURVE",
"610 37 OFFCURVE",
"588 42 CURVE",
"503 316 LINE",
"356 316 LINE",
"443 0 LINE"
);
},
{
closed = 1;
nodes = (
"368 645 LINE",
"443 645 LINE SMOOTH",
"520 645 OFFCURVE",
"544 600 OFFCURVE",
"525 507 CURVE SMOOTH",
"507 415 OFFCURVE",
"464 352 OFFCURVE",
"382 352 CURVE SMOOTH",
"307 352 LINE"
);
}
);
width = 701;
}
);
note = Rlinebelow;
rightKerningGroup = R;
unicode = 1E5E;
},
{
glyphname = S;
lastChange = "2015-10-27 15:00:58 +0000";
layers = (
{
layerId = "8296656B-A453-444F-9AE7-A28FFBBB6660";
name = "Bold Italic";
paths = (
{
closed = 1;
nodes = (
"398 -10 OFFCURVE",
"536 63 OFFCURVE",
"564 199 CURVE SMOOTH",
"619 472 OFFCURVE",
"261 416 OFFCURVE",
"289 554 CURVE SMOOTH",
"304 627 OFFCURVE",
"366 653 OFFCURVE",
"434 653 CURVE SMOOTH",
"480 653 OFFCURVE",
"524 641 OFFCURVE",
"546 618 CURVE",
"540 569 OFFCURVE",
"540 531 OFFCURVE",
"544 493 CURVE",
"584 493 LINE",
"629 636 LINE",
"585 688 OFFCURVE",
"517 710 OFFCURVE",
"410 710 CURVE SMOOTH",
"253 710 OFFCURVE",
"133 649 OFFCURVE",
"108 525 CURVE SMOOTH",
"56 268 OFFCURVE",
"420 351 OFFCURVE",
"384 175 CURVE SMOOTH",
"366 86 OFFCURVE",
"286 47 OFFCURVE",
"210 47 CURVE SMOOTH",
"159 47 OFFCURVE",
"114 68 OFFCURVE",
"90 99 CURVE",
"96 148 OFFCURVE",
"101 197 OFFCURVE",
"96 235 CURVE",
"57 235 LINE",
"12 86 LINE",
"43 28 OFFCURVE",
"134 -10 OFFCURVE",
"244 -10 CURVE SMOOTH"
);
}
);
width = 594;
}
);
leftKerningGroup = S;
note = S;
rightKerningGroup = S;
unicode = 0053;
},
{
glyphname = Sacute;
lastChange = "2015-10-27 15:00:59 +0000";
layers = (
{
layerId = "8296656B-A453-444F-9AE7-A28FFBBB6660";
name = "Bold Italic";
paths = (
{
closed = 1;
nodes = (
"398 -10 OFFCURVE",
"536 63 OFFCURVE",
"564 199 CURVE SMOOTH",
"619 472 OFFCURVE",
"261 416 OFFCURVE",
"289 554 CURVE SMOOTH",
"304 627 OFFCURVE",
"366 653 OFFCURVE",
"434 653 CURVE SMOOTH",
"480 653 OFFCURVE",
"524 641 OFFCURVE",
"546 618 CURVE",
"540 569 OFFCURVE",
"540 531 OFFCURVE",
"544 493 CURVE",
"584 493 LINE",
"629 636 LINE",
"585 688 OFFCURVE",
"517 710 OFFCURVE",
"410 710 CURVE SMOOTH",
"253 710 OFFCURVE",
"133 649 OFFCURVE",
"108 525 CURVE SMOOTH",
"56 268 OFFCURVE",
"420 351 OFFCURVE",
"384 175 CURVE SMOOTH",
"366 86 OFFCURVE",
"286 47 OFFCURVE",
"210 47 CURVE SMOOTH",
"159 47 OFFCURVE",
"114 68 OFFCURVE",
"90 99 CURVE",
"96 148 OFFCURVE",
"101 197 OFFCURVE",
"96 235 CURVE",
"57 235 LINE",
"12 86 LINE",
"43 28 OFFCURVE",
"134 -10 OFFCURVE",
"244 -10 CURVE SMOOTH"
);
},
{
closed = 1;
nodes = (
"509 882 LINE SMOOTH",
"547 903 OFFCURVE",
"569 923 OFFCURVE",
"574 950 CURVE",
"579 970 OFFCURVE",
"569 996 OFFCURVE",
"533 996 CURVE SMOOTH",
"500 996 OFFCURVE",
"464 964 OFFCURVE",
"457 958 CURVE SMOOTH",
"311 825 LINE",
"330 786 LINE"
);
}
);
width = 594;
}
);
leftKerningGroup = S;
note = Sacute;
rightKerningGroup = S;
unicode = 015A;
},
{
glyphname = Scaron;
lastChange = "2015-10-27 15:00:59 +0000";
layers = (
{
layerId = "8296656B-A453-444F-9AE7-A28FFBBB6660";
name = "Bold Italic";
paths = (
{
closed = 1;
nodes = (
"398 -10 OFFCURVE",
"536 63 OFFCURVE",
"564 199 CURVE SMOOTH",
"619 472 OFFCURVE",
"261 416 OFFCURVE",
"289 554 CURVE SMOOTH",
"304 627 OFFCURVE",
"366 653 OFFCURVE",
"434 653 CURVE SMOOTH",
"480 653 OFFCURVE",
"524 641 OFFCURVE",
"546 618 CURVE",
"540 569 OFFCURVE",
"540 531 OFFCURVE",
"544 493 CURVE",
"584 493 LINE",
"629 636 LINE",
"585 688 OFFCURVE",
"517 710 OFFCURVE",
"410 710 CURVE SMOOTH",
"253 710 OFFCURVE",
"133 649 OFFCURVE",
"108 525 CURVE SMOOTH",
"56 268 OFFCURVE",
"420 351 OFFCURVE",
"384 175 CURVE SMOOTH",
"366 86 OFFCURVE",
"286 47 OFFCURVE",
"210 47 CURVE SMOOTH",
"159 47 OFFCURVE",
"114 68 OFFCURVE",
"90 99 CURVE",
"96 148 OFFCURVE",
"101 197 OFFCURVE",
"96 235 CURVE",
"57 235 LINE",
"12 86 LINE",
"43 28 OFFCURVE",
"134 -10 OFFCURVE",
"244 -10 CURVE SMOOTH"
);
},
{
closed = 1;
nodes = (
"456 786 LINE",
"484 820 OFFCURVE",
"592 906 OFFCURVE",
"642 935 CURVE",
"585 985 LINE",
"537 952 OFFCURVE",
"461 887 OFFCURVE",
"431 850 CURVE",
"427 850 LINE",
"414 887 OFFCURVE",
"364 952 OFFCURVE",
"329 985 CURVE",
"252 935 LINE",
"290 906 OFFCURVE",
"363 820 OFFCURVE",
"377 786 CURVE"
);
}
);
width = 594;
}
);
leftKerningGroup = S;
note = Scaron;
rightKerningGroup = S;
unicode = 0160;
},
{
glyphname = Scedilla;
lastChange = "2015-10-27 15:00:59 +0000";
layers = (
{
layerId = "8296656B-A453-444F-9AE7-A28FFBBB6660";
name = "Bold Italic";
paths = (
{
closed = 1;
nodes = (
"398 -10 OFFCURVE",
"536 63 OFFCURVE",
"564 199 CURVE SMOOTH",
"619 472 OFFCURVE",
"261 416 OFFCURVE",
"289 554 CURVE SMOOTH",
"304 627 OFFCURVE",
"366 653 OFFCURVE",
"434 653 CURVE SMOOTH",
"480 653 OFFCURVE",
"524 641 OFFCURVE",
"546 618 CURVE",
"540 569 OFFCURVE",
"540 531 OFFCURVE",
"544 493 CURVE",
"584 493 LINE",
"629 636 LINE",
"585 688 OFFCURVE",
"517 710 OFFCURVE",
"410 710 CURVE SMOOTH",
"253 710 OFFCURVE",
"133 649 OFFCURVE",
"108 525 CURVE SMOOTH",
"56 268 OFFCURVE",
"420 351 OFFCURVE",
"384 175 CURVE SMOOTH",
"366 86 OFFCURVE",
"286 47 OFFCURVE",
"210 47 CURVE SMOOTH",
"159 47 OFFCURVE",
"114 68 OFFCURVE",
"90 99 CURVE",
"96 148 OFFCURVE",
"101 197 OFFCURVE",
"96 235 CURVE",
"57 235 LINE",
"12 86 LINE",
"43 28 OFFCURVE",
"134 -10 OFFCURVE",
"244 -10 CURVE SMOOTH"
);
},
{
closed = 1;
nodes = (
"271 -263 OFFCURVE",
"346 -225 OFFCURVE",
"361 -150 CURVE SMOOTH",
"370 -107 OFFCURVE",
"347 -59 OFFCURVE",
"260 -59 CURVE",
"319 28 LINE",
"249 28 LINE",
"180 -71 LINE",
"200 -106 LINE",
"206 -105 OFFCURVE",
"214 -105 OFFCURVE",
"222 -105 CURVE SMOOTH",
"252 -105 OFFCURVE",
"287 -114 OFFCURVE",
"280 -150 CURVE",
"271 -193 OFFCURVE",
"231 -206 OFFCURVE",
"189 -206 CURVE SMOOTH",
"159 -206 OFFCURVE",
"130 -198 OFFCURVE",
"112 -185 CURVE",
"79 -228 LINE",
"105 -250 OFFCURVE",
"152 -263 OFFCURVE",
"191 -263 CURVE SMOOTH"
);
}
);
width = 594;
}
);
leftKerningGroup = S;
note = Scedilla;
rightKerningGroup = S;
unicode = 015E;
},
{
glyphname = Scircumflex;
lastChange = "2015-10-27 15:00:59 +0000";
layers = (
{
layerId = "8296656B-A453-444F-9AE7-A28FFBBB6660";
name = "Bold Italic";
paths = (
{
closed = 1;
nodes = (
"398 -10 OFFCURVE",
"536 63 OFFCURVE",
"564 199 CURVE SMOOTH",
"619 472 OFFCURVE",
"261 416 OFFCURVE",
"289 554 CURVE SMOOTH",
"304 627 OFFCURVE",
"366 653 OFFCURVE",
"434 653 CURVE SMOOTH",
"480 653 OFFCURVE",
"524 641 OFFCURVE",
"546 618 CURVE",
"540 569 OFFCURVE",
"540 531 OFFCURVE",
"544 493 CURVE",
"584 493 LINE",
"629 636 LINE",
"585 688 OFFCURVE",
"517 710 OFFCURVE",
"410 710 CURVE SMOOTH",
"253 710 OFFCURVE",
"133 649 OFFCURVE",
"108 525 CURVE SMOOTH",
"56 268 OFFCURVE",
"420 351 OFFCURVE",
"384 175 CURVE SMOOTH",
"366 86 OFFCURVE",
"286 47 OFFCURVE",
"210 47 CURVE SMOOTH",
"159 47 OFFCURVE",
"114 68 OFFCURVE",
"90 99 CURVE",
"96 148 OFFCURVE",
"101 197 OFFCURVE",
"96 235 CURVE",
"57 235 LINE",
"12 86 LINE",
"43 28 OFFCURVE",
"134 -10 OFFCURVE",
"244 -10 CURVE SMOOTH"
);
},
{
closed = 1;
nodes = (
"336 818 OFFCURVE",
"413 883 OFFCURVE",
"442 920 CURVE",
"445 920 LINE",
"460 883 OFFCURVE",
"509 818 OFFCURVE",
"543 784 CURVE",
"622 835 LINE",
"584 863 OFFCURVE",
"510 950 OFFCURVE",
"496 984 CURVE",
"418 984 LINE",
"389 950 OFFCURVE",
"281 863 OFFCURVE",
"231 835 CURVE",
"289 784 LINE"
);
}
);
width = 594;
}
);
leftKerningGroup = S;
note = Scircumflex;
rightKerningGroup = S;
unicode = 015C;
},
{
glyphname = Scommaaccent;
lastChange = "2015-10-27 15:00:59 +0000";
layers = (
{
layerId = "8296656B-A453-444F-9AE7-A28FFBBB6660";
name = "Bold Italic";
paths = (
{
closed = 1;
nodes = (
"398 -10 OFFCURVE",
"536 63 OFFCURVE",
"564 199 CURVE SMOOTH",
"619 472 OFFCURVE",
"261 416 OFFCURVE",
"289 554 CURVE SMOOTH",
"304 627 OFFCURVE",
"366 653 OFFCURVE",
"434 653 CURVE SMOOTH",
"480 653 OFFCURVE",
"524 641 OFFCURVE",
"546 618 CURVE",
"540 569 OFFCURVE",
"540 531 OFFCURVE",
"544 493 CURVE",
"584 493 LINE",
"629 636 LINE",
"585 688 OFFCURVE",
"517 710 OFFCURVE",
"410 710 CURVE SMOOTH",
"253 710 OFFCURVE",
"133 649 OFFCURVE",
"108 525 CURVE SMOOTH",
"56 268 OFFCURVE",
"420 351 OFFCURVE",
"384 175 CURVE SMOOTH",
"366 86 OFFCURVE",
"286 47 OFFCURVE",
"210 47 CURVE SMOOTH",
"159 47 OFFCURVE",
"114 68 OFFCURVE",
"90 99 CURVE",
"96 148 OFFCURVE",
"101 197 OFFCURVE",
"96 235 CURVE",
"57 235 LINE",
"12 86 LINE",
"43 28 OFFCURVE",
"134 -10 OFFCURVE",
"244 -10 CURVE SMOOTH"
);
},
{
closed = 1;
nodes = (
"232 -309 OFFCURVE",
"299 -216 OFFCURVE",
"315 -133 CURVE SMOOTH",
"324 -90 OFFCURVE",
"305 -51 OFFCURVE",
"250 -51 CURVE SMOOTH",
"208 -51 OFFCURVE",
"167 -79 OFFCURVE",
"157 -125 CURVE SMOOTH",
"149 -165 OFFCURVE",
"178 -199 OFFCURVE",
"215 -201 CURVE",
"198 -246 OFFCURVE",
"149 -297 OFFCURVE",
"120 -322 CURVE",
"164 -362 LINE"
);
}
);
width = 594;
}
);
leftKerningGroup = S;
note = Scommaaccent;
rightKerningGroup = S;
unicode = 0218;
},
{
glyphname = Sdotaccent;
lastChange = "2015-10-27 15:00:59 +0000";
layers = (
{
layerId = "8296656B-A453-444F-9AE7-A28FFBBB6660";
name = "Bold Italic";
paths = (
{
closed = 1;
nodes = (
"398 -10 OFFCURVE",
"536 63 OFFCURVE",
"564 199 CURVE SMOOTH",
"619 472 OFFCURVE",
"261 416 OFFCURVE",
"289 554 CURVE SMOOTH",
"304 627 OFFCURVE",
"366 653 OFFCURVE",
"434 653 CURVE SMOOTH",
"480 653 OFFCURVE",
"524 641 OFFCURVE",
"546 618 CURVE",
"540 569 OFFCURVE",
"540 531 OFFCURVE",
"544 493 CURVE",
"584 493 LINE",
"629 636 LINE",
"585 688 OFFCURVE",
"517 710 OFFCURVE",
"410 710 CURVE SMOOTH",
"253 710 OFFCURVE",
"133 649 OFFCURVE",
"108 525 CURVE SMOOTH",
"56 268 OFFCURVE",
"420 351 OFFCURVE",
"384 175 CURVE SMOOTH",
"366 86 OFFCURVE",
"286 47 OFFCURVE",
"210 47 CURVE SMOOTH",
"159 47 OFFCURVE",
"114 68 OFFCURVE",
"90 99 CURVE",
"96 148 OFFCURVE",
"101 197 OFFCURVE",
"96 235 CURVE",
"57 235 LINE",
"12 86 LINE",
"43 28 OFFCURVE",
"134 -10 OFFCURVE",
"244 -10 CURVE SMOOTH"
);
},
{
closed = 1;
nodes = (
"473 785 OFFCURVE",
"505 815 OFFCURVE",
"513 852 CURVE SMOOTH",
"520 890 OFFCURVE",
"501 920 OFFCURVE",
"462 920 CURVE SMOOTH",
"421 920 OFFCURVE",
"392 890 OFFCURVE",
"384 852 CURVE SMOOTH",
"376 815 OFFCURVE",
"394 785 OFFCURVE",
"434 785 CURVE SMOOTH"
);
}
);
width = 594;
}
);
leftKerningGroup = S;
note = Sdotaccent;
rightKerningGroup = S;
unicode = 1E60;
},
{
glyphname = Sdotbelow;
lastChange = "2015-10-27 15:00:59 +0000";
layers = (
{
layerId = "8296656B-A453-444F-9AE7-A28FFBBB6660";
name = "Bold Italic";
paths = (
{
closed = 1;
nodes = (
"398 -10 OFFCURVE",
"536 63 OFFCURVE",
"564 199 CURVE SMOOTH",
"619 472 OFFCURVE",
"261 416 OFFCURVE",
"289 554 CURVE SMOOTH",
"304 627 OFFCURVE",
"366 653 OFFCURVE",
"434 653 CURVE SMOOTH",
"480 653 OFFCURVE",
"524 641 OFFCURVE",
"546 618 CURVE",
"540 569 OFFCURVE",
"540 531 OFFCURVE",
"544 493 CURVE",
"584 493 LINE",
"629 636 LINE",
"585 688 OFFCURVE",
"517 710 OFFCURVE",
"410 710 CURVE SMOOTH",
"253 710 OFFCURVE",
"133 649 OFFCURVE",
"108 525 CURVE SMOOTH",
"56 268 OFFCURVE",
"420 351 OFFCURVE",
"384 175 CURVE SMOOTH",
"366 86 OFFCURVE",
"286 47 OFFCURVE",
"210 47 CURVE SMOOTH",
"159 47 OFFCURVE",
"114 68 OFFCURVE",
"90 99 CURVE",
"96 148 OFFCURVE",
"101 197 OFFCURVE",
"96 235 CURVE",
"57 235 LINE",
"12 86 LINE",
"43 28 OFFCURVE",
"134 -10 OFFCURVE",
"244 -10 CURVE SMOOTH"
);
},
{
closed = 1;
nodes = (
"270 -187 OFFCURVE",
"300 -157 OFFCURVE",
"308 -120 CURVE SMOOTH",
"316 -82 OFFCURVE",
"297 -52 OFFCURVE",
"256 -52 CURVE SMOOTH",
"217 -52 OFFCURVE",
"187 -82 OFFCURVE",
"180 -120 CURVE SMOOTH",
"172 -157 OFFCURVE",
"190 -187 OFFCURVE",
"229 -187 CURVE SMOOTH"
);
}
);
width = 594;
}
);
leftKerningGroup = S;
note = Sdotbelow;
rightKerningGroup = S;
unicode = 1E62;
},
{
glyphname = Germandbls;
lastChange = "2015-10-27 15:00:59 +0000";
layers = (
{
layerId = "8296656B-A453-444F-9AE7-A28FFBBB6660";
name = "Bold Italic";
paths = (
{
closed = 1;
nodes = (
"604 -10 OFFCURVE",
"708 90 OFFCURVE",
"732 207 CURVE SMOOTH",
"753 309 OFFCURVE",
"684 382 OFFCURVE",
"551 402 CURVE",
"722 552 LINE",
"714 627 OFFCURVE",
"637 710 OFFCURVE",
"483 710 CURVE SMOOTH",
"287 710 OFFCURVE",
"183 628 OFFCURVE",
"155 488 CURVE SMOOTH",
"64 43 LINE",
"36 37 OFFCURVE",
"10 29 OFFCURVE",
"-18 22 CURVE",
"-22 0 LINE",
"248 0 LINE",
"256 43 LINE",
"251 45 OFFCURVE",
"237 49 OFFCURVE",
"233 50 CURVE",
"332 534 LINE SMOOTH",
"348 612 OFFCURVE",
"396 653 OFFCURVE",
"465 653 CURVE SMOOTH",
"537 653 OFFCURVE",
"568 609 OFFCURVE",
"573 558 CURVE",
"373 380 LINE",
"369 353 LINE",
"467 353 LINE SMOOTH",
"550 353 OFFCURVE",
"581 293 OFFCURVE",
"563 207 CURVE SMOOTH",
"543 110 OFFCURVE",
"489 44 OFFCURVE",
"416 44 CURVE SMOOTH",
"383 44 OFFCURVE",
"350 49 OFFCURVE",
"319 58 CURVE",
"307 2 LINE",
"336 -6 OFFCURVE",
"370 -10 OFFCURVE",
"408 -10 CURVE SMOOTH"
);
}
);
width = 757;
}
);
note = uni1E9E;
unicode = 1E9E;
},
{
glyphname = Schwa;
lastChange = "2015-10-27 15:00:59 +0000";
layers = (
{
layerId = "8296656B-A453-444F-9AE7-A28FFBBB6660";
name = "Bold Italic";
paths = (
{
closed = 1;
nodes = (
"531 -10 OFFCURVE",
"698 111 OFFCURVE",
"746 344 CURVE SMOOTH",
"789 559 OFFCURVE",
"681 710 OFFCURVE",
"435 710 CURVE SMOOTH",
"281 710 OFFCURVE",
"187 659 OFFCURVE",
"135 627 CURVE",
"146 572 LINE",
"253 636 OFFCURVE",
"326 652 OFFCURVE",
"409 652 CURVE SMOOTH",
"564 652 OFFCURVE",
"610 488 OFFCURVE",
"577 327 CURVE SMOOTH",
"547 181 OFFCURVE",
"455 43 OFFCURVE",
"317 43 CURVE SMOOTH",
"212 43 OFFCURVE",
"193 175 OFFCURVE",
"217 292 CURVE",
"581 292 LINE",
"591 348 LINE",
"61 348 LINE",
"55 312 LINE SMOOTH",
"19 138 OFFCURVE",
"84 -10 OFFCURVE",
"310 -10 CURVE SMOOTH"
);
}
);
width = 744;
}
);
note = uni018F;
unicode = 018F;
},
{
glyphname = T;
lastChange = "2015-10-27 15:07:10 +0000";
layers = (
{
layerId = "8296656B-A453-444F-9AE7-A28FFBBB6660";
name = "Bold Italic";
paths = (
{
closed = 1;
nodes = (
"464 0 LINE",
"468 20 LINE",
"443 28 OFFCURVE",
"408 38 OFFCURVE",
"386 42 CURVE",
"510 645 LINE",
"652 645 LINE",
"647 613 OFFCURVE",
"651 510 OFFCURVE",
"660 487 CURVE",
"697 487 LINE",
"740 700 LINE",
"130 700 LINE",
"86 487 LINE",
"123 487 LINE",
"142 510 OFFCURVE",
"188 613 OFFCURVE",
"197 645 CURVE",
"339 645 LINE",
"216 43 LINE",
"184 36 OFFCURVE",
"154 29 OFFCURVE",
"127 22 CURVE",
"123 0 LINE"
);
}
);
width = 663;
}
);
leftKerningGroup = T;
note = T;
rightKerningGroup = T;
unicode = 0054;
},
{
glyphname = Tbar;
lastChange = "2015-10-27 15:00:59 +0000";
layers = (
{
layerId = "8296656B-A453-444F-9AE7-A28FFBBB6660";
name = "Bold Italic";
paths = (
{
closed = 1;
nodes = (
"464 0 LINE",
"468 20 LINE",
"443 28 OFFCURVE",
"408 38 OFFCURVE",
"386 42 CURVE",
"510 645 LINE",
"652 645 LINE",
"647 613 OFFCURVE",
"651 510 OFFCURVE",
"660 487 CURVE",
"697 487 LINE",
"740 700 LINE",
"130 700 LINE",
"86 487 LINE",
"123 487 LINE",
"142 510 OFFCURVE",
"188 613 OFFCURVE",
"197 645 CURVE",
"339 645 LINE",
"216 43 LINE",
"184 36 OFFCURVE",
"154 29 OFFCURVE",
"127 22 CURVE",
"123 0 LINE"
);
},
{
closed = 1;
nodes = (
"578 288 LINE",
"588 341 LINE",
"148 341 LINE",
"137 288 LINE"
);
}
);
width = 663;
}
);
leftKerningGroup = T;
note = Tbar;
rightKerningGroup = T;
unicode = 0166;
},
{
glyphname = Tcaron;
lastChange = "2015-10-27 15:00:58 +0000";
layers = (
{
layerId = "8296656B-A453-444F-9AE7-A28FFBBB6660";
name = "Bold Italic";
paths = (
{
closed = 1;
nodes = (
"464 0 LINE",
"468 20 LINE",
"443 28 OFFCURVE",
"408 38 OFFCURVE",
"386 42 CURVE",
"510 645 LINE",
"652 645 LINE",
"647 613 OFFCURVE",
"651 510 OFFCURVE",
"660 487 CURVE",
"697 487 LINE",
"740 700 LINE",
"130 700 LINE",
"86 487 LINE",
"123 487 LINE",
"142 510 OFFCURVE",
"188 613 OFFCURVE",
"197 645 CURVE",
"339 645 LINE",
"216 43 LINE",
"184 36 OFFCURVE",
"154 29 OFFCURVE",
"127 22 CURVE",
"123 0 LINE"
);
},
{
closed = 1;
nodes = (
"490 786 LINE",
"517 820 OFFCURVE",
"626 906 OFFCURVE",
"676 935 CURVE",
"618 985 LINE",
"570 952 OFFCURVE",
"494 887 OFFCURVE",
"465 850 CURVE",
"461 850 LINE",
"447 887 OFFCURVE",
"397 952 OFFCURVE",
"363 985 CURVE",
"285 935 LINE",
"324 906 OFFCURVE",
"396 820 OFFCURVE",
"411 786 CURVE"
);
}
);
width = 663;
}
);
leftKerningGroup = T;
note = Tcaron;
rightKerningGroup = T;
unicode = 0164;
},
{
glyphname = Tcedilla;
lastChange = "2015-10-27 15:00:59 +0000";
layers = (
{
layerId = "8296656B-A453-444F-9AE7-A28FFBBB6660";
name = "Bold Italic";
paths = (
{
closed = 1;
nodes = (
"464 0 LINE",
"468 20 LINE",
"443 28 OFFCURVE",
"408 38 OFFCURVE",
"386 42 CURVE",
"510 645 LINE",
"652 645 LINE",
"647 613 OFFCURVE",
"651 510 OFFCURVE",
"660 487 CURVE",
"697 487 LINE",
"740 700 LINE",
"130 700 LINE",
"86 487 LINE",
"123 487 LINE",
"142 510 OFFCURVE",
"188 613 OFFCURVE",
"197 645 CURVE",
"339 645 LINE",
"216 43 LINE",
"184 36 OFFCURVE",
"154 29 OFFCURVE",
"127 22 CURVE",
"123 0 LINE"
);
},
{
closed = 1;
nodes = (
"285 -263 OFFCURVE",
"360 -225 OFFCURVE",
"375 -150 CURVE SMOOTH",
"383 -109 OFFCURVE",
"364 -66 OFFCURVE",
"291 -60 CURVE",
"287 -60 OFFCURVE",
"278 -59 OFFCURVE",
"275 -59 CURVE",
"333 28 LINE",
"263 28 LINE",
"194 -71 LINE",
"213 -106 LINE",
"220 -105 OFFCURVE",
"228 -105 OFFCURVE",
"235 -105 CURVE SMOOTH",
"266 -105 OFFCURVE",
"301 -114 OFFCURVE",
"295 -150 CURVE",
"285 -193 OFFCURVE",
"245 -206 OFFCURVE",
"203 -206 CURVE SMOOTH",
"173 -206 OFFCURVE",
"143 -198 OFFCURVE",
"126 -185 CURVE",
"92 -228 LINE",
"119 -250 OFFCURVE",
"165 -263 OFFCURVE",
"205 -263 CURVE SMOOTH"
);
}
);
width = 663;
}
);
leftKerningGroup = T;
note = Tcedilla;
rightKerningGroup = T;
unicode = 0162;
},
{
glyphname = Tcommaaccent;
lastChange = "2015-10-27 15:00:59 +0000";
layers = (
{
layerId = "8296656B-A453-444F-9AE7-A28FFBBB6660";
name = "Bold Italic";
paths = (
{
closed = 1;
nodes = (
"464 0 LINE",
"468 20 LINE",
"443 28 OFFCURVE",
"408 38 OFFCURVE",
"386 42 CURVE",
"510 645 LINE",
"652 645 LINE",
"647 613 OFFCURVE",
"651 510 OFFCURVE",
"660 487 CURVE",
"697 487 LINE",
"740 700 LINE",
"130 700 LINE",
"86 487 LINE",
"123 487 LINE",
"142 510 OFFCURVE",
"188 613 OFFCURVE",
"197 645 CURVE",
"339 645 LINE",
"216 43 LINE",
"184 36 OFFCURVE",
"154 29 OFFCURVE",
"127 22 CURVE",
"123 0 LINE"
);
},
{
closed = 1;
nodes = (
"258 -338 OFFCURVE",
"321 -250 OFFCURVE",
"338 -167 CURVE SMOOTH",
"347 -124 OFFCURVE",
"328 -85 OFFCURVE",
"273 -85 CURVE SMOOTH",
"232 -85 OFFCURVE",
"190 -113 OFFCURVE",
"181 -158 CURVE SMOOTH",
"173 -199 OFFCURVE",
"199 -231 OFFCURVE",
"239 -234 CURVE",
"222 -279 OFFCURVE",
"175 -325 OFFCURVE",
"146 -350 CURVE",
"189 -390 LINE"
);
}
);
width = 663;
}
);
leftKerningGroup = T;
note = Tcommaaccent;
rightKerningGroup = T;
unicode = 021A;
},
{
glyphname = Tdotbelow;
lastChange = "2015-10-27 15:00:59 +0000";
layers = (
{
layerId = "8296656B-A453-444F-9AE7-A28FFBBB6660";
name = "Bold Italic";
paths = (
{
closed = 1;
nodes = (
"464 0 LINE",
"468 20 LINE",
"443 28 OFFCURVE",
"408 38 OFFCURVE",
"386 42 CURVE",
"510 645 LINE",
"652 645 LINE",
"647 613 OFFCURVE",
"651 510 OFFCURVE",
"660 487 CURVE",
"697 487 LINE",
"740 700 LINE",
"130 700 LINE",
"86 487 LINE",
"123 487 LINE",
"142 510 OFFCURVE",
"188 613 OFFCURVE",
"197 645 CURVE",
"339 645 LINE",
"216 43 LINE",
"184 36 OFFCURVE",
"154 29 OFFCURVE",
"127 22 CURVE",
"123 0 LINE"
);
},
{
closed = 1;
nodes = (
"294 -187 OFFCURVE",
"324 -157 OFFCURVE",
"332 -120 CURVE SMOOTH",
"340 -82 OFFCURVE",
"321 -52 OFFCURVE",
"280 -52 CURVE SMOOTH",
"241 -52 OFFCURVE",
"211 -82 OFFCURVE",
"204 -120 CURVE SMOOTH",
"196 -157 OFFCURVE",
"214 -187 OFFCURVE",
"253 -187 CURVE SMOOTH"
);
}
);
width = 663;
}
);
leftKerningGroup = T;
note = Tdotbelow;
rightKerningGroup = T;
unicode = 1E6C;
},
{
glyphname = Tlinebelow;
lastChange = "2015-10-27 15:00:58 +0000";
layers = (
{
layerId = "8296656B-A453-444F-9AE7-A28FFBBB6660";
name = "Bold Italic";
paths = (
{
closed = 1;
nodes = (
"464 0 LINE",
"468 20 LINE",
"443 28 OFFCURVE",
"408 38 OFFCURVE",
"386 42 CURVE",
"510 645 LINE",
"652 645 LINE",
"647 613 OFFCURVE",
"651 510 OFFCURVE",
"660 487 CURVE",
"697 487 LINE",
"740 700 LINE",
"130 700 LINE",
"86 487 LINE",
"123 487 LINE",
"142 510 OFFCURVE",
"188 613 OFFCURVE",
"197 645 CURVE",
"339 645 LINE",
"216 43 LINE",
"184 36 OFFCURVE",
"154 29 OFFCURVE",
"127 22 CURVE",
"123 0 LINE"
);
},
{
closed = 1;
nodes = (
"466 -111 LINE",
"476 -58 LINE",
"84 -58 LINE",
"74 -111 LINE"
);
}
);
width = 663;
}
);
leftKerningGroup = T;
note = Tlinebelow;
rightKerningGroup = T;
unicode = 1E6E;
},
{
glyphname = U;
lastChange = "2015-10-27 15:00:59 +0000";
layers = (
{
layerId = "8296656B-A453-444F-9AE7-A28FFBBB6660";
name = "Bold Italic";
paths = (
{
closed = 1;
nodes = (
"545 -10 OFFCURVE",
"658 72 OFFCURVE",
"688 222 CURVE SMOOTH",
"777 656 LINE",
"786 658 OFFCURVE",
"818 666 OFFCURVE",
"858 680 CURVE",
"862 700 LINE",
"642 700 LINE",
"638 680 LINE",
"665 670 OFFCURVE",
"687 663 OFFCURVE",
"711 658 CURVE",
"619 207 LINE SMOOTH",
"595 87 OFFCURVE",
"499 47 OFFCURVE",
"411 47 CURVE SMOOTH",
"324 47 OFFCURVE",
"247 83 OFFCURVE",
"272 207 CURVE SMOOTH",
"364 656 LINE",
"392 663 OFFCURVE",
"420 670 OFFCURVE",
"444 677 CURVE",
"449 700 LINE",
"125 700 LINE",
"121 680 LINE",
"147 670 OFFCURVE",
"171 662 OFFCURVE",
"193 657 CURVE",
"105 222 LINE SMOOTH",
"72 62 OFFCURVE",
"165 -10 OFFCURVE",
"357 -10 CURVE SMOOTH"
);
}
);
width = 780;
}
);
leftKerningGroup = U;
note = U;
rightKerningGroup = U;
unicode = 0055;
},
{
glyphname = Uacute;
lastChange = "2015-10-27 15:00:58 +0000";
layers = (
{
layerId = "8296656B-A453-444F-9AE7-A28FFBBB6660";
name = "Bold Italic";
paths = (
{
closed = 1;
nodes = (
"545 -10 OFFCURVE",
"658 72 OFFCURVE",
"688 222 CURVE SMOOTH",
"777 656 LINE",
"786 658 OFFCURVE",
"818 666 OFFCURVE",
"858 680 CURVE",
"862 700 LINE",
"642 700 LINE",
"638 680 LINE",
"665 670 OFFCURVE",
"687 663 OFFCURVE",
"711 658 CURVE",
"619 207 LINE SMOOTH",
"595 87 OFFCURVE",
"499 47 OFFCURVE",
"411 47 CURVE SMOOTH",
"324 47 OFFCURVE",
"247 83 OFFCURVE",
"272 207 CURVE SMOOTH",
"364 656 LINE",
"392 663 OFFCURVE",
"420 670 OFFCURVE",
"444 677 CURVE",
"449 700 LINE",
"125 700 LINE",
"121 680 LINE",
"147 670 OFFCURVE",
"171 662 OFFCURVE",
"193 657 CURVE",
"105 222 LINE SMOOTH",
"72 62 OFFCURVE",
"165 -10 OFFCURVE",
"357 -10 CURVE SMOOTH"
);
},
{
closed = 1;
nodes = (
"650 882 LINE SMOOTH",
"688 903 OFFCURVE",
"710 923 OFFCURVE",
"715 950 CURVE",
"720 970 OFFCURVE",
"710 996 OFFCURVE",
"674 996 CURVE SMOOTH",
"641 996 OFFCURVE",
"605 964 OFFCURVE",
"598 958 CURVE SMOOTH",
"452 825 LINE",
"471 786 LINE"
);
}
);
width = 780;
}
);
leftKerningGroup = U;
note = Uacute;
rightKerningGroup = U;
unicode = 00DA;
},
{
glyphname = Ubreve;
lastChange = "2015-10-27 15:00:59 +0000";
layers = (
{
layerId = "8296656B-A453-444F-9AE7-A28FFBBB6660";
name = "Bold Italic";
paths = (
{
closed = 1;
nodes = (
"545 -10 OFFCURVE",
"658 72 OFFCURVE",
"688 222 CURVE SMOOTH",
"777 656 LINE",
"786 658 OFFCURVE",
"818 666 OFFCURVE",
"858 680 CURVE",
"862 700 LINE",
"642 700 LINE",
"638 680 LINE",
"665 670 OFFCURVE",
"687 663 OFFCURVE",
"711 658 CURVE",
"619 207 LINE SMOOTH",
"595 87 OFFCURVE",
"499 47 OFFCURVE",
"411 47 CURVE SMOOTH",
"324 47 OFFCURVE",
"247 83 OFFCURVE",
"272 207 CURVE SMOOTH",
"364 656 LINE",
"392 663 OFFCURVE",
"420 670 OFFCURVE",
"444 677 CURVE",
"449 700 LINE",
"125 700 LINE",
"121 680 LINE",
"147 670 OFFCURVE",
"171 662 OFFCURVE",
"193 657 CURVE",
"105 222 LINE SMOOTH",
"72 62 OFFCURVE",
"165 -10 OFFCURVE",
"357 -10 CURVE SMOOTH"
);
},
{
closed = 1;
nodes = (
"619 783 OFFCURVE",
"697 827 OFFCURVE",
"731 920 CURVE",
"638 920 LINE",
"617 848 OFFCURVE",
"572 839 OFFCURVE",
"533 839 CURVE SMOOTH",
"493 839 OFFCURVE",
"451 848 OFFCURVE",
"459 920 CURVE",
"368 920 LINE",
"366 827 OFFCURVE",
"422 783 OFFCURVE",
"521 783 CURVE SMOOTH"
);
}
);
width = 780;
}
);
leftKerningGroup = U;
note = Ubreve;
rightKerningGroup = U;
unicode = 016C;
},
{
glyphname = Ucaron;
lastChange = "2015-10-27 15:00:59 +0000";
layers = (
{
layerId = "8296656B-A453-444F-9AE7-A28FFBBB6660";
name = "Bold Italic";
paths = (
{
closed = 1;
nodes = (
"545 -10 OFFCURVE",
"658 72 OFFCURVE",
"688 222 CURVE SMOOTH",
"777 656 LINE",
"786 658 OFFCURVE",
"818 666 OFFCURVE",
"858 680 CURVE",
"862 700 LINE",
"642 700 LINE",
"638 680 LINE",
"665 670 OFFCURVE",
"687 663 OFFCURVE",
"711 658 CURVE",
"619 207 LINE SMOOTH",
"595 87 OFFCURVE",
"499 47 OFFCURVE",
"411 47 CURVE SMOOTH",
"324 47 OFFCURVE",
"247 83 OFFCURVE",
"272 207 CURVE SMOOTH",
"364 656 LINE",
"392 663 OFFCURVE",
"420 670 OFFCURVE",
"444 677 CURVE",
"449 700 LINE",
"125 700 LINE",
"121 680 LINE",
"147 670 OFFCURVE",
"171 662 OFFCURVE",
"193 657 CURVE",
"105 222 LINE SMOOTH",
"72 62 OFFCURVE",
"165 -10 OFFCURVE",
"357 -10 CURVE SMOOTH"
);
},
{
closed = 1;
nodes = (
"571 786 LINE",
"599 820 OFFCURVE",
"708 906 OFFCURVE",
"757 935 CURVE",
"700 985 LINE",
"652 952 OFFCURVE",
"576 887 OFFCURVE",
"546 850 CURVE",
"542 850 LINE",
"529 887 OFFCURVE",
"479 952 OFFCURVE",
"444 985 CURVE",
"367 935 LINE",
"405 906 OFFCURVE",
"478 820 OFFCURVE",
"492 786 CURVE"
);
}
);
width = 780;
}
);
leftKerningGroup = U;
note = Ucaron;
rightKerningGroup = U;
unicode = 01D3;
},
{
glyphname = Ucircumflex;
lastChange = "2015-10-27 15:00:59 +0000";
layers = (
{
layerId = "8296656B-A453-444F-9AE7-A28FFBBB6660";
name = "Bold Italic";
paths = (
{
closed = 1;
nodes = (
"545 -10 OFFCURVE",
"658 72 OFFCURVE",
"688 222 CURVE SMOOTH",
"777 656 LINE",
"786 658 OFFCURVE",
"818 666 OFFCURVE",
"858 680 CURVE",
"862 700 LINE",
"642 700 LINE",
"638 680 LINE",
"665 670 OFFCURVE",
"687 663 OFFCURVE",
"711 658 CURVE",
"619 207 LINE SMOOTH",
"595 87 OFFCURVE",
"499 47 OFFCURVE",
"411 47 CURVE SMOOTH",
"324 47 OFFCURVE",
"247 83 OFFCURVE",
"272 207 CURVE SMOOTH",
"364 656 LINE",
"392 663 OFFCURVE",
"420 670 OFFCURVE",
"444 677 CURVE",
"449 700 LINE",
"125 700 LINE",
"121 680 LINE",
"147 670 OFFCURVE",
"171 662 OFFCURVE",
"193 657 CURVE",
"105 222 LINE SMOOTH",
"72 62 OFFCURVE",
"165 -10 OFFCURVE",
"357 -10 CURVE SMOOTH"
);
},
{
closed = 1;
nodes = (
"431 818 OFFCURVE",
"508 883 OFFCURVE",
"537 920 CURVE",
"540 920 LINE",
"555 883 OFFCURVE",
"604 818 OFFCURVE",
"638 784 CURVE",
"717 835 LINE",
"679 863 OFFCURVE",
"605 950 OFFCURVE",
"591 984 CURVE",
"513 984 LINE",
"484 950 OFFCURVE",
"376 863 OFFCURVE",
"326 835 CURVE",
"384 784 LINE"
);
}
);
width = 780;
}
);
leftKerningGroup = U;
note = Ucircumflex;
rightKerningGroup = U;
unicode = 00DB;
},
{
glyphname = Udieresis;
lastChange = "2015-10-27 15:00:59 +0000";
layers = (
{
layerId = "8296656B-A453-444F-9AE7-A28FFBBB6660";
name = "Bold Italic";
paths = (
{
closed = 1;
nodes = (
"545 -10 OFFCURVE",
"658 72 OFFCURVE",
"688 222 CURVE SMOOTH",
"777 656 LINE",
"786 658 OFFCURVE",
"818 666 OFFCURVE",
"858 680 CURVE",
"862 700 LINE",
"642 700 LINE",
"638 680 LINE",
"665 670 OFFCURVE",
"687 663 OFFCURVE",
"711 658 CURVE",
"619 207 LINE SMOOTH",
"595 87 OFFCURVE",
"499 47 OFFCURVE",
"411 47 CURVE SMOOTH",
"324 47 OFFCURVE",
"247 83 OFFCURVE",
"272 207 CURVE SMOOTH",
"364 656 LINE",
"392 663 OFFCURVE",
"420 670 OFFCURVE",
"444 677 CURVE",
"449 700 LINE",
"125 700 LINE",
"121 680 LINE",
"147 670 OFFCURVE",
"171 662 OFFCURVE",
"193 657 CURVE",
"105 222 LINE SMOOTH",
"72 62 OFFCURVE",
"165 -10 OFFCURVE",
"357 -10 CURVE SMOOTH"
);
},
{
closed = 1;
nodes = (
"456 785 OFFCURVE",
"488 815 OFFCURVE",
"495 852 CURVE SMOOTH",
"503 890 OFFCURVE",
"484 920 OFFCURVE",
"444 920 CURVE SMOOTH",
"406 920 OFFCURVE",
"375 890 OFFCURVE",
"368 852 CURVE SMOOTH",
"360 815 OFFCURVE",
"378 785 OFFCURVE",
"418 785 CURVE SMOOTH"
);
},
{
closed = 1;
nodes = (
"693 785 OFFCURVE",
"725 815 OFFCURVE",
"732 852 CURVE SMOOTH",
"740 890 OFFCURVE",
"721 920 OFFCURVE",
"681 920 CURVE SMOOTH",
"641 920 OFFCURVE",
"612 890 OFFCURVE",
"604 852 CURVE SMOOTH",
"596 815 OFFCURVE",
"613 785 OFFCURVE",
"653 785 CURVE SMOOTH"
);
}
);
width = 780;
}
);
leftKerningGroup = U;
note = Udieresis;
rightKerningGroup = U;
unicode = 00DC;
},
{
glyphname = Udieresisacute;
lastChange = "2015-10-27 15:00:58 +0000";
layers = (
{
layerId = "8296656B-A453-444F-9AE7-A28FFBBB6660";
name = "Bold Italic";
paths = (
{
closed = 1;
nodes = (
"545 -10 OFFCURVE",
"658 72 OFFCURVE",
"688 222 CURVE SMOOTH",
"777 656 LINE",
"786 658 OFFCURVE",
"818 666 OFFCURVE",
"858 680 CURVE",
"862 700 LINE",
"642 700 LINE",
"638 680 LINE",
"665 670 OFFCURVE",
"687 663 OFFCURVE",
"711 658 CURVE",
"619 207 LINE SMOOTH",
"595 87 OFFCURVE",
"499 47 OFFCURVE",
"411 47 CURVE SMOOTH",
"324 47 OFFCURVE",
"247 83 OFFCURVE",
"272 207 CURVE SMOOTH",
"364 656 LINE",
"392 663 OFFCURVE",
"420 670 OFFCURVE",
"444 677 CURVE",
"449 700 LINE",
"125 700 LINE",
"121 680 LINE",
"147 670 OFFCURVE",
"171 662 OFFCURVE",
"193 657 CURVE",
"105 222 LINE SMOOTH",
"72 62 OFFCURVE",
"165 -10 OFFCURVE",
"357 -10 CURVE SMOOTH"
);
},
{
closed = 1;
nodes = (
"459 785 OFFCURVE",
"491 815 OFFCURVE",
"498 852 CURVE SMOOTH",
"505 889 OFFCURVE",
"487 920 OFFCURVE",
"446 920 CURVE SMOOTH",
"407 920 OFFCURVE",
"376 889 OFFCURVE",
"370 852 CURVE SMOOTH",
"362 815 OFFCURVE",
"379 785 OFFCURVE",
"419 785 CURVE SMOOTH"
);
},
{
closed = 1;
nodes = (
"695 785 OFFCURVE",
"727 815 OFFCURVE",
"734 852 CURVE SMOOTH",
"741 889 OFFCURVE",
"723 920 OFFCURVE",
"684 920 CURVE SMOOTH",
"643 920 OFFCURVE",
"612 889 OFFCURVE",
"606 852 CURVE SMOOTH",
"598 815 OFFCURVE",
"615 785 OFFCURVE",
"656 785 CURVE SMOOTH"
);
},
{
closed = 1;
nodes = (
"674 1066 LINE SMOOTH",
"713 1087 OFFCURVE",
"735 1107 OFFCURVE",
"740 1133 CURVE",
"745 1154 OFFCURVE",
"734 1180 OFFCURVE",
"697 1180 CURVE SMOOTH",
"661 1180 OFFCURVE",
"630 1148 OFFCURVE",
"623 1142 CURVE SMOOTH",
"481 1012 LINE",
"499 973 LINE"
);
}
);
width = 780;
}
);
leftKerningGroup = U;
note = Udieresisacute;
rightKerningGroup = U;
unicode = 01D7;
},
{
glyphname = Udieresiscaron;
lastChange = "2015-10-27 15:00:59 +0000";
layers = (
{
layerId = "8296656B-A453-444F-9AE7-A28FFBBB6660";
name = "Bold Italic";
paths = (
{
closed = 1;
nodes = (
"545 -10 OFFCURVE",
"658 72 OFFCURVE",
"688 222 CURVE SMOOTH",
"777 656 LINE",
"786 658 OFFCURVE",
"818 666 OFFCURVE",
"858 680 CURVE",
"862 700 LINE",
"642 700 LINE",
"638 680 LINE",
"665 670 OFFCURVE",
"687 663 OFFCURVE",
"711 658 CURVE",
"619 207 LINE SMOOTH",
"595 87 OFFCURVE",
"499 47 OFFCURVE",
"411 47 CURVE SMOOTH",
"324 47 OFFCURVE",
"247 83 OFFCURVE",
"272 207 CURVE SMOOTH",
"364 656 LINE",
"392 663 OFFCURVE",
"420 670 OFFCURVE",
"444 677 CURVE",
"449 700 LINE",
"125 700 LINE",
"121 680 LINE",
"147 670 OFFCURVE",
"171 662 OFFCURVE",
"193 657 CURVE",
"105 222 LINE SMOOTH",
"72 62 OFFCURVE",
"165 -10 OFFCURVE",
"357 -10 CURVE SMOOTH"
);
},
{
closed = 1;
nodes = (
"471 852 OFFCURVE",
"502 881 OFFCURVE",
"510 918 CURVE SMOOTH",
"517 956 OFFCURVE",
"498 986 OFFCURVE",
"459 986 CURVE SMOOTH",
"419 986 OFFCURVE",
"389 956 OFFCURVE",
"381 918 CURVE SMOOTH",
"373 881 OFFCURVE",
"392 852 OFFCURVE",
"432 852 CURVE SMOOTH"
);
},
{
closed = 1;
nodes = (
"708 852 OFFCURVE",
"739 881 OFFCURVE",
"747 918 CURVE SMOOTH",
"755 956 OFFCURVE",
"735 986 OFFCURVE",
"695 986 CURVE SMOOTH",
"656 986 OFFCURVE",
"626 956 OFFCURVE",
"618 918 CURVE SMOOTH",
"611 881 OFFCURVE",
"629 852 OFFCURVE",
"668 852 CURVE SMOOTH"
);
},
{
closed = 1;
nodes = (
"622 1015 LINE",
"651 1049 OFFCURVE",
"750 1125 OFFCURVE",
"800 1154 CURVE",
"744 1206 LINE",
"696 1173 OFFCURVE",
"628 1116 OFFCURVE",
"598 1079 CURVE",
"594 1079 LINE",
"580 1116 OFFCURVE",
"535 1173 OFFCURVE",
"500 1206 CURVE",
"423 1154 LINE",
"462 1125 OFFCURVE",
"530 1049 OFFCURVE",
"543 1015 CURVE"
);
}
);
width = 780;
}
);
leftKerningGroup = U;
note = Udieresiscaron;
rightKerningGroup = U;
unicode = 01D9;
},
